CinzelDecorative-Black-OTF.ufo
<glyph name="numbersign" format="1">
  <advance width="600"/>
  <unicode hex="0023"/>
  <outline>
    <contour>
      <point x="546" y="436.877" type="line"/>
      <point x="546" y="496.877" type="line"/>
      <point x="438.658" y="496.877" type="line"/>
      <point x="474.474" y="700" type="line"/>
      <point x="412.474" y="700" type="line"/>
      <point x="376.658" y="496.877" type="line"/>
      <point x="238.658" y="496.877" type="line"/>
      <point x="274.474" y="700" type="line"/>
      <point x="212.474" y="700" type="line"/>
      <point x="176.658" y="496.877" type="line"/>
      <point x="64" y="496.877" type="line"/>
      <point x="64" y="436.877" type="line"/>
      <point x="166.079" y="436.877" type="line"/>
      <point x="137.866" y="276.877" type="line"/>
      <point x="20" y="276.877" type="line"/>
      <point x="20" y="216.877" type="line"/>
      <point x="127.287" y="216.877" type="line"/>
      <point x="89.046" y="0" type="line"/>
      <point x="151.046" y="0" type="line"/>
      <point x="189.287" y="216.877" type="line"/>
      <point x="327.287" y="216.877" type="line"/>
      <point x="289.046" y="0" type="line"/>
      <point x="351.046" y="0" type="line"/>
      <point x="389.287" y="216.877" type="line"/>
      <point x="502" y="216.877" type="line"/>
      <point x="502" y="276.877" type="line"/>
      <point x="399.866" y="276.877" type="line"/>
      <point x="428.079" y="436.877" type="line"/>
    </contour>
    <contour>
      <point x="337.867" y="276.877" type="line"/>
      <point x="199.867" y="276.877" type="line"/>
      <point x="228.079" y="436.877" type="line"/>
      <point x="366.079" y="436.877" type="line"/>
    </contour>
  </outline>
</glyph>
<glyph name="ampersand" format="1">
  <advance width="918"/>
  <unicode hex="0026"/>
  <outline>
    <contour>
      <point x="1218.22" y="-119" type="line"/>
      <point x="1017" y="-100"/>
      <point x="896" y="17"/>
      <point x="762" y="135" type="curve" smooth="yes"/>
      <point x="754.516" y="141.286" type="line"/>
      <point x="905.997" y="312.745"/>
      <point x="913.589" y="593.384"/>
      <point x="634.055" y="786.226" type="curve"/>
      <point x="627.055" y="780.226" type="line"/>
      <point x="892.79" y="576.995"/>
      <point x="846.844" y="327.809"/>
      <point x="708.615" y="179.344" type="curve"/>
      <point x="657.784" y="221.46"/>
      <point x="581.392" y="284.83"/>
      <point x="527" y="331" type="curve" smooth="yes"/>
      <point x="417" y="425"/>
      <point x="351" y="488"/>
      <point x="351" y="563" type="curve" smooth="yes"/>
      <point x="351" y="622"/>
      <point x="392" y="664"/>
      <point x="453" y="664" type="curve" smooth="yes"/>
      <point x="547" y="664"/>
      <point x="568" y="566"/>
      <point x="568.996" y="479.951" type="curve"/>
      <point x="578.129" y="479.951" type="line"/>
      <point x="625.383" y="643.151" type="line"/>
      <point x="592" y="694"/>
      <point x="495" y="714"/>
      <point x="410" y="714" type="curve" smooth="yes"/>
      <point x="283" y="714"/>
      <point x="141" y="669"/>
      <point x="141" y="532" type="curve" smooth="yes"/>
      <point x="141" y="485.416"/>
      <point x="157.476" y="439.998"/>
      <point x="184.136" y="396.582" type="curve"/>
      <point x="110.04" y="375.833"/>
      <point x="25" y="320.374"/>
      <point x="25" y="215" type="curve" smooth="yes"/>
      <point x="25" y="21"/>
      <point x="312" y="-10"/>
      <point x="413" y="-10" type="curve" smooth="yes"/>
      <point x="478.189" y="-10"/>
      <point x="539.239" y="3.0447"/>
      <point x="593.989" y="26.1643" type="curve"/>
      <point x="692" y="-51" type="line" smooth="yes"/>
      <point x="848" y="-174"/>
      <point x="1051" y="-196"/>
      <point x="1218.93" y="-130" type="curve"/>
    </contour>
    <contour>
      <point x="348" y="50"/>
      <point x="246" y="103"/>
      <point x="238" y="244" type="curve" smooth="yes"/>
      <point x="236.376" y="274.313"/>
      <point x="239.734" y="298.033"/>
      <point x="245.494" y="316.659" type="curve"/>
      <point x="281.987" y="276.717"/>
      <point x="324.493" y="239.231"/>
      <point x="367" y="205" type="curve" smooth="yes"/>
      <point x="541.376" y="67.5918" type="line"/>
      <point x="508.684" y="56.1785"/>
      <point x="475.422" y="50"/>
      <point x="443" y="50" type="curve" smooth="yes"/>
    </contour>
  </outline>
</glyph>
<glyph name="slash" format="1">
  <advance width="439"/>
  <unicode hex="002F"/>
  <outline>
    <contour>
      <point x="10" y="14.083" type="line"/>
      <point x="68.656" y="-14" type="line"/>
      <point x="429.594" y="696.502" type="line"/>
      <point x="370.514" y="723" type="line"/>
    </contour>
  </outline>
</glyph>
<glyph name="zero" format="1">
  <advance width="700"/>
  <unicode hex="0030"/>
  <outline>
    <contour>
      <point x="155.176" y="614"/>
      <point x="40" y="497.371"/>
      <point x="40" y="300" type="curve" smooth="yes"/>
      <point x="40" y="102.629"/>
      <point x="155.176" y="-14"/>
      <point x="350.089" y="-14" type="curve" smooth="yes"/>
      <point x="545.002" y="-14"/>
      <point x="660.178" y="102.629"/>
      <point x="660.178" y="300" type="curve" smooth="yes"/>
      <point x="660.178" y="497.371"/>
      <point x="545.002" y="614"/>
      <point x="350.089" y="614" type="curve" smooth="yes"/>
    </contour>
    <contour>
      <point x="413.002" y="564"/>
      <point x="450.178" y="465.943"/>
      <point x="450.178" y="300" type="curve" smooth="yes"/>
      <point x="450.178" y="134.057"/>
      <point x="413.002" y="36"/>
      <point x="350.089" y="36" type="curve" smooth="yes"/>
      <point x="287.176" y="36"/>
      <point x="250" y="134.057"/>
      <point x="250" y="300" type="curve" smooth="yes"/>
      <point x="250" y="465.943"/>
      <point x="287.176" y="564"/>
      <point x="350.089" y="564" type="curve" smooth="yes"/>
    </contour>
  </outline>
</glyph>
<glyph name="four" format="1">
  <advance width="643"/>
  <unicode hex="0034"/>
  <outline>
    <contour>
      <point x="597.797" y="88.763" type="line"/>
      <point x="628.797" y="233.763" type="line"/>
      <point x="618.797" y="233.763" type="line"/>
      <point x="606.797" y="208.473"/>
      <point x="590.992" y="193.763"/>
      <point x="554.154" y="193.763" type="curve" smooth="yes"/>
      <point x="510.646" y="193.763" type="line"/>
      <point x="510.646" y="614" type="line"/>
      <point x="501.281" y="614" type="line"/>
      <point x="-15" y="98.763" type="line"/>
      <point x="-15" y="88.763" type="line"/>
      <point x="305.646" y="88.763" type="line"/>
      <point x="305.646" y="-38" type="line"/>
      <point x="304.525" y="-68"/>
      <point x="279.916" y="-90"/>
      <point x="250.469" y="-90" type="curve" smooth="yes"/>
      <point x="239.564" y="-90" type="line"/>
      <point x="239.425" y="-100" type="line"/>
      <point x="576.886" y="-100" type="line"/>
      <point x="576.747" y="-90" type="line"/>
      <point x="565.842" y="-90" type="line" smooth="yes"/>
      <point x="536.13" y="-90"/>
      <point x="511.002" y="-66"/>
      <point x="510.646" y="-37" type="curve"/>
      <point x="510.646" y="88.7631" type="line"/>
    </contour>
    <contour>
      <point x="153.943" y="193.763" type="line"/>
      <point x="305.646" y="341.424" type="line"/>
      <point x="305.646" y="193.763" type="line"/>
    </contour>
  </outline>
</glyph>
<glyph name="eight" format="1">
  <advance width="636"/>
  <unicode hex="0038"/>
  <outline>
    <contour>
      <point x="499.993" y="426.948"/>
      <point x="561.822" y="471.378"/>
      <point x="561.822" y="544.117" type="curve" smooth="yes"/>
      <point x="561.822" y="645.605"/>
      <point x="445.498" y="714"/>
      <point x="314" y="714" type="curve" smooth="yes"/>
      <point x="174.763" y="714"/>
      <point x="68.1629" y="637.633"/>
      <point x="68.1629" y="504.769" type="curve" smooth="yes"/>
      <point x="68.1629" y="420.542"/>
      <point x="110.703" y="365.074"/>
      <point x="160.353" y="326.263" type="curve"/>
      <point x="96.6062" y="303.999"/>
      <point x="25.1769" y="256.487"/>
      <point x="25.1769" y="159.369" type="curve" smooth="yes"/>
      <point x="25.1769" y="18.204"/>
      <point x="172.786" y="-14"/>
      <point x="298.309" y="-14" type="curve" smooth="yes"/>
      <point x="486.375" y="-14"/>
      <point x="610.823" y="59.4477"/>
      <point x="610.823" y="200.307" type="curve" smooth="yes"/>
      <point x="610.823" y="311"/>
      <point x="534.214" y="355.827"/>
      <point x="429.846" y="410.425" type="curve"/>
    </contour>
    <contour>
      <point x="366.026" y="660"/>
      <point x="393.52" y="616"/>
      <point x="396" y="561" type="curve" smooth="yes"/>
      <point x="397.508" y="527.554"/>
      <point x="390.988" y="476.053"/>
      <point x="372.309" y="440.631" type="curve"/>
      <point x="265.057" y="498.017"/>
      <point x="232.516" y="524.721"/>
      <point x="232.516" y="578.858" type="curve" smooth="yes"/>
      <point x="232.516" y="628.43"/>
      <point x="261.429" y="665.703"/>
      <point x="311" y="663" type="curve" smooth="yes"/>
    </contour>
    <contour>
      <point x="236.214" y="42.7688"/>
      <point x="193.917" y="95.7997"/>
      <point x="193.917" y="189.079" type="curve" smooth="yes"/>
      <point x="193.917" y="230.202"/>
      <point x="202.279" y="263.357"/>
      <point x="216.838" y="289.271" type="curve"/>
      <point x="235.723" y="278.666"/>
      <point x="253.745" y="269.792"/>
      <point x="269" y="262" type="curve" smooth="yes"/>
      <point x="391.138" y="199.612"/>
      <point x="426.519" y="163.714"/>
      <point x="426.519" y="120.472" type="curve" smooth="yes"/>
      <point x="426.519" y="66.7731"/>
      <point x="370.754" y="29.7188"/>
      <point x="306" y="35.9997" type="curve" smooth="yes"/>
    </contour>
  </outline>
</glyph>
<glyph name="less" format="1">
  <advance width="501"/>
  <unicode hex="003C"/>
  <outline>
    <contour>
      <point x="441.723" y="526.253" type="line"/>
      <point x="40" y="339.255" type="line"/>
      <point x="40" y="280.255" type="line"/>
      <point x="441.723" y="93.254" type="line"/>
      <point x="441.723" y="164.254" type="line"/>
      <point x="133.048" y="309.977" type="line"/>
      <point x="441.723" y="455.253" type="line"/>
    </contour>
  </outline>
</glyph>
<glyph name="B" format="1">
  <advance width="755"/>
  <unicode hex="0042"/>
  <outline>
    <contour>
      <point x="48.876" y="700.059" type="line"/>
      <point x="49.038" y="690.13" type="line"/>
      <point x="61.873" y="690.071" type="line" smooth="yes"/>
      <point x="95.6595" y="690.071"/>
      <point x="124.508" y="663.579"/>
      <point x="125.722" y="628.382" type="curve" smooth="yes"/>
      <point x="125.722" y="102.798" type="line"/>
      <point x="56.075" y="154.875"/>
      <point x="2.8729" y="242.666"/>
      <point x="2.8729" y="381.228" type="curve"/>
      <point x="-7" y="380.245" type="line"/>
      <point x="-37" y="62"/>
      <point x="173.873" y="-3"/>
      <point x="342.873" y="-14" type="curve" smooth="yes"/>
      <point x="565.873" y="-29"/>
      <point x="758.873" y="46"/>
      <point x="755.873" y="209" type="curve" smooth="yes"/>
      <point x="753.873" y="323"/>
      <point x="656.873" y="387"/>
      <point x="564.074" y="382.846" type="curve"/>
      <point x="610.873" y="401"/>
      <point x="650.873" y="458"/>
      <point x="649.873" y="524" type="curve" smooth="yes"/>
      <point x="647.873" y="645"/>
      <point x="508.873" y="700"/>
      <point x="357.32" y="700" type="curve" smooth="yes"/>
    </contour>
    <contour>
      <point x="330.839" y="649.227" type="line"/>
      <point x="408.128" y="642.743"/>
      <point x="431.265" y="598.086"/>
      <point x="434.873" y="516" type="curve" smooth="yes"/>
      <point x="435.873" y="490"/>
      <point x="438.873" y="381"/>
      <point x="364.541" y="381.304" type="curve"/>
      <point x="364.769" y="371.96" type="line"/>
      <point x="438.873" y="372"/>
      <point x="515.873" y="332"/>
      <point x="520.873" y="222" type="curve" smooth="yes"/>
      <point x="525.818" y="107.272"/>
      <point x="449.574" y="39.498"/>
      <point x="330.839" y="38.0249" type="curve"/>
    </contour>
  </outline>
</glyph>
<glyph name="E" format="1">
  <advance width="712"/>
  <unicode hex="0045"/>
  <outline>
    <contour>
      <point x="702.845" y="231.543" type="line"/>
      <point x="671.753" y="117.359"/>
      <point x="591.283" y="50.592"/>
      <point x="495.32" y="50.592" type="curve" smooth="yes"/>
      <point x="311.901" y="50.592" type="line"/>
      <point x="311.901" y="320.218" type="line"/>
      <point x="452.202" y="320.218" type="line" smooth="yes"/>
      <point x="514.992" y="318.435"/>
      <point x="559.486" y="273.356"/>
      <point x="559.275" y="210.977" type="curve" smooth="yes"/>
      <point x="559.259" y="206.243" type="line"/>
      <point x="569.032" y="206.119" type="line"/>
      <point x="569.032" y="484.375" type="line"/>
      <point x="559.259" y="484.25" type="line"/>
      <point x="559.276" y="479.516" type="line" smooth="yes"/>
      <point x="559.501" y="416.714"/>
      <point x="514.451" y="371.446"/>
      <point x="450.904" y="370.248" type="curve" smooth="yes"/>
      <point x="311.901" y="370.218" type="line"/>
      <point x="311.901" y="649.409" type="line"/>
      <point x="346.878" y="649.409" type="line"/>
      <point x="425.649" y="646.525"/>
      <point x="471.956" y="598.564"/>
      <point x="471.765" y="519.891" type="curve" smooth="yes"/>
      <point x="471.746" y="512.067" type="line"/>
      <point x="481.846" y="511.917" type="line"/>
      <point x="481.846" y="652.218" type="line"/>
      <point x="481.797" y="688.91" type="line"/>
      <point x="481.811" y="718.187" type="line"/>
      <point x="463.253" y="710.366"/>
      <point x="405.681" y="700.407"/>
      <point x="362.581" y="700" type="curve" smooth="yes"/>
      <point x="30.0069" y="700.06" type="line"/>
      <point x="30.1689" y="690.06" type="line"/>
      <point x="42.8189" y="690.08" type="line" smooth="yes"/>
      <point x="77.759" y="690.08"/>
      <point x="106.118" y="662.128"/>
      <point x="106.869" y="627.378" type="curve" smooth="yes"/>
      <point x="106.869" y="72.864" type="line" smooth="yes"/>
      <point x="106.21" y="38.029"/>
      <point x="77.8131" y="9.97904"/>
      <point x="42.8111" y="9.97904" type="curve" smooth="yes"/>
      <point x="30.1611" y="10" type="line"/>
      <point x="30" y="0" type="line"/>
      <point x="674.557" y="0" type="line"/>
      <point x="712.845" y="231.543" type="line"/>
    </contour>
    <contour>
      <point x="627.919" y="4.63838" type="move" name="ogonek"/>
    </contour>
    <contour>
      <point x="378.706" y="0" type="move" name="bottom"/>
    </contour>
    <contour>
      <point x="279.039" y="764" type="move" name="top"/>
    </contour>
  </outline>
</glyph>
<glyph name="F" format="1">
  <advance width="709"/>
  <unicode hex="0046"/>
  <outline>
    <contour>
      <point x="689.259" y="484.25" type="line"/>
      <point x="689.276" y="479.516" type="line" smooth="yes"/>
      <point x="689.501" y="416.714"/>
      <point x="644.451" y="371.446"/>
      <point x="580.904" y="370.248" type="curve" smooth="yes"/>
      <point x="311.901" y="370.218" type="line"/>
      <point x="311.901" y="649.409" type="line"/>
      <point x="456.878" y="649.409" type="line"/>
      <point x="535.649" y="646.525"/>
      <point x="581.956" y="598.564"/>
      <point x="581.765" y="519.891" type="curve" smooth="yes"/>
      <point x="581.746" y="512.067" type="line"/>
      <point x="591.846" y="511.917" type="line"/>
      <point x="591.846" y="652.218" type="line"/>
      <point x="591.797" y="688.91" type="line"/>
      <point x="591.811" y="718.187" type="line"/>
      <point x="573.253" y="710.366"/>
      <point x="515.681" y="700.407"/>
      <point x="472.581" y="700" type="curve" smooth="yes"/>
      <point x="30.0076" y="700.067" type="line"/>
      <point x="30.1696" y="690.067" type="line"/>
      <point x="42.8196" y="690.087" type="line" smooth="yes"/>
      <point x="77.7446" y="690.087"/>
      <point x="106.094" y="662.159"/>
      <point x="106.869" y="627.431" type="curve" smooth="yes"/>
      <point x="106.869" y="72.864" type="line" smooth="yes"/>
      <point x="106.21" y="38.029"/>
      <point x="77.813" y="9.97902"/>
      <point x="42.811" y="9.97902" type="curve" smooth="yes"/>
      <point x="30.161" y="10" type="line"/>
      <point x="30" y="0" type="line"/>
      <point x="388.804" y="0" type="line"/>
      <point x="388.643" y="10" type="line"/>
      <point x="375.993" y="9.97902" type="line" smooth="yes"/>
      <point x="340.991" y="9.97902"/>
      <point x="312.594" y="38.029"/>
      <point x="311.939" y="72.864" type="curve" smooth="yes"/>
      <point x="311.901" y="320.218" type="line"/>
      <point x="582.202" y="320.218" type="line" smooth="yes"/>
      <point x="644.992" y="318.435"/>
      <point x="689.486" y="273.356"/>
      <point x="689.275" y="210.977" type="curve" smooth="yes"/>
      <point x="689.259" y="206.243" type="line"/>
      <point x="699.032" y="206.119" type="line"/>
      <point x="699.032" y="484.375" type="line"/>
    </contour>
  </outline>
</glyph>
<glyph name="G" format="1">
  <advance width="872"/>
  <unicode hex="0047"/>
  <outline>
    <contour>
      <point x="1115.12" y="-163" type="line"/>
      <point x="920.688" y="-208"/>
      <point x="795.346" y="-37"/>
      <point x="794.526" y="117.437" type="curve"/>
      <point x="794.526" y="279.151" type="line"/>
      <point x="793.945" y="308.254"/>
      <point x="812.133" y="324.561"/>
      <point x="844.467" y="324.561" type="curve" smooth="yes"/>
      <point x="859.537" y="324.54" type="line"/>
      <point x="859.537" y="334.54" type="line"/>
      <point x="523.669" y="334.54" type="line"/>
      <point x="523.669" y="324.54" type="line"/>
      <point x="539.436" y="324.561" type="line" smooth="yes"/>
      <point x="571.712" y="324.606"/>
      <point x="590.552" y="308.199"/>
      <point x="590.317" y="278.994" type="curve" smooth="yes"/>
      <point x="590.317" y="142.656" type="line" smooth="yes"/>
      <point x="590.521" y="78.6619"/>
      <point x="537.195" y="35.9999"/>
      <point x="457" y="35.9999" type="curve" smooth="yes"/>
      <point x="320.8" y="35.9999"/>
      <point x="230" y="159.2"/>
      <point x="230" y="344" type="curve" smooth="yes"/>
      <point x="230" y="536"/>
      <point x="324.8" y="664"/>
      <point x="467" y="664" type="curve" smooth="yes"/>
      <point x="583.108" y="664"/>
      <point x="691" y="609"/>
      <point x="725.378" y="477.264" type="curve"/>
      <point x="733.701" y="477.232" type="line"/>
      <point x="743.525" y="668.468" type="line"/>
      <point x="684.775" y="693.286"/>
      <point x="556.117" y="714"/>
      <point x="446.128" y="714" type="curve" smooth="yes"/>
      <point x="185" y="714"/>
      <point x="10" y="570"/>
      <point x="10" y="350" type="curve" smooth="yes"/>
      <point x="10" y="132"/>
      <point x="183" y="-14"/>
      <point x="434" y="-14" type="curve" smooth="yes"/>
      <point x="500.64" y="-14"/>
      <point x="562.823" y="-4"/>
      <point x="616.787" y="12.5376" type="curve"/>
      <point x="686.193" y="-158"/>
      <point x="884.254" y="-276"/>
      <point x="1117.12" y="-173" type="curve"/>
    </contour>
    <contour>
      <point x="427" y="764" type="move" name="top"/>
    </contour>
    <contour>
      <point x="455.347" y="-64" type="move" name="bottom"/>
    </contour>
  </outline>
</glyph>
<glyph name="I" format="1">
  <advance width="498"/>
  <unicode hex="0049"/>
  <outline>
    <contour>
      <point x="392.009" y="613.639" type="line" smooth="yes"/>
      <point x="393.251" y="671.075"/>
      <point x="411.846" y="700.762"/>
      <point x="470.643" y="710.06" type="curve"/>
      <point x="468.805" y="720.06" type="line"/>
      <point x="374.087" y="702"/>
      <point x="179.271" y="699.19"/>
      <point x="109.087" y="696" type="curve" smooth="yes"/>
      <point x="-1" y="691"/>
      <point x="-38" y="641.871"/>
      <point x="-40" y="591" type="curve" smooth="yes"/>
      <point x="-43" y="518.81"/>
      <point x="32.0872" y="479"/>
      <point x="88.7317" y="511.398" type="curve"/>
      <point x="88.7317" y="517.205" type="line"/>
      <point x="37.0872" y="512"/>
      <point x="7.08721" y="544"/>
      <point x="10.0872" y="585" type="curve" smooth="yes"/>
      <point x="14.0872" y="627"/>
      <point x="44.0872" y="644.925"/>
      <point x="100.01" y="646.865" type="curve" smooth="yes"/>
      <point x="186.96" y="649.873" type="line"/>
      <point x="186.96" y="72.8639" type="line" smooth="yes"/>
      <point x="186.297" y="38.0289"/>
      <point x="157.9" y="9.97887"/>
      <point x="122.898" y="9.97887" type="curve" smooth="yes"/>
      <point x="110.248" y="9.99987" type="line"/>
      <point x="110.087" y="0" type="line"/>
      <point x="468.874" y="0" type="line"/>
      <point x="468.713" y="9.99987" type="line"/>
      <point x="456.063" y="9.97887" type="line" smooth="yes"/>
      <point x="421.061" y="9.97887"/>
      <point x="392.664" y="38.0289"/>
      <point x="392.009" y="72.8639" type="curve" smooth="yes"/>
    </contour>
    <contour>
      <point x="290.135" y="3" type="move" name="ogonek"/>
    </contour>
    <contour>
      <point x="288.393" y="764" type="move" name="top"/>
    </contour>
  </outline>
</glyph>
<glyph name="J" format="1">
  <advance width="424"/>
  <unicode hex="004A"/>
  <outline>
    <contour>
      <point x="35.085" y="700.06" type="line"/>
      <point x="35.247" y="690.06" type="line"/>
      <point x="47.897" y="690.08" type="line" smooth="yes"/>
      <point x="82.898" y="690.08"/>
      <point x="111.295" y="662.03"/>
      <point x="111.951" y="627.196" type="curve" smooth="yes"/>
      <point x="111.961" y="82.923" type="line" smooth="yes"/>
      <point x="111.961" y="-13"/>
      <point x="94.459" y="-187"/>
      <point x="-73" y="-161" type="curve"/>
      <point x="-75" y="-170" type="line"/>
      <point x="177.744" y="-311"/>
      <point x="317.163" y="-130"/>
      <point x="317.163" y="80.099" type="curve" smooth="yes"/>
      <point x="317.163" y="627.424" type="line" smooth="yes"/>
      <point x="317.938" y="662.152"/>
      <point x="346.287" y="690.08"/>
      <point x="381.212" y="690.08" type="curve" smooth="yes"/>
      <point x="393.862" y="690.06" type="line"/>
      <point x="394.024" y="700.06" type="line"/>
    </contour>
    <contour>
      <point x="209" y="764" type="move" name="top"/>
    </contour>
  </outline>
</glyph>
<glyph name="K" format="1">
  <advance width="822"/>
  <unicode hex="004B"/>
  <outline>
    <contour>
      <point x="311.922" y="627.818" type="line" smooth="yes"/>
      <point x="312.9" y="662.363"/>
      <point x="341.167" y="690.08"/>
      <point x="375.959" y="690.08" type="curve" smooth="yes"/>
      <point x="388.609" y="690.06" type="line"/>
      <point x="388.771" y="700.06" type="line"/>
      <point x="30.016" y="700.06" type="line"/>
      <point x="30.178" y="690.06" type="line"/>
      <point x="43" y="690" type="line" smooth="yes"/>
      <point x="77.6924" y="690.08"/>
      <point x="106.003" y="662.25"/>
      <point x="106.873" y="627.606" type="curve" smooth="yes"/>
      <point x="106.873" y="72.8641" type="line" smooth="yes"/>
      <point x="106.21" y="38.0291"/>
      <point x="77.813" y="9.9791"/>
      <point x="42.811" y="9.9791" type="curve" smooth="yes"/>
      <point x="30.161" y="10" type="line"/>
      <point x="30" y="0" type="line"/>
      <point x="388.787" y="0" type="line"/>
      <point x="388.626" y="10" type="line"/>
      <point x="376" y="10" type="line" smooth="yes"/>
      <point x="340.974" y="9.9791"/>
      <point x="312.577" y="38.0291"/>
      <point x="311.922" y="72.8641" type="curve"/>
    </contour>
    <contour>
      <point x="1103.19" y="-166" type="line"/>
      <point x="966.68" y="-155"/>
      <point x="880.483" y="-92"/>
      <point x="734.054" y="113.193" type="curve" smooth="yes"/>
      <point x="504.736" y="434.469" type="line"/>
      <point x="676.163" y="641.693" type="line" smooth="yes"/>
      <point x="701.936" y="671.09"/>
      <point x="741.939" y="690.881"/>
      <point x="786.055" y="690.98" type="curve" smooth="yes"/>
      <point x="790.435" y="690.98" type="line"/>
      <point x="790.435" y="700" type="line"/>
      <point x="549.336" y="700" type="line"/>
      <point x="549.336" y="691.157" type="line"/>
      <point x="559" y="691.164" type="line" smooth="yes"/>
      <point x="586.407" y="691.164"/>
      <point x="599.035" y="666.349"/>
      <point x="583.182" y="644.083" type="curve" smooth="yes"/>
      <point x="344.077" y="318.182" type="line"/>
      <point x="563.89" y="13.1981" type="line" smooth="yes"/>
      <point x="720.768" y="-204"/>
      <point x="879.562" y="-305"/>
      <point x="1105.19" y="-177" type="curve"/>
    </contour>
    <contour>
      <point x="465" y="700" type="move" name="top"/>
    </contour>
    <contour>
      <point x="470" y="0" type="move" name="bottom"/>
    </contour>
  </outline>
</glyph>
<glyph name="M" format="1">
  <advance width="993"/>
  <unicode hex="004D"/>
  <outline>
    <contour>
      <point x="830.44" y="713.697" type="line"/>
      <point x="821.298" y="713.697" type="line"/>
      <point x="523.493" y="270.694" type="line"/>
      <point x="345.13" y="562.181" type="line" smooth="yes"/>
      <point x="242.325" y="730.19"/>
      <point x="75.574" y="848.32"/>
      <point x="-115" y="745.983" type="curve"/>
      <point x="-112" y="735.983" type="line"/>
      <point x="-7" y="743.579"/>
      <point x="92.8724" y="601.762"/>
      <point x="151.221" y="499.771" type="curve"/>
      <point x="81.8627" y="70.9118" type="line" smooth="yes"/>
      <point x="75.1072" y="32.4383"/>
      <point x="44.4867" y="9.99125"/>
      <point x="8.99989" y="9.99125" type="curve" smooth="yes"/>
      <point x="-7" y="10" type="line"/>
      <point x="-7" y="0" type="line"/>
      <point x="212.085" y="0" type="line"/>
      <point x="212.085" y="9.44525" type="line"/>
      <point x="196.504" y="9.44525" type="line" smooth="yes"/>
      <point x="174.96" y="9.49025"/>
      <point x="157.515" y="30.5903"/>
      <point x="157.515" y="52.1453" type="curve" smooth="yes"/>
      <point x="157.725" y="56.0628" type="line"/>
      <point x="207.838" y="392.224" type="line"/>
      <point x="450.802" y="-24" type="line"/>
      <point x="460.265" y="-24" type="line"/>
      <point x="458.323" y="29.3873"/>
      <point x="501.582" y="92.1103"/>
      <point x="501.582" y="92.1103" type="curve"/>
      <point x="672.89" y="346.346" type="line"/>
      <point x="718.583" y="134.654" type="line" smooth="yes"/>
      <point x="787.692" y="-186"/>
      <point x="1017.99" y="-260"/>
      <point x="1193.52" y="-186" type="curve"/>
      <point x="1193.52" y="-176" type="line"/>
      <point x="1030.12" y="-186"/>
      <point x="974.142" y="-35"/>
      <point x="942.72" y="128.998" type="curve" smooth="yes"/>
    </contour>
  </outline>
</glyph>
<glyph name="P" format="1">
  <advance width="760"/>
  <unicode hex="0050"/>
  <outline>
    <contour>
      <point x="35.772" y="656.636" type="line"/>
      <point x="39.2691" y="657"/>
      <point x="46" y="658"/>
      <point x="54" y="658" type="curve" smooth="yes"/>
      <point x="93.9746" y="658"/>
      <point x="111.355" y="633.914"/>
      <point x="111.905" y="599.874" type="curve" smooth="yes"/>
      <point x="111.905" y="72.864" type="line" smooth="yes"/>
      <point x="111.21" y="38.029"/>
      <point x="82.8131" y="9.97901"/>
      <point x="47.8111" y="9.97901" type="curve" smooth="yes"/>
      <point x="35.1611" y="10" type="line"/>
      <point x="35" y="0" type="line"/>
      <point x="393.897" y="0" type="line"/>
      <point x="393.736" y="10" type="line"/>
      <point x="381" y="10" type="line" smooth="yes"/>
      <point x="346.084" y="9.97901"/>
      <point x="317.687" y="38.029"/>
      <point x="317.032" y="72.864" type="curve"/>
      <point x="317.032" y="654.668" type="line"/>
      <point x="366" y="662" type="line" smooth="yes"/>
      <point x="452.181" y="674.836"/>
      <point x="512" y="622"/>
      <point x="515" y="517" type="curve" smooth="yes"/>
      <point x="518" y="415"/>
      <point x="467" y="370"/>
      <point x="434" y="357" type="curve" smooth="yes"/>
      <point x="405" y="346"/>
      <point x="373" y="352"/>
      <point x="358.896" y="371.343" type="curve"/>
      <point x="349.063" y="365.528" type="line"/>
      <point x="360" y="329"/>
      <point x="385" y="302"/>
      <point x="425" y="287" type="curve" smooth="yes"/>
      <point x="543" y="243"/>
      <point x="736" y="318"/>
      <point x="730" y="510" type="curve" smooth="yes"/>
      <point x="724" y="691"/>
      <point x="546" y="736"/>
      <point x="366" y="713" type="curve" smooth="yes"/>
      <point x="284" y="703"/>
      <point x="176" y="675"/>
      <point x="34.3931" y="666.542" type="curve"/>
    </contour>
  </outline>
</glyph>
<glyph name="S" format="1">
  <advance width="671"/>
  <unicode hex="0053"/>
  <outline>
    <contour>
      <point x="322.355" y="486.53" type="line" smooth="yes"/>
      <point x="275.616" y="513"/>
      <point x="229.616" y="532"/>
      <point x="233.616" y="580" type="curve" smooth="yes"/>
      <point x="237.616" y="629"/>
      <point x="287.616" y="664"/>
      <point x="369.616" y="664" type="curve" smooth="yes"/>
      <point x="468.616" y="664"/>
      <point x="528.616" y="614"/>
      <point x="529.052" y="541.034" type="curve"/>
      <point x="538.681" y="541.034" type="line"/>
      <point x="560.259" y="703.741" type="line"/>
      <point x="482.427" y="703.741" type="line"/>
      <point x="424.392" y="709.529"/>
      <point x="349.63" y="714"/>
      <point x="313.616" y="714" type="curve" smooth="yes"/>
      <point x="175.616" y="714"/>
      <point x="93.6154" y="647"/>
      <point x="80.6154" y="535" type="curve" smooth="yes"/>
      <point x="69.6154" y="441"/>
      <point x="112.616" y="373"/>
      <point x="203.209" y="319.61" type="curve" smooth="yes"/>
      <point x="366.26" y="224.285" type="line" smooth="yes"/>
      <point x="534.616" y="129"/>
      <point x="474.616" y="-48"/>
      <point x="291.616" y="-48" type="curve" smooth="yes"/>
      <point x="112.616" y="-48"/>
      <point x="-20" y="120"/>
      <point x="77.2324" y="295.56" type="curve"/>
      <point x="68.2324" y="302.56" type="line"/>
      <point x="-58" y="125"/>
      <point x="47.6144" y="-104"/>
      <point x="314.614" y="-104" type="curve" smooth="yes"/>
      <point x="637.614" y="-104"/>
      <point x="768.614" y="233"/>
      <point x="509.255" y="380.221" type="curve" smooth="yes"/>
    </contour>
    <contour>
      <point x="339.652" y="764" type="move" name="top"/>
    </contour>
    <contour>
      <point x="333.418" y="-102" type="move" name="bottom"/>
    </contour>
  </outline>
</glyph>
<glyph name="T" format="1">
  <advance width="750"/>
  <unicode hex="0054"/>
  <outline>
    <contour>
      <point x="740.688" y="719.168" type="line"/>
      <point x="722.355" y="711.441"/>
      <point x="665.948" y="701.629"/>
      <point x="623.033" y="701" type="curve" smooth="yes"/>
      <point x="112.083" y="701" type="line" smooth="yes"/>
      <point x="-51" y="701"/>
      <point x="-127" y="551.767"/>
      <point x="-4" y="444.197" type="curve"/>
      <point x="6.70815" y="449.197" type="line"/>
      <point x="-67" y="565.109"/>
      <point x="1.73205" y="651.02"/>
      <point x="112.083" y="651.02" type="curve" smooth="yes"/>
      <point x="298.814" y="651.02" type="line"/>
      <point x="298.814" y="71.3629" type="line"/>
      <point x="297.275" y="37.1998"/>
      <point x="269.575" y="9.99977"/>
      <point x="234.811" y="9.97907" type="curve" smooth="yes"/>
      <point x="222.161" y="10" type="line"/>
      <point x="222" y="0" type="line"/>
      <point x="580.918" y="0" type="line"/>
      <point x="580.757" y="10" type="line"/>
      <point x="568.083" y="10" type="line" smooth="yes"/>
      <point x="533.375" y="9.97927"/>
      <point x="505.146" y="37.5984"/>
      <point x="504.073" y="72.0598" type="curve"/>
      <point x="504.073" y="651.02" type="line"/>
      <point x="602.315" y="651.02" type="line" smooth="yes"/>
      <point x="683.155" y="649.407"/>
      <point x="730.801" y="601.206"/>
      <point x="730.607" y="521.406" type="curve" smooth="yes"/>
      <point x="730.588" y="513.582" type="line"/>
      <point x="740.688" y="513.432" type="line"/>
    </contour>
    <contour>
      <point x="392.083" y="350" type="move" name="center"/>
    </contour>
    <contour>
      <point x="402.083" y="0" type="move" name="bottom"/>
    </contour>
    <contour>
      <point x="402.083" y="764" type="move" name="top"/>
    </contour>
  </outline>
</glyph>
<glyph name="V" format="1">
  <advance width="720"/>
  <unicode hex="0056"/>
  <outline>
    <contour>
      <point x="435.139" y="283.99" type="line"/>
      <point x="291.637" y="627.318" type="line"/>
      <point x="277.634" y="667.336"/>
      <point x="304.564" y="690.089"/>
      <point x="330.38" y="690.089" type="curve" smooth="yes"/>
      <point x="339.172" y="690.089" type="line"/>
      <point x="339.172" y="700" type="line"/>
      <point x="-40" y="700" type="line"/>
      <point x="-40" y="690" type="line"/>
      <point x="-32" y="690" type="line" smooth="yes"/>
      <point x="-3" y="690"/>
      <point x="29.8773" y="673.713"/>
      <point x="52.1555" y="634.826" type="curve"/>
      <point x="368.965" y="-24" type="line"/>
      <point x="377.971" y="-24" type="line"/>
      <point x="381.971" y="9.71696"/>
      <point x="423.267" y="100.078"/>
      <point x="435.018" y="125.133" type="curve" smooth="yes"/>
      <point x="696.189" y="696.905" type="line" smooth="yes"/>
      <point x="725.61" y="761.316"/>
      <point x="802.194" y="925.464"/>
      <point x="965.515" y="937.494" type="curve"/>
      <point x="965.515" y="947.494" type="line"/>
      <point x="752.557" y="975.494"/>
      <point x="648.14" y="772.831"/>
      <point x="615.146" y="696.905" type="curve" smooth="yes"/>
    </contour>
  </outline>
</glyph>
<glyph name="W" format="1">
  <advance width="964"/>
  <unicode hex="0057"/>
  <outline>
    <contour>
      <point x="752.294" y="349.21" type="line"/>
      <point x="554.314" y="715.321" type="line"/>
      <point x="545" y="715.642" type="line"/>
      <point x="372.053" y="355.858" type="line"/>
      <point x="262.567" y="628.381" type="line"/>
      <point x="248.659" y="667.855"/>
      <point x="274.689" y="690.086"/>
      <point x="300.317" y="690.086" type="curve" smooth="yes"/>
      <point x="309.109" y="690.086" type="line"/>
      <point x="309.109" y="700" type="line"/>
      <point x="-50" y="700" type="line"/>
      <point x="-50" y="690" type="line"/>
      <point x="-42" y="690" type="line" smooth="yes"/>
      <point x="-12" y="690"/>
      <point x="24.554" y="673.617"/>
      <point x="43.6679" y="633.29" type="curve"/>
      <point x="246.796" y="94.5248" type="line"/>
      <point x="215.929" y="26.4415"/>
      <point x="136.809" y="-146"/>
      <point x="0.885929" y="-170" type="curve"/>
      <point x="0.885929" y="-180" type="line"/>
      <point x="154.248" y="-220"/>
      <point x="266.333" y="-38"/>
      <point x="300.511" y="32.456" type="curve" smooth="yes"/>
      <point x="485.588" y="412.435" type="line"/>
      <point x="716.12" y="-22" type="line"/>
      <point x="725.556" y="-22" type="line"/>
      <point x="725.556" y="40.344"/>
      <point x="740.417" y="89.1561"/>
      <point x="740.417" y="89.1561" type="curve"/>
      <point x="925.722" y="694.217" type="line" smooth="yes"/>
      <point x="960.718" y="808.487"/>
      <point x="1034.73" y="922.776"/>
      <point x="1198.05" y="934.806" type="curve"/>
      <point x="1198.05" y="944.806" type="line"/>
      <point x="985.09" y="972.806"/>
      <point x="882.838" y="821.387"/>
      <point x="847.679" y="694.217" type="curve" smooth="yes"/>
    </contour>
    <contour>
      <point x="550.309" y="764" type="move" name="top"/>
    </contour>
  </outline>
</glyph>
<glyph name="X" format="1">
  <advance width="773"/>
  <unicode hex="0058"/>
  <outline>
    <contour>
      <point x="701.469" y="699.981" type="line" smooth="yes"/>
      <point x="746.375" y="766.98"/>
      <point x="806.153" y="854.077"/>
      <point x="888.495" y="856.125" type="curve"/>
      <point x="888.495" y="866.125" type="line"/>
      <point x="762.821" y="880.744"/>
      <point x="660.014" y="783.809"/>
      <point x="604.473" y="699.981" type="curve" smooth="yes"/>
      <point x="441.94" y="454.668" type="line"/>
      <point x="328.496" y="628.112" type="line"/>
      <point x="311.456" y="656.464"/>
      <point x="335.285" y="690.034"/>
      <point x="362.508" y="690.034" type="curve" smooth="yes"/>
      <point x="375.106" y="690.034" type="line"/>
      <point x="374.932" y="700" type="line"/>
      <point x="-27" y="700" type="line"/>
      <point x="-27" y="690.034" type="line"/>
      <point x="-13" y="690.034" type="line" smooth="yes"/>
      <point x="28.5145" y="690.034"/>
      <point x="67.2001" y="662.274"/>
      <point x="88.0692" y="631.532" type="curve" smooth="yes"/>
      <point x="278.733" y="338.746" type="line"/>
      <point x="30.657" y="0.0361145" type="line" smooth="yes"/>
      <point x="-27" y="-79"/>
      <point x="-67" y="-127"/>
      <point x="-174" y="-140" type="curve"/>
      <point x="-174" y="-150" type="line"/>
      <point x="-73" y="-170"/>
      <point x="30.161" y="-136"/>
      <point x="128.147" y="0.0361068" type="curve" smooth="yes"/>
      <point x="322.806" y="271.066" type="line"/>
      <point x="452.713" y="71.5779" type="line" smooth="yes"/>
      <point x="469.932" y="43.192"/>
      <point x="446.055" y="10"/>
      <point x="418.782" y="10" type="curve" smooth="yes"/>
      <point x="406.183" y="10" type="line"/>
      <point x="406.357" y="0" type="line"/>
      <point x="810.259" y="0" type="line"/>
      <point x="810.085" y="10" type="line"/>
      <point x="796.453" y="10" type="line" smooth="yes"/>
      <point x="754.455" y="10"/>
      <point x="715.456" y="37.454"/>
      <point x="694.64" y="68.326" type="curve" smooth="yes"/>
      <point x="488.912" y="382.852" type="line"/>
    </contour>
  </outline>
</glyph>
<glyph name="Y" format="1">
  <advance width="699"/>
  <unicode hex="0059"/>
  <outline>
    <contour>
      <point x="-85" y="749" type="line"/>
      <point x="101.854" y="733.427"/>
      <point x="215.757" y="467.855"/>
      <point x="245.757" y="322.282" type="curve"/>
      <point x="245.757" y="72.7072" type="line" smooth="yes"/>
      <point x="245.044" y="37.9161"/>
      <point x="216.08" y="10"/>
      <point x="182.131" y="10" type="curve" smooth="yes"/>
      <point x="169.019" y="10" type="line"/>
      <point x="168.858" y="0" type="line"/>
      <point x="527.605" y="0" type="line"/>
      <point x="527.444" y="10" type="line"/>
      <point x="515.131" y="10" type="line" smooth="yes"/>
      <point x="478.131" y="10"/>
      <point x="451.131" y="40"/>
      <point x="450.74" y="72.864" type="curve" smooth="yes"/>
      <point x="450.727" y="321.754" type="line"/>
      <point x="470.727" y="467.502"/>
      <point x="610.221" y="743.251"/>
      <point x="739.968" y="749" type="curve"/>
      <point x="739.968" y="759" type="line"/>
      <point x="599.39" y="769.586"/>
      <point x="468.813" y="610.171"/>
      <point x="418.235" y="460.757" type="curve"/>
      <point x="345.823" y="660.171"/>
      <point x="159.412" y="779.586"/>
      <point x="-85" y="759" type="curve"/>
    </contour>
    <contour>
      <point x="364.859" y="764" type="move" name="top"/>
    </contour>
  </outline>
</glyph>
<glyph name="Z" format="1">
  <advance width="659"/>
  <unicode hex="005A"/>
  <outline>
    <contour>
      <point x="1086.85" y="-120" type="line"/>
      <point x="906.382" y="-188"/>
      <point x="604.116" y="-67"/>
      <point x="263.39" y="8.5397" type="curve"/>
      <point x="620.594" y="705.328" type="line"/>
      <point x="620.594" y="714" type="line"/>
      <point x="608.791" y="707.817"/>
      <point x="554.843" y="701.098"/>
      <point x="514.627" y="701.098" type="curve" smooth="yes"/>
      <point x="170.268" y="701.098" type="line" smooth="yes"/>
      <point x="126.997" y="700.986"/>
      <point x="68.1449" y="711.105"/>
      <point x="49.3418" y="719.03" type="curve"/>
      <point x="49.3418" y="513.271" type="line"/>
      <point x="59.4418" y="513.421" type="line"/>
      <point x="59.4228" y="521.245" type="line" smooth="yes"/>
      <point x="59.2296" y="600.809"/>
      <point x="106.593" y="649.954"/>
      <point x="186.999" y="650.856" type="curve" smooth="yes"/>
      <point x="367.247" y="650.856" type="line"/>
      <point x="35.1839" y="9.32201" type="line"/>
      <point x="35.0015" y="0.0835098" type="line"/>
      <point x="352.43" y="0"/>
      <point x="811.383" y="-471"/>
      <point x="1094.85" y="-127" type="curve"/>
    </contour>
    <contour>
      <point x="335" y="764" type="move" name="top"/>
    </contour>
  </outline>
</glyph>
<glyph name="a" format="1">
  <advance width="720"/>
  <unicode hex="0061"/>
  <outline>
    <contour>
      <point x="351.414" y="724" type="line"/>
      <point x="342.408" y="724" type="line"/>
      <point x="338.408" y="690.283"/>
      <point x="297.112" y="599.922"/>
      <point x="285.361" y="574.867" type="curve" smooth="yes"/>
      <point x="52.024" y="64.0309" type="line"/>
      <point x="30.4069" y="25.9674"/>
      <point x="-3" y="10"/>
      <point x="-31" y="10" type="curve" smooth="yes"/>
      <point x="-40" y="10" type="line"/>
      <point x="-40" y="0" type="line"/>
      <point x="183.279" y="0" type="line"/>
      <point x="183.279" y="9.90801" type="line"/>
      <point x="174.487" y="9.90801" type="line" smooth="yes"/>
      <point x="148.67" y="9.90801"/>
      <point x="118.49" y="32.664"/>
      <point x="136.092" y="72.681" type="curve" smooth="yes"/>
      <point x="176.25" y="166" type="line"/>
      <point x="389.737" y="166" type="line"/>
      <point x="428.742" y="72.6818" type="line" smooth="yes"/>
      <point x="444.745" y="32.664"/>
      <point x="415.815" y="9.91102"/>
      <point x="389.999" y="9.91102" type="curve" smooth="yes"/>
      <point x="381.207" y="9.91102" type="line"/>
      <point x="381.207" y="0" type="line"/>
      <point x="760.264" y="0" type="line"/>
      <point x="760.264" y="10" type="line"/>
      <point x="751.901" y="10" type="line" smooth="yes"/>
      <point x="723.121" y="10"/>
      <point x="690.494" y="26.2828"/>
      <point x="668.231" y="65.159" type="curve"/>
    </contour>
    <contour>
      <point x="198.048" y="216" type="line"/>
      <point x="285.24" y="416.01" type="line"/>
      <point x="368.839" y="216" type="line"/>
    </contour>
    <contour>
      <point x="578.344" y="9.97223" type="move" name="ogonek"/>
    </contour>
    <contour>
      <point x="350.281" y="764" type="move" name="top"/>
    </contour>
  </outline>
</glyph>
<glyph name="k" format="1">
  <advance width="821"/>
  <unicode hex="006B"/>
  <outline>
    <contour>
      <point x="311.922" y="627.818" type="line" smooth="yes"/>
      <point x="312.9" y="662.363"/>
      <point x="341.167" y="690.08"/>
      <point x="375.959" y="690.08" type="curve" smooth="yes"/>
      <point x="388.609" y="690.06" type="line"/>
      <point x="388.771" y="700.06" type="line"/>
      <point x="30.016" y="700.06" type="line"/>
      <point x="30.178" y="690.06" type="line"/>
      <point x="43" y="690" type="line" smooth="yes"/>
      <point x="77.6924" y="690.08"/>
      <point x="106.003" y="662.25"/>
      <point x="106.873" y="627.606" type="curve" smooth="yes"/>
      <point x="106.873" y="72.8641" type="line" smooth="yes"/>
      <point x="106.21" y="38.0291"/>
      <point x="77.813" y="9.9791"/>
      <point x="42.811" y="9.9791" type="curve" smooth="yes"/>
      <point x="30.161" y="10" type="line"/>
      <point x="30" y="0" type="line"/>
      <point x="388.787" y="0" type="line"/>
      <point x="388.626" y="10" type="line"/>
      <point x="376" y="10" type="line" smooth="yes"/>
      <point x="340.974" y="9.9791"/>
      <point x="312.577" y="38.0291"/>
      <point x="311.922" y="72.8641" type="curve"/>
    </contour>
    <contour>
      <point x="507.452" y="437.752" type="line"/>
      <point x="676.163" y="641.693" type="line" smooth="yes"/>
      <point x="701.936" y="671.09"/>
      <point x="741.939" y="690.881"/>
      <point x="786.055" y="690.98" type="curve" smooth="yes"/>
      <point x="790.435" y="690.98" type="line"/>
      <point x="790.435" y="700" type="line"/>
      <point x="549.336" y="700" type="line"/>
      <point x="549.336" y="691.157" type="line"/>
      <point x="559" y="691.164" type="line" smooth="yes"/>
      <point x="586.407" y="691.164"/>
      <point x="599.035" y="666.349"/>
      <point x="583.182" y="644.083" type="curve" smooth="yes"/>
      <point x="344.077" y="318.182" type="line"/>
      <point x="344" y="316"/>
      <point x="451.767" y="142.444"/>
      <point x="483" y="100" type="curve" smooth="yes"/>
      <point x="561" y="-6"/>
      <point x="711" y="0.166129"/>
      <point x="739.533" y="0.131129" type="curve" smooth="yes"/>
      <point x="847.725" y="0.131129" type="line"/>
      <point x="847.725" y="10.0751" type="line"/>
      <point x="807.078" y="11.1101"/>
      <point x="773.316" y="36.8731"/>
      <point x="740.941" y="85.6891" type="curve" smooth="yes"/>
    </contour>
    <contour>
      <point x="465" y="700" type="move" name="top"/>
    </contour>
    <contour>
      <point x="470" y="0" type="move" name="bottom"/>
    </contour>
  </outline>
</glyph>
<glyph name="u" format="1">
  <advance width="845"/>
  <unicode hex="0075"/>
  <outline>
    <contour>
      <point x="600.182" y="700" type="line"/>
      <point x="600.182" y="690" type="line"/>
      <point x="616.477" y="690.017" type="line" smooth="yes"/>
      <point x="644.901" y="690.017"/>
      <point x="668.046" y="669.918"/>
      <point x="669.3" y="641.881" type="curve"/>
      <point x="669.3" y="247.399" type="line" smooth="yes"/>
      <point x="668.992" y="115.459"/>
      <point x="601.152" y="37.495"/>
      <point x="486.423" y="37.495" type="curve" smooth="yes"/>
      <point x="371.812" y="37.495"/>
      <point x="304.088" y="120.248"/>
      <point x="304.088" y="260.292" type="curve" smooth="yes"/>
      <point x="304.088" y="642" type="line"/>
      <point x="305.312" y="669.975"/>
      <point x="328.433" y="690.017"/>
      <point x="356.814" y="690.017" type="curve" smooth="yes"/>
      <point x="373.11" y="690" type="line"/>
      <point x="373.11" y="700" type="line"/>
      <point x="29.9999" y="700" type="line"/>
      <point x="29.9999" y="690" type="line"/>
      <point x="46.2949" y="690.017" type="line" smooth="yes"/>
      <point x="75.1829" y="690.017"/>
      <point x="98.6189" y="669.255"/>
      <point x="99.1609" y="640.499" type="curve" smooth="yes"/>
      <point x="99.1783" y="255.596" type="line" smooth="yes"/>
      <point x="99.0619" y="87.5871"/>
      <point x="211.363" y="-14"/>
      <point x="456.423" y="-14" type="curve" smooth="yes"/>
      <point x="648.114" y="-14"/>
      <point x="755.96" y="88.1351"/>
      <point x="755.973" y="257.34" type="curve" smooth="yes"/>
      <point x="755.973" y="642.79" type="line"/>
      <point x="757.711" y="670.351"/>
      <point x="780.664" y="690.017"/>
      <point x="808.777" y="690.017" type="curve" smooth="yes"/>
      <point x="825.073" y="690" type="line"/>
      <point x="825.073" y="700" type="line"/>
    </contour>
    <contour>
      <point x="443.423" y="-8" type="move" name="ogonek"/>
    </contour>
    <contour>
      <point x="482.994" y="764" type="move" name="top"/>
    </contour>
  </outline>
</glyph>
<glyph name="x" format="1">
  <advance width="773"/>
  <unicode hex="0078"/>
  <outline>
    <contour>
      <point x="810.085" y="10" type="line"/>
      <point x="796.453" y="10" type="line" smooth="yes"/>
      <point x="754.455" y="10"/>
      <point x="715.456" y="37.454"/>
      <point x="694.64" y="68.326" type="curve" smooth="yes"/>
      <point x="488.912" y="382.853" type="line"/>
      <point x="655.645" y="631.612" type="line" smooth="yes"/>
      <point x="677.411" y="662.328"/>
      <point x="713.317" y="689.993"/>
      <point x="755.136" y="689.993" type="curve" smooth="yes"/>
      <point x="769.136" y="689.993" type="line"/>
      <point x="768.961" y="700.017" type="line"/>
      <point x="510.409" y="700.017" type="line"/>
      <point x="510.584" y="689.993" type="line"/>
      <point x="523.185" y="689.993" type="line" smooth="yes"/>
      <point x="550.397" y="689.993"/>
      <point x="575.452" y="656.478"/>
      <point x="558.445" y="628.132" type="curve" smooth="yes"/>
      <point x="444.657" y="450.514" type="line"/>
      <point x="328.496" y="628.111" type="line"/>
      <point x="311.456" y="656.464"/>
      <point x="335.285" y="690.034"/>
      <point x="362.508" y="690.034" type="curve" smooth="yes"/>
      <point x="375.106" y="690.034" type="line"/>
      <point x="374.932" y="700" type="line"/>
      <point x="-27" y="700" type="line"/>
      <point x="-27" y="690.034" type="line"/>
      <point x="-13" y="690.034" type="line" smooth="yes"/>
      <point x="28.5146" y="690.034"/>
      <point x="67.2002" y="662.273"/>
      <point x="88.0693" y="631.532" type="curve" smooth="yes"/>
      <point x="278.733" y="338.746" type="line"/>
      <point x="79.6512" y="66.93" type="line" smooth="yes"/>
      <point x="55.9707" y="36.8088"/>
      <point x="22.0874" y="10.024"/>
      <point x="-19" y="10.024" type="curve" smooth="yes"/>
      <point x="-33" y="10.024" type="line"/>
      <point x="-33" y="0" type="line"/>
      <point x="227.04" y="0" type="line"/>
      <point x="226.865" y="10.024" type="line"/>
      <point x="214.265" y="10.024" type="line" smooth="yes"/>
      <point x="186.992" y="10.024"/>
      <point x="159.885" y="43.691"/>
      <point x="179.122" y="72.077" type="curve" smooth="yes"/>
      <point x="321.417" y="273.199" type="line"/>
      <point x="452.713" y="71.5779" type="line" smooth="yes"/>
      <point x="469.932" y="43.192"/>
      <point x="446.055" y="9.99998"/>
      <point x="418.782" y="9.99998" type="curve" smooth="yes"/>
      <point x="406.183" y="9.99998" type="line"/>
      <point x="406.357" y="0" type="line"/>
      <point x="810.259" y="0" type="line"/>
    </contour>
  </outline>
</glyph>
<glyph name="sterling" format="1">
  <advance width="620"/>
  <unicode hex="00A3"/>
  <outline>
    <contour>
      <point x="605.989" y="219.402" type="line"/>
      <point x="545.985" y="99"/>
      <point x="442.985" y="59"/>
      <point x="339.985" y="68" type="curve" smooth="yes"/>
      <point x="277.802" y="73.4334"/>
      <point x="230.856" y="87.7947"/>
      <point x="183.4" y="78.8971" type="curve"/>
      <point x="261.06" y="101.635"/>
      <point x="317.187" y="152.022"/>
      <point x="318.516" y="318.752" type="curve"/>
      <point x="476.497" y="318.752" type="line"/>
      <point x="497.757" y="374.614" type="line"/>
      <point x="317.117" y="374.614" type="line"/>
      <point x="307.251" y="549.216"/>
      <point x="316.985" y="661"/>
      <point x="424.771" y="664" type="curve" smooth="yes"/>
      <point x="500.274" y="666.101"/>
      <point x="528.482" y="617.329"/>
      <point x="533.157" y="515.502" type="curve"/>
      <point x="543.157" y="515.502" type="line"/>
      <point x="590.506" y="656.702" type="line"/>
      <point x="561.985" y="693"/>
      <point x="490.985" y="720"/>
      <point x="387.985" y="714" type="curve" smooth="yes"/>
      <point x="168.917" y="701.114"/>
      <point x="108.759" y="548.827"/>
      <point x="111.888" y="374.614" type="curve"/>
      <point x="47.5648" y="374.614" type="line"/>
      <point x="30.3038" y="318.752" type="line"/>
      <point x="111.89" y="318.752" type="line"/>
      <point x="106.872" y="145.269"/>
      <point x="54.6553" y="48.4249"/>
      <point x="29.9998" y="0" type="curve"/>
      <point x="29.9998" y="-10" type="line"/>
      <point x="39.9998" y="-10" type="line"/>
      <point x="48.9848" y="0"/>
      <point x="112.985" y="23"/>
      <point x="136.985" y="24" type="curve" smooth="yes"/>
      <point x="199.985" y="26"/>
      <point x="248.985" y="4"/>
      <point x="337.985" y="-8" type="curve" smooth="yes"/>
      <point x="390.985" y="-15"/>
      <point x="504.985" y="-6"/>
      <point x="570.557" y="24" type="curve"/>
      <point x="615.989" y="219.402" type="line"/>
    </contour>
  </outline>
</glyph>
<glyph name="Atilde" format="1">
  <advance width="702"/>
  <unicode hex="00C3"/>
  <outline>
    <contour>
      <point x="536.204" y="939.285" type="line"/>
      <point x="558.196" y="890.769"/>
      <point x="520.196" y="783.769"/>
      <point x="419.521" y="784.132" type="curve" smooth="yes"/>
      <point x="357.195" y="784.357"/>
      <point x="323.196" y="827.769"/>
      <point x="258.213" y="838.215" type="curve" smooth="yes"/>
      <point x="213.764" y="845.36"/>
      <point x="175.196" y="808.769"/>
      <point x="166.226" y="787.102" type="curve"/>
      <point x="153.872" y="787.102" type="line"/>
      <point x="139.196" y="840.769"/>
      <point x="173.196" y="948.769"/>
      <point x="271.05" y="948.882" type="curve" smooth="yes"/>
      <point x="329.196" y="948.949"/>
      <point x="360.196" y="905.769"/>
      <point x="433.086" y="895.799" type="curve" smooth="yes"/>
      <point x="477.78" y="889.685"/>
      <point x="517.196" y="922.769"/>
      <point x="523.851" y="939.285" type="curve"/>
    </contour>
    <contour>
      <point x="976.102" y="-161" type="line"/>
      <point x="794.24" y="-210"/>
      <point x="693.68" y="-6"/>
      <point x="623.138" y="155.212" type="curve" smooth="yes"/>
      <point x="462.755" y="521.535" type="line" smooth="yes"/>
      <point x="372.17" y="728.435"/>
      <point x="224.45" y="826.42"/>
      <point x="36.344" y="713.835" type="curve"/>
      <point x="38.2262" y="703.731" type="line"/>
      <point x="152.225" y="745.507"/>
      <point x="212.755" y="628.889"/>
      <point x="256.414" y="511.495" type="curve"/>
      <point x="52.0252" y="64.034" type="line"/>
      <point x="30.4082" y="25.9685"/>
      <point x="-3" y="10"/>
      <point x="-31" y="10" type="curve" smooth="yes"/>
      <point x="-40" y="10" type="line"/>
      <point x="-40" y="0" type="line"/>
      <point x="183.279" y="0" type="line"/>
      <point x="183.279" y="9.90831" type="line"/>
      <point x="174.487" y="9.90831" type="line" smooth="yes"/>
      <point x="148.67" y="9.90831"/>
      <point x="118.49" y="32.6643"/>
      <point x="136.092" y="72.6813" type="curve" smooth="yes"/>
      <point x="176.25" y="166" type="line"/>
      <point x="390.317" y="166" type="line"/>
      <point x="417.399" y="99.5633" type="line" smooth="yes"/>
      <point x="537.606" y="-195"/>
      <point x="792.285" y="-279"/>
      <point x="977.975" y="-171" type="curve"/>
    </contour>
    <contour>
      <point x="198.047" y="216" type="line"/>
      <point x="287.866" y="422.034" type="line"/>
      <point x="294.387" y="403.344"/>
      <point x="300.685" y="385.887"/>
      <point x="306.956" y="370.504" type="curve" smooth="yes"/>
      <point x="369.936" y="216" type="line"/>
    </contour>
  </outline>
</glyph>
<glyph name="Aring" format="1">
  <advance width="702"/>
  <unicode hex="00C5"/>
  <outline>
    <contour>
      <point x="260.629" y="961.629"/>
      <point x="209.599" y="923.357"/>
      <point x="209.594" y="872.328" type="curve" smooth="yes"/>
      <point x="209.59" y="821.294"/>
      <point x="260.147" y="783.022"/>
      <point x="327.562" y="783.026" type="curve" smooth="yes"/>
      <point x="394.956" y="783.03"/>
      <point x="445.513" y="822.249"/>
      <point x="445.529" y="874.534" type="curve" smooth="yes"/>
      <point x="445.546" y="924.306"/>
      <point x="395.461" y="961.633"/>
      <point x="328.664" y="961.631" type="curve" smooth="yes"/>
    </contour>
    <contour>
      <point x="357.176" y="931.877"/>
      <point x="379.384" y="906.362"/>
      <point x="379.379" y="872.328" type="curve" smooth="yes"/>
      <point x="379.375" y="838.946"/>
      <point x="357.167" y="813.904"/>
      <point x="327.562" y="813.896" type="curve" smooth="yes"/>
      <point x="298.577" y="813.888"/>
      <point x="276.843" y="838.93"/>
      <point x="276.847" y="872.328" type="curve" smooth="yes"/>
      <point x="276.851" y="906.335"/>
      <point x="298.587" y="931.85"/>
      <point x="327.562" y="931.864" type="curve" smooth="yes"/>
    </contour>
    <contour>
      <point x="976.102" y="-161" type="line"/>
      <point x="794.24" y="-210"/>
      <point x="693.68" y="-6"/>
      <point x="623.138" y="155.212" type="curve" smooth="yes"/>
      <point x="462.755" y="521.535" type="line" smooth="yes"/>
      <point x="372.17" y="728.435"/>
      <point x="224.45" y="826.42"/>
      <point x="36.344" y="713.835" type="curve"/>
      <point x="38.2262" y="703.731" type="line"/>
      <point x="152.225" y="745.507"/>
      <point x="212.755" y="628.889"/>
      <point x="256.414" y="511.495" type="curve"/>
      <point x="52.0252" y="64.034" type="line"/>
      <point x="30.4082" y="25.9685"/>
      <point x="-3" y="10"/>
      <point x="-31" y="10" type="curve" smooth="yes"/>
      <point x="-40" y="10" type="line"/>
      <point x="-40" y="0" type="line"/>
      <point x="183.279" y="0" type="line"/>
      <point x="183.279" y="9.90834" type="line"/>
      <point x="174.487" y="9.90834" type="line" smooth="yes"/>
      <point x="148.67" y="9.90834"/>
      <point x="118.49" y="32.6643"/>
      <point x="136.092" y="72.6813" type="curve" smooth="yes"/>
      <point x="176.25" y="166" type="line"/>
      <point x="390.317" y="166" type="line"/>
      <point x="417.399" y="99.5633" type="line" smooth="yes"/>
      <point x="537.606" y="-195"/>
      <point x="792.285" y="-279"/>
      <point x="977.975" y="-171" type="curve"/>
    </contour>
    <contour>
      <point x="198.047" y="216" type="line"/>
      <point x="287.866" y="422.034" type="line"/>
      <point x="294.387" y="403.344"/>
      <point x="300.685" y="385.887"/>
      <point x="306.956" y="370.504" type="curve" smooth="yes"/>
      <point x="369.936" y="216" type="line"/>
    </contour>
  </outline>
</glyph>
<glyph name="AE" format="1">
  <advance width="941"/>
  <unicode hex="00C6"/>
  <outline>
    <contour>
      <point x="931.42" y="231.543" type="line"/>
      <point x="900.33" y="117.359"/>
      <point x="819.855" y="50.592"/>
      <point x="723.892" y="50.592" type="curve" smooth="yes"/>
      <point x="540.588" y="50.592" type="line"/>
      <point x="540.588" y="317.218" type="line"/>
      <point x="684.49" y="317.218" type="line"/>
      <point x="745.312" y="313.797"/>
      <point x="788.053" y="269.275"/>
      <point x="787.847" y="208.134" type="curve" smooth="yes"/>
      <point x="787.831" y="203.4" type="line"/>
      <point x="797.604" y="203.276" type="line"/>
      <point x="797.604" y="481.235" type="line"/>
      <point x="787.831" y="481.11" type="line"/>
      <point x="787.848" y="476.376" type="line" smooth="yes"/>
      <point x="788.069" y="414.721"/>
      <point x="744.653" y="369.966"/>
      <point x="682.938" y="367.218" type="curve"/>
      <point x="540.588" y="367.218" type="line"/>
      <point x="540.588" y="649.478" type="line"/>
      <point x="576.223" y="649.478" type="line" smooth="yes"/>
      <point x="656.348" y="647.422"/>
      <point x="703.53" y="599.303"/>
      <point x="703.337" y="519.891" type="curve" smooth="yes"/>
      <point x="703.318" y="512.067" type="line"/>
      <point x="713.426" y="511.917" type="line"/>
      <point x="713.426" y="718.187" type="line"/>
      <point x="694.477" y="710.201"/>
      <point x="634.812" y="699.987"/>
      <point x="591.452" y="699.987" type="curve"/>
      <point x="593.12" y="699.836" type="line"/>
      <point x="540.588" y="699.836" type="line"/>
      <point x="305.436" y="699.763" type="line"/>
      <point x="305.436" y="687.948" type="line"/>
      <point x="310.034" y="687.948" type="line" smooth="yes"/>
      <point x="331.591" y="687.948"/>
      <point x="344.078" y="668.081"/>
      <point x="335.006" y="648.215" type="curve"/>
      <point x="-53" y="78.5942" type="line" smooth="yes"/>
      <point x="-159" y="-77"/>
      <point x="-244" y="-87"/>
      <point x="-339" y="-81" type="curve"/>
      <point x="-340" y="-91" type="line"/>
      <point x="-217" y="-141"/>
      <point x="-72" y="-129"/>
      <point x="40.2159" y="54.5012" type="curve" smooth="yes"/>
      <point x="200.397" y="317.218" type="line"/>
      <point x="336.57" y="317.218" type="line"/>
      <point x="336.57" y="58.3572" type="line"/>
      <point x="335.55" y="58.3572" type="line"/>
      <point x="335.046" y="31.5612"/>
      <point x="313.202" y="9.98418"/>
      <point x="286.278" y="9.98418" type="curve" smooth="yes"/>
      <point x="276.547" y="10" type="line"/>
      <point x="276.423" y="0" type="line"/>
      <point x="903.13" y="0" type="line"/>
      <point x="941.42" y="231.543" type="line"/>
    </contour>
    <contour>
      <point x="230.883" y="367.218" type="line"/>
      <point x="337.288" y="541.736" type="line"/>
      <point x="337.288" y="367.218" type="line"/>
    </contour>
    <contour>
      <point x="170" y="700" type="move" name="top"/>
    </contour>
  </outline>
</glyph>
<glyph name="Ccedilla" format="1">
  <advance width="830"/>
  <unicode hex="00C7"/>
  <outline>
    <contour>
      <point x="807.006" y="401.85" type="line"/>
      <point x="815.793" y="162.752"/>
      <point x="682.274" y="35.929"/>
      <point x="498.128" y="35.929" type="curve" smooth="yes"/>
      <point x="321" y="42"/>
      <point x="230" y="169"/>
      <point x="230" y="358" type="curve" smooth="yes"/>
      <point x="230" y="546"/>
      <point x="320" y="664"/>
      <point x="483" y="664" type="curve" smooth="yes"/>
      <point x="580" y="664"/>
      <point x="677" y="622"/>
      <point x="717.378" y="477.264" type="curve"/>
      <point x="725.701" y="477.232" type="line"/>
      <point x="735.525" y="668.468" type="line"/>
      <point x="680" y="692"/>
      <point x="591" y="714"/>
      <point x="478" y="714" type="curve" smooth="yes"/>
      <point x="190" y="714"/>
      <point x="9.99998" y="571"/>
      <point x="9.99998" y="346" type="curve" smooth="yes"/>
      <point x="9.99998" y="146.177"/>
      <point x="151.696" y="4.44099"/>
      <point x="422.809" y="-12" type="curve"/>
      <point x="376.945" y="-71" type="line"/>
      <point x="382.031" y="-81" type="line"/>
      <point x="418.273" y="-66"/>
      <point x="484.575" y="-77"/>
      <point x="479.427" y="-119" type="curve" smooth="yes"/>
      <point x="472.731" y="-174"/>
      <point x="417.375" y="-195"/>
      <point x="375.648" y="-195" type="curve"/>
      <point x="374.91" y="-205" type="line"/>
      <point x="457.999" y="-234"/>
      <point x="557.019" y="-190"/>
      <point x="563.427" y="-120" type="curve" smooth="yes"/>
      <point x="569.776" y="-51"/>
      <point x="480.176" y="-45"/>
      <point x="444.589" y="-57" type="curve"/>
      <point x="482.298" y="-14" type="line"/>
      <point x="697.906" y="-12"/>
      <point x="852.749" y="135.948"/>
      <point x="815.328" y="401.886" type="curve"/>
    </contour>
  </outline>
</glyph>
<glyph name="Ecircumflex" format="1">
  <advance width="712"/>
  <unicode hex="00CA"/>
  <outline>
    <contour>
      <point x="271.792" y="931.759" type="line"/>
      <point x="283.695" y="931.759" type="line"/>
      <point x="462.139" y="756.241" type="line"/>
      <point x="454.998" y="748.241" type="line"/>
      <point x="277.184" y="812.67" type="line"/>
      <point x="110.065" y="748.337" type="line"/>
      <point x="102.924" y="756.337" type="line"/>
    </contour>
    <contour>
      <point x="702.845" y="231.543" type="line"/>
      <point x="671.753" y="117.359"/>
      <point x="591.283" y="50.5921"/>
      <point x="495.32" y="50.5921" type="curve" smooth="yes"/>
      <point x="311.901" y="50.5921" type="line"/>
      <point x="311.901" y="320.218" type="line"/>
      <point x="452.202" y="320.218" type="line" smooth="yes"/>
      <point x="514.992" y="318.435"/>
      <point x="559.486" y="273.356"/>
      <point x="559.275" y="210.977" type="curve" smooth="yes"/>
      <point x="559.259" y="206.243" type="line"/>
      <point x="569.032" y="206.119" type="line"/>
      <point x="569.032" y="484.375" type="line"/>
      <point x="559.259" y="484.25" type="line"/>
      <point x="559.276" y="479.516" type="line" smooth="yes"/>
      <point x="559.501" y="416.714"/>
      <point x="514.451" y="371.446"/>
      <point x="450.904" y="370.248" type="curve" smooth="yes"/>
      <point x="311.901" y="370.248" type="line"/>
      <point x="311.901" y="649.409" type="line"/>
      <point x="346.878" y="649.409" type="line"/>
      <point x="425.649" y="646.525"/>
      <point x="471.956" y="598.564"/>
      <point x="471.765" y="519.891" type="curve" smooth="yes"/>
      <point x="471.746" y="512.067" type="line"/>
      <point x="481.846" y="511.917" type="line"/>
      <point x="481.846" y="718.187" type="line"/>
      <point x="463.253" y="710.366"/>
      <point x="405.681" y="700.407"/>
      <point x="362.581" y="700" type="curve" smooth="yes"/>
      <point x="30.0069" y="700" type="line"/>
      <point x="30.1689" y="690.06" type="line"/>
      <point x="42.8189" y="690.08" type="line" smooth="yes"/>
      <point x="77.759" y="690.08"/>
      <point x="106.118" y="662.128"/>
      <point x="106.869" y="627.378" type="curve" smooth="yes"/>
      <point x="106.869" y="72.8641" type="line" smooth="yes"/>
      <point x="106.21" y="38.0291"/>
      <point x="77.8131" y="9.97914"/>
      <point x="42.8111" y="9.97914" type="curve" smooth="yes"/>
      <point x="30.1611" y="10" type="line"/>
      <point x="30" y="0" type="line"/>
      <point x="674.557" y="0" type="line"/>
      <point x="712.845" y="231.543" type="line"/>
    </contour>
  </outline>
</glyph>
<glyph name="Igrave" format="1">
  <advance width="498"/>
  <unicode hex="00CC"/>
  <outline>
    <contour>
      <point x="315.299" y="770.906" type="line"/>
      <point x="287.047" y="836.791"/>
      <point x="204.795" y="918.676"/>
      <point x="160.543" y="956.561" type="curve"/>
      <point x="112.163" y="936.325"/>
      <point x="88.784" y="903.09"/>
      <point x="75.404" y="856.854" type="curve"/>
      <point x="138.702" y="814.871"/>
      <point x="235.001" y="772.889"/>
      <point x="308.299" y="763.906" type="curve"/>
    </contour>
    <contour>
      <point x="392.009" y="613.639" type="line" smooth="yes"/>
      <point x="393.251" y="671.075"/>
      <point x="411.846" y="700.762"/>
      <point x="470.643" y="710.06" type="curve"/>
      <point x="468.805" y="720.06" type="line"/>
      <point x="374.087" y="702"/>
      <point x="179.271" y="699.19"/>
      <point x="109.087" y="696" type="curve" smooth="yes"/>
      <point x="-1" y="691"/>
      <point x="-38" y="641.871"/>
      <point x="-40" y="591" type="curve" smooth="yes"/>
      <point x="-43" y="518.81"/>
      <point x="32.0872" y="479"/>
      <point x="88.7317" y="511.398" type="curve"/>
      <point x="88.7317" y="517.205" type="line"/>
      <point x="37.0872" y="512"/>
      <point x="7.08722" y="544"/>
      <point x="10.0872" y="585" type="curve" smooth="yes"/>
      <point x="14.0872" y="627"/>
      <point x="44.0872" y="644.925"/>
      <point x="100.01" y="646.865" type="curve" smooth="yes"/>
      <point x="186.96" y="649.873" type="line"/>
      <point x="186.96" y="72.8639" type="line" smooth="yes"/>
      <point x="186.297" y="38.0289"/>
      <point x="157.9" y="9.97891"/>
      <point x="122.898" y="9.97891" type="curve" smooth="yes"/>
      <point x="110.248" y="9.99991" type="line"/>
      <point x="110.087" y="0" type="line"/>
      <point x="468.874" y="0" type="line"/>
      <point x="468.713" y="9.99991" type="line"/>
      <point x="456.063" y="9.97891" type="line" smooth="yes"/>
      <point x="421.061" y="9.97891"/>
      <point x="392.664" y="38.0289"/>
      <point x="392.009" y="72.8639" type="curve"/>
    </contour>
  </outline>
</glyph>
<glyph name="Iacute" format="1">
  <advance width="498"/>
  <unicode hex="00CD"/>
  <outline>
    <contour>
      <point x="271.393" y="761" type="line"/>
      <point x="344.691" y="769.983"/>
      <point x="440.99" y="811.965"/>
      <point x="504.288" y="853.948" type="curve"/>
      <point x="490.908" y="900.184"/>
      <point x="467.529" y="933.419"/>
      <point x="419.149" y="953.655" type="curve"/>
      <point x="374.897" y="915.77"/>
      <point x="292.645" y="833.885"/>
      <point x="264.393" y="768" type="curve"/>
    </contour>
    <contour>
      <point x="392.009" y="613.639" type="line" smooth="yes"/>
      <point x="393.251" y="671.075"/>
      <point x="411.846" y="700.762"/>
      <point x="470.643" y="710.06" type="curve"/>
      <point x="468.805" y="720.06" type="line"/>
      <point x="374.087" y="702"/>
      <point x="179.271" y="699.19"/>
      <point x="109.087" y="696" type="curve" smooth="yes"/>
      <point x="-1" y="691"/>
      <point x="-38" y="641.871"/>
      <point x="-40" y="591" type="curve" smooth="yes"/>
      <point x="-43" y="518.81"/>
      <point x="32.0872" y="479"/>
      <point x="88.7317" y="511.398" type="curve"/>
      <point x="88.7317" y="517.205" type="line"/>
      <point x="37.0872" y="512"/>
      <point x="7.08721" y="544"/>
      <point x="10.0872" y="585" type="curve" smooth="yes"/>
      <point x="14.0872" y="627"/>
      <point x="44.0872" y="644.925"/>
      <point x="100.01" y="646.865" type="curve" smooth="yes"/>
      <point x="186.96" y="649.873" type="line"/>
      <point x="186.96" y="72.8639" type="line" smooth="yes"/>
      <point x="186.297" y="38.0289"/>
      <point x="157.9" y="9.97891"/>
      <point x="122.898" y="9.97891" type="curve" smooth="yes"/>
      <point x="110.248" y="9.99991" type="line"/>
      <point x="110.087" y="0" type="line"/>
      <point x="468.874" y="0" type="line"/>
      <point x="468.713" y="9.99991" type="line"/>
      <point x="456.063" y="9.97891" type="line" smooth="yes"/>
      <point x="421.061" y="9.97891"/>
      <point x="392.664" y="38.0289"/>
      <point x="392.009" y="72.8639" type="curve"/>
    </contour>
  </outline>
</glyph>
<glyph name="Icircumflex" format="1">
  <advance width="498"/>
  <unicode hex="00CE"/>
  <outline>
    <contour>
      <point x="281.146" y="931.759" type="line"/>
      <point x="293.049" y="931.759" type="line"/>
      <point x="471.493" y="756.241" type="line"/>
      <point x="464.352" y="748.241" type="line"/>
      <point x="286.538" y="812.67" type="line"/>
      <point x="119.419" y="748.337" type="line"/>
      <point x="112.278" y="756.337" type="line"/>
    </contour>
    <contour>
      <point x="392.009" y="613.639" type="line" smooth="yes"/>
      <point x="393.251" y="671.075"/>
      <point x="411.846" y="700.762"/>
      <point x="470.643" y="710.06" type="curve"/>
      <point x="468.805" y="720.06" type="line"/>
      <point x="374.087" y="702"/>
      <point x="179.271" y="699.19"/>
      <point x="109.087" y="696" type="curve" smooth="yes"/>
      <point x="-1" y="691"/>
      <point x="-38" y="641.871"/>
      <point x="-40" y="591" type="curve" smooth="yes"/>
      <point x="-43" y="518.81"/>
      <point x="32.0872" y="479"/>
      <point x="88.7317" y="511.398" type="curve"/>
      <point x="88.7317" y="517.205" type="line"/>
      <point x="37.0872" y="512"/>
      <point x="7.08719" y="544"/>
      <point x="10.0872" y="585" type="curve" smooth="yes"/>
      <point x="14.0872" y="627"/>
      <point x="44.0872" y="644.925"/>
      <point x="100.01" y="646.865" type="curve" smooth="yes"/>
      <point x="186.96" y="649.873" type="line"/>
      <point x="186.96" y="72.8639" type="line" smooth="yes"/>
      <point x="186.297" y="38.0289"/>
      <point x="157.9" y="9.97893"/>
      <point x="122.898" y="9.97893" type="curve" smooth="yes"/>
      <point x="110.248" y="9.99993" type="line"/>
      <point x="110.087" y="0" type="line"/>
      <point x="468.874" y="0" type="line"/>
      <point x="468.713" y="9.99993" type="line"/>
      <point x="456.063" y="9.97893" type="line" smooth="yes"/>
      <point x="421.061" y="9.97893"/>
      <point x="392.664" y="38.0289"/>
      <point x="392.009" y="72.8639" type="curve"/>
    </contour>
  </outline>
</glyph>
<glyph name="Idieresis" format="1">
  <advance width="498"/>
  <unicode hex="00CF"/>
  <outline>
    <contour>
      <point x="194.249" y="755.486"/>
      <point x="227.239" y="788.476"/>
      <point x="227.239" y="829.174" type="curve" smooth="yes"/>
      <point x="227.239" y="869.872"/>
      <point x="194.249" y="902.863"/>
      <point x="153.552" y="902.863" type="curve" smooth="yes"/>
      <point x="112.854" y="902.863"/>
      <point x="79.8642" y="869.872"/>
      <point x="79.8642" y="829.174" type="curve" smooth="yes"/>
      <point x="79.8642" y="788.476"/>
      <point x="112.854" y="755.486"/>
      <point x="153.552" y="755.486" type="curve" smooth="yes"/>
    </contour>
    <contour>
      <point x="456.847" y="755.486"/>
      <point x="489.836" y="788.476"/>
      <point x="489.836" y="829.174" type="curve" smooth="yes"/>
      <point x="489.836" y="869.872"/>
      <point x="456.847" y="902.863"/>
      <point x="416.149" y="902.863" type="curve" smooth="yes"/>
      <point x="375.451" y="902.863"/>
      <point x="342.461" y="869.872"/>
      <point x="342.461" y="829.174" type="curve" smooth="yes"/>
      <point x="342.461" y="788.476"/>
      <point x="375.451" y="755.486"/>
      <point x="416.149" y="755.486" type="curve" smooth="yes"/>
    </contour>
    <contour>
      <point x="392.009" y="613.639" type="line" smooth="yes"/>
      <point x="393.251" y="671.075"/>
      <point x="411.846" y="700.762"/>
      <point x="470.643" y="710.06" type="curve"/>
      <point x="468.805" y="720.06" type="line"/>
      <point x="374.087" y="702"/>
      <point x="179.271" y="699.19"/>
      <point x="109.087" y="696" type="curve" smooth="yes"/>
      <point x="-1" y="691"/>
      <point x="-38" y="641.871"/>
      <point x="-40" y="591" type="curve" smooth="yes"/>
      <point x="-43" y="518.81"/>
      <point x="32.0872" y="479"/>
      <point x="88.7317" y="511.398" type="curve"/>
      <point x="88.7317" y="517.205" type="line"/>
      <point x="37.0872" y="512"/>
      <point x="7.08719" y="544"/>
      <point x="10.0872" y="585" type="curve" smooth="yes"/>
      <point x="14.0872" y="627"/>
      <point x="44.0872" y="644.925"/>
      <point x="100.01" y="646.865" type="curve" smooth="yes"/>
      <point x="186.96" y="649.873" type="line"/>
      <point x="186.96" y="72.8639" type="line" smooth="yes"/>
      <point x="186.297" y="38.0289"/>
      <point x="157.9" y="9.97893"/>
      <point x="122.898" y="9.97893" type="curve" smooth="yes"/>
      <point x="110.248" y="9.99993" type="line"/>
      <point x="110.087" y="0" type="line"/>
      <point x="468.874" y="0" type="line"/>
      <point x="468.713" y="9.99993" type="line"/>
      <point x="456.063" y="9.97893" type="line" smooth="yes"/>
      <point x="421.061" y="9.97893"/>
      <point x="392.664" y="38.0289"/>
      <point x="392.009" y="72.8639" type="curve"/>
    </contour>
  </outline>
</glyph>
<glyph name="Eth" format="1">
  <advance width="878"/>
  <unicode hex="00D0"/>
  <outline>
    <contour>
      <point x="-90" y="479.931" type="line"/>
      <point x="-56" y="558.776"/>
      <point x="-2" y="629.038"/>
      <point x="142.862" y="644.004" type="curve"/>
      <point x="142.862" y="375.016" type="line"/>
      <point x="66" y="375.016" type="line"/>
      <point x="66" y="325.016" type="line"/>
      <point x="142.862" y="325.016" type="line"/>
      <point x="142.862" y="72.7276" type="line" smooth="yes"/>
      <point x="142.136" y="37.9558"/>
      <point x="113.767" y="9.97899"/>
      <point x="78.811" y="9.97899" type="curve" smooth="yes"/>
      <point x="66.161" y="9.99999" type="line"/>
      <point x="66" y="0" type="line"/>
      <point x="444.536" y="0.0569944" type="line" smooth="yes"/>
      <point x="695" y="0"/>
      <point x="844" y="130"/>
      <point x="843.678" y="349.836" type="curve"/>
      <point x="844" y="570"/>
      <point x="695" y="700"/>
      <point x="444.536" y="699.975" type="curve" smooth="yes"/>
      <point x="213.404" y="699.582" type="line" smooth="yes"/>
      <point x="51.066" y="699.582"/>
      <point x="-72" y="632.434"/>
      <point x="-100" y="483.931" type="curve"/>
    </contour>
    <contour>
      <point x="347.983" y="325.016" type="line"/>
      <point x="456" y="325.016" type="line"/>
      <point x="456" y="375.016" type="line"/>
      <point x="347.983" y="375.016" type="line"/>
      <point x="347.983" y="648.307" type="line"/>
      <point x="424.536" y="649.944" type="line" smooth="yes"/>
      <point x="549" y="650"/>
      <point x="624" y="538"/>
      <point x="623.678" y="349.909" type="curve" smooth="yes"/>
      <point x="624" y="161"/>
      <point x="549" y="50"/>
      <point x="424.536" y="50.44" type="curve" smooth="yes"/>
      <point x="347.983" y="50.4439" type="line"/>
    </contour>
  </outline>
</glyph>
<glyph name="Ntilde" format="1">
  <advance width="881"/>
  <unicode hex="00D1"/>
  <outline>
    <contour>
      <point x="609.196" y="919.281" type="line"/>
      <point x="631.188" y="870.765"/>
      <point x="593.188" y="763.765"/>
      <point x="492.513" y="764.128" type="curve" smooth="yes"/>
      <point x="430.187" y="764.353"/>
      <point x="396.188" y="807.765"/>
      <point x="331.205" y="818.211" type="curve" smooth="yes"/>
      <point x="286.756" y="825.356"/>
      <point x="248.188" y="788.765"/>
      <point x="239.218" y="767.098" type="curve"/>
      <point x="226.864" y="767.098" type="line"/>
      <point x="212.188" y="820.765"/>
      <point x="246.188" y="928.765"/>
      <point x="344.042" y="928.878" type="curve" smooth="yes"/>
      <point x="402.188" y="928.945"/>
      <point x="433.188" y="885.765"/>
      <point x="506.078" y="875.795" type="curve" smooth="yes"/>
      <point x="550.772" y="869.681"/>
      <point x="590.188" y="902.765"/>
      <point x="596.843" y="919.281" type="curve"/>
    </contour>
    <contour>
      <point x="1136.59" y="-125" type="line"/>
      <point x="978.345" y="-170"/>
      <point x="856.614" y="-20"/>
      <point x="798.562" y="40.438" type="curve" smooth="yes"/>
      <point x="780.983" y="58.6133" type="line"/>
      <point x="780.983" y="630.256" type="line" smooth="yes"/>
      <point x="782.042" y="663.448"/>
      <point x="809.237" y="690.039"/>
      <point x="842.696" y="690.039" type="curve" smooth="yes"/>
      <point x="861.152" y="690.02" type="line"/>
      <point x="861.306" y="700.019" type="line"/>
      <point x="495.233" y="700.019" type="line"/>
      <point x="495.387" y="690.019" type="line"/>
      <point x="513.841" y="690.038" type="line" smooth="yes"/>
      <point x="547.579" y="690.042"/>
      <point x="574.944" y="663.005"/>
      <point x="575.575" y="629.431" type="curve" smooth="yes"/>
      <point x="575.575" y="270.933" type="line"/>
      <point x="164.515" y="696" type="line" smooth="yes"/>
      <point x="76.7452" y="786.748"/>
      <point x="-88" y="901.184"/>
      <point x="-231" y="800.277" type="curve"/>
      <point x="-226" y="790.595" type="line"/>
      <point x="-105" y="837.454"/>
      <point x="23.6072" y="718.847"/>
      <point x="100.345" y="637.424" type="curve"/>
      <point x="100.345" y="70.5453" type="line" smooth="yes"/>
      <point x="99.6908" y="36.9933"/>
      <point x="72.3324" y="9.98148"/>
      <point x="38.6136" y="9.98148" type="curve" smooth="yes"/>
      <point x="20.1556" y="10" type="line"/>
      <point x="20" y="0" type="line"/>
      <point x="385.987" y="0" type="line"/>
      <point x="385.833" y="10" type="line"/>
      <point x="367.372" y="9.98148" type="line" smooth="yes"/>
      <point x="333.64" y="9.98148"/>
      <point x="306.273" y="37.0175"/>
      <point x="305.637" y="70.5905" type="curve"/>
      <point x="305.637" y="423.209" type="line"/>
      <point x="744.972" y="-31" type="line" smooth="yes"/>
      <point x="838.199" y="-127"/>
      <point x="985.411" y="-230"/>
      <point x="1141.27" y="-135" type="curve"/>
    </contour>
  </outline>
</glyph>
<glyph name="Ograve" format="1">
  <advance width="931"/>
  <unicode hex="00D2"/>
  <outline>
    <contour>
      <point x="492.338" y="784.906" type="line"/>
      <point x="464.086" y="850.791"/>
      <point x="381.834" y="932.676"/>
      <point x="337.582" y="970.561" type="curve"/>
      <point x="289.202" y="950.325"/>
      <point x="265.823" y="917.09"/>
      <point x="252.443" y="870.854" type="curve"/>
      <point x="315.741" y="828.871"/>
      <point x="412.04" y="786.889"/>
      <point x="485.338" y="777.906" type="curve"/>
    </contour>
    <contour>
      <point x="378.926" y="433.461" type="line"/>
      <point x="346" y="542"/>
      <point x="382" y="651"/>
      <point x="488" y="664" type="curve" smooth="yes"/>
      <point x="617" y="680"/>
      <point x="700" y="539"/>
      <point x="700" y="355" type="curve" smooth="yes"/>
      <point x="700" y="160"/>
      <point x="606" y="36"/>
      <point x="468" y="36" type="curve" smooth="yes"/>
      <point x="322" y="36"/>
      <point x="231" y="176"/>
      <point x="231" y="387" type="curve" smooth="yes"/>
      <point x="231" y="518"/>
      <point x="266" y="639"/>
      <point x="321.434" y="696.836" type="curve"/>
      <point x="315.434" y="706.836" type="line"/>
      <point x="135" y="676"/>
      <point x="10" y="536"/>
      <point x="10" y="353" type="curve" smooth="yes"/>
      <point x="10" y="133"/>
      <point x="193" y="-14"/>
      <point x="467" y="-14" type="curve" smooth="yes"/>
      <point x="739" y="-14"/>
      <point x="921" y="130"/>
      <point x="921" y="355" type="curve" smooth="yes"/>
      <point x="921" y="632"/>
      <point x="647" y="746"/>
      <point x="485" y="714" type="curve" smooth="yes"/>
      <point x="338" y="685"/>
      <point x="302" y="542"/>
      <point x="366.926" y="433.461" type="curve"/>
    </contour>
  </outline>
</glyph>
<glyph name="Oacute" format="1">
  <advance width="931"/>
  <unicode hex="00D3"/>
  <outline>
    <contour>
      <point x="448.432" y="775" type="line"/>
      <point x="521.73" y="783.983"/>
      <point x="618.029" y="825.965"/>
      <point x="681.327" y="867.948" type="curve"/>
      <point x="667.947" y="914.184"/>
      <point x="644.568" y="947.419"/>
      <point x="596.188" y="967.655" type="curve"/>
      <point x="551.936" y="929.77"/>
      <point x="469.684" y="847.885"/>
      <point x="441.432" y="782" type="curve"/>
    </contour>
    <contour>
      <point x="378.926" y="433.461" type="line"/>
      <point x="346" y="542"/>
      <point x="382" y="651"/>
      <point x="488" y="664" type="curve" smooth="yes"/>
      <point x="617" y="680"/>
      <point x="700" y="539"/>
      <point x="700" y="355" type="curve" smooth="yes"/>
      <point x="700" y="160"/>
      <point x="606" y="36"/>
      <point x="468" y="36" type="curve" smooth="yes"/>
      <point x="322" y="36"/>
      <point x="231" y="176"/>
      <point x="231" y="387" type="curve" smooth="yes"/>
      <point x="231" y="518"/>
      <point x="266" y="639"/>
      <point x="321.434" y="696.836" type="curve"/>
      <point x="315.434" y="706.836" type="line"/>
      <point x="135" y="676"/>
      <point x="10" y="536"/>
      <point x="10" y="353" type="curve" smooth="yes"/>
      <point x="10" y="133"/>
      <point x="193" y="-14"/>
      <point x="467" y="-14" type="curve" smooth="yes"/>
      <point x="739" y="-14"/>
      <point x="921" y="130"/>
      <point x="921" y="355" type="curve" smooth="yes"/>
      <point x="921" y="632"/>
      <point x="647" y="746"/>
      <point x="485" y="714" type="curve" smooth="yes"/>
      <point x="338" y="685"/>
      <point x="302" y="542"/>
      <point x="366.926" y="433.461" type="curve"/>
    </contour>
  </outline>
</glyph>
<glyph name="Ocircumflex" format="1">
  <advance width="931"/>
  <unicode hex="00D4"/>
  <outline>
    <contour>
      <point x="458.185" y="945.759" type="line"/>
      <point x="470.088" y="945.759" type="line"/>
      <point x="648.532" y="770.241" type="line"/>
      <point x="641.391" y="762.241" type="line"/>
      <point x="463.577" y="826.67" type="line"/>
      <point x="296.458" y="762.337" type="line"/>
      <point x="289.317" y="770.337" type="line"/>
    </contour>
    <contour>
      <point x="378.926" y="433.461" type="line"/>
      <point x="346" y="542"/>
      <point x="382" y="651"/>
      <point x="488" y="664" type="curve" smooth="yes"/>
      <point x="617" y="680"/>
      <point x="700" y="539"/>
      <point x="700" y="355" type="curve" smooth="yes"/>
      <point x="700" y="160"/>
      <point x="606" y="36"/>
      <point x="468" y="36" type="curve" smooth="yes"/>
      <point x="322" y="36"/>
      <point x="231" y="176"/>
      <point x="231" y="387" type="curve" smooth="yes"/>
      <point x="231" y="518"/>
      <point x="266" y="639"/>
      <point x="321.434" y="696.836" type="curve"/>
      <point x="315.434" y="706.836" type="line"/>
      <point x="135" y="676"/>
      <point x="9.99999" y="536"/>
      <point x="9.99999" y="353" type="curve" smooth="yes"/>
      <point x="9.99999" y="133"/>
      <point x="193" y="-14"/>
      <point x="467" y="-14" type="curve" smooth="yes"/>
      <point x="739" y="-14"/>
      <point x="921" y="130"/>
      <point x="921" y="355" type="curve" smooth="yes"/>
      <point x="921" y="632"/>
      <point x="647" y="746"/>
      <point x="485" y="714" type="curve" smooth="yes"/>
      <point x="338" y="685"/>
      <point x="302" y="542"/>
      <point x="366.926" y="433.461" type="curve"/>
    </contour>
  </outline>
</glyph>
<glyph name="Otilde" format="1">
  <advance width="931"/>
  <unicode hex="00D5"/>
  <outline>
    <contour>
      <point x="672.824" y="933.285" type="line"/>
      <point x="694.816" y="884.769"/>
      <point x="656.816" y="777.769"/>
      <point x="556.141" y="778.132" type="curve" smooth="yes"/>
      <point x="493.815" y="778.357"/>
      <point x="459.816" y="821.769"/>
      <point x="394.833" y="832.215" type="curve" smooth="yes"/>
      <point x="350.384" y="839.36"/>
      <point x="311.816" y="802.769"/>
      <point x="302.846" y="781.102" type="curve"/>
      <point x="290.492" y="781.102" type="line"/>
      <point x="275.816" y="834.769"/>
      <point x="309.816" y="942.769"/>
      <point x="407.67" y="942.882" type="curve" smooth="yes"/>
      <point x="465.816" y="942.949"/>
      <point x="496.816" y="899.769"/>
      <point x="569.706" y="889.799" type="curve" smooth="yes"/>
      <point x="614.4" y="883.685"/>
      <point x="653.816" y="916.769"/>
      <point x="660.471" y="933.285" type="curve"/>
    </contour>
    <contour>
      <point x="378.926" y="433.461" type="line"/>
      <point x="346" y="542"/>
      <point x="382" y="651"/>
      <point x="488" y="664" type="curve" smooth="yes"/>
      <point x="617" y="680"/>
      <point x="700" y="539"/>
      <point x="700" y="355" type="curve" smooth="yes"/>
      <point x="700" y="160"/>
      <point x="606" y="36"/>
      <point x="468" y="36" type="curve" smooth="yes"/>
      <point x="322" y="36"/>
      <point x="231" y="176"/>
      <point x="231" y="387" type="curve" smooth="yes"/>
      <point x="231" y="518"/>
      <point x="266" y="639"/>
      <point x="321.434" y="696.836" type="curve"/>
      <point x="315.434" y="706.836" type="line"/>
      <point x="135" y="676"/>
      <point x="9.99994" y="536"/>
      <point x="9.99994" y="353" type="curve" smooth="yes"/>
      <point x="9.99994" y="133"/>
      <point x="193" y="-14"/>
      <point x="467" y="-14" type="curve" smooth="yes"/>
      <point x="739" y="-14"/>
      <point x="921" y="130"/>
      <point x="921" y="355" type="curve" smooth="yes"/>
      <point x="921" y="632"/>
      <point x="647" y="746"/>
      <point x="485" y="714" type="curve" smooth="yes"/>
      <point x="338" y="685"/>
      <point x="302" y="542"/>
      <point x="366.926" y="433.461" type="curve"/>
    </contour>
  </outline>
</glyph>
<glyph name="Oslash" format="1">
  <advance width="905"/>
  <unicode hex="00D8"/>
  <outline>
    <contour>
      <point x="765.701" y="691.577" type="line"/>
      <point x="722.389" y="726.336" type="line"/>
      <point x="686.345" y="684.43" type="line"/>
      <point x="612.387" y="716.874"/>
      <point x="532.783" y="726.402"/>
      <point x="470" y="714" type="curve" smooth="yes"/>
      <point x="323" y="685"/>
      <point x="287" y="542"/>
      <point x="351.926" y="433.461" type="curve"/>
      <point x="363.926" y="433.461" type="line"/>
      <point x="331" y="542"/>
      <point x="367" y="651"/>
      <point x="473" y="664" type="curve" smooth="yes"/>
      <point x="530.645" y="671.15"/>
      <point x="579.104" y="646.949"/>
      <point x="615.077" y="601.57" type="curve"/>
      <point x="253.412" y="181.082" type="line"/>
      <point x="229.128" y="236.958"/>
      <point x="216" y="306.857"/>
      <point x="216" y="387" type="curve" smooth="yes"/>
      <point x="216" y="518"/>
      <point x="251" y="639"/>
      <point x="306.434" y="696.836" type="curve"/>
      <point x="300.434" y="706.836" type="line"/>
      <point x="120" y="676"/>
      <point x="-5" y="536"/>
      <point x="-5" y="353" type="curve" smooth="yes"/>
      <point x="-5" y="229.101"/>
      <point x="53.0423" y="128.355"/>
      <point x="152.693" y="63.9811" type="curve"/>
      <point x="108.844" y="13" type="line"/>
      <point x="152.854" y="-23" type="line"/>
      <point x="203.468" y="36.0155" type="line"/>
      <point x="272.79" y="3.70292"/>
      <point x="356.915" y="-14"/>
      <point x="452" y="-14" type="curve" smooth="yes"/>
      <point x="724" y="-14"/>
      <point x="906" y="130"/>
      <point x="906" y="355" type="curve" smooth="yes"/>
      <point x="906" y="499.613"/>
      <point x="831.32" y="599.799"/>
      <point x="736.885" y="657.978" type="curve"/>
    </contour>
    <contour>
      <point x="645.733" y="551.695" type="line"/>
      <point x="671.062" y="498.58"/>
      <point x="685" y="430.401"/>
      <point x="685" y="355" type="curve" smooth="yes"/>
      <point x="685" y="160"/>
      <point x="591" y="35.9999"/>
      <point x="453" y="35.9999" type="curve" smooth="yes"/>
      <point x="381.654" y="35.9999"/>
      <point x="323.443" y="69.4317"/>
      <point x="282.566" y="128.243" type="curve"/>
    </contour>
    <contour>
      <point x="450.432" y="778" type="move" name="top"/>
    </contour>
  </outline>
</glyph>
<glyph name="Ugrave" format="1">
  <advance width="852"/>
  <unicode hex="00D9"/>
  <outline>
    <contour>
      <point x="526.9" y="770.906" type="line"/>
      <point x="498.648" y="836.791"/>
      <point x="416.396" y="918.676"/>
      <point x="372.144" y="956.561" type="curve"/>
      <point x="323.764" y="936.325"/>
      <point x="300.385" y="903.09"/>
      <point x="287.005" y="856.854" type="curve"/>
      <point x="350.303" y="814.871"/>
      <point x="446.602" y="772.889"/>
      <point x="519.9" y="763.906" type="curve"/>
    </contour>
    <contour>
      <point x="689.334" y="247.399" type="line" smooth="yes"/>
      <point x="689" y="110"/>
      <point x="605" y="37"/>
      <point x="497.571" y="37.495" type="curve" smooth="yes"/>
      <point x="382" y="37"/>
      <point x="304" y="120"/>
      <point x="304.088" y="260.292" type="curve" smooth="yes"/>
      <point x="304.088" y="642.552" type="line"/>
      <point x="305.137" y="667.273"/>
      <point x="325.855" y="690"/>
      <point x="356.814" y="690.017" type="curve" smooth="yes"/>
      <point x="373.11" y="690" type="line"/>
      <point x="373.11" y="700" type="line"/>
      <point x="30" y="700" type="line"/>
      <point x="30" y="690" type="line"/>
      <point x="46" y="690" type="line" smooth="yes"/>
      <point x="75.183" y="690.017"/>
      <point x="98.619" y="669.255"/>
      <point x="99.161" y="640.499" type="curve" smooth="yes"/>
      <point x="99.161" y="255.596" type="line" smooth="yes"/>
      <point x="96" y="92"/>
      <point x="228" y="-14"/>
      <point x="451" y="-14" type="curve" smooth="yes"/>
      <point x="663" y="-14"/>
      <point x="773" y="81.9999"/>
      <point x="775.973" y="257.34" type="curve" smooth="yes"/>
      <point x="775.973" y="629.976" type="line" smooth="yes"/>
      <point x="776.008" y="790"/>
      <point x="835.811" y="895.235"/>
      <point x="957.929" y="911.398" type="curve"/>
      <point x="957.929" y="921.398" type="line"/>
      <point x="792.71" y="940.132"/>
      <point x="689.334" y="790"/>
      <point x="689.334" y="629.976" type="curve" smooth="yes"/>
    </contour>
  </outline>
</glyph>
<glyph name="Uacute" format="1">
  <advance width="852"/>
  <unicode hex="00DA"/>
  <outline>
    <contour>
      <point x="482.994" y="761" type="line"/>
      <point x="556.292" y="769.983"/>
      <point x="652.591" y="811.965"/>
      <point x="715.889" y="853.948" type="curve"/>
      <point x="702.509" y="900.184"/>
      <point x="679.13" y="933.419"/>
      <point x="630.75" y="953.655" type="curve"/>
      <point x="586.498" y="915.77"/>
      <point x="504.246" y="833.885"/>
      <point x="475.994" y="768" type="curve"/>
    </contour>
    <contour>
      <point x="689.334" y="247.399" type="line" smooth="yes"/>
      <point x="689" y="110"/>
      <point x="605" y="37"/>
      <point x="497.571" y="37.495" type="curve" smooth="yes"/>
      <point x="382" y="37"/>
      <point x="304" y="120"/>
      <point x="304.088" y="260.292" type="curve" smooth="yes"/>
      <point x="304.088" y="642.552" type="line"/>
      <point x="305.137" y="667.273"/>
      <point x="325.855" y="690"/>
      <point x="356.814" y="690.017" type="curve" smooth="yes"/>
      <point x="373.11" y="690" type="line"/>
      <point x="373.11" y="700" type="line"/>
      <point x="30" y="700" type="line"/>
      <point x="30" y="690" type="line"/>
      <point x="46" y="690" type="line" smooth="yes"/>
      <point x="75.183" y="690.017"/>
      <point x="98.619" y="669.255"/>
      <point x="99.161" y="640.499" type="curve" smooth="yes"/>
      <point x="99.161" y="255.596" type="line" smooth="yes"/>
      <point x="96" y="92"/>
      <point x="228" y="-14"/>
      <point x="451" y="-14" type="curve" smooth="yes"/>
      <point x="663" y="-14"/>
      <point x="773" y="81.9999"/>
      <point x="775.973" y="257.34" type="curve" smooth="yes"/>
      <point x="775.973" y="629.976" type="line" smooth="yes"/>
      <point x="776.008" y="790"/>
      <point x="835.811" y="895.235"/>
      <point x="957.929" y="911.398" type="curve"/>
      <point x="957.929" y="921.398" type="line"/>
      <point x="792.71" y="940.132"/>
      <point x="689.334" y="790"/>
      <point x="689.334" y="629.976" type="curve" smooth="yes"/>
    </contour>
  </outline>
</glyph>
<glyph name="Ucircumflex" format="1">
  <advance width="852"/>
  <unicode hex="00DB"/>
  <outline>
    <contour>
      <point x="492.747" y="931.759" type="line"/>
      <point x="504.65" y="931.759" type="line"/>
      <point x="683.094" y="756.241" type="line"/>
      <point x="675.953" y="748.241" type="line"/>
      <point x="498.139" y="812.67" type="line"/>
      <point x="331.02" y="748.337" type="line"/>
      <point x="323.879" y="756.337" type="line"/>
    </contour>
    <contour>
      <point x="689.334" y="247.399" type="line" smooth="yes"/>
      <point x="689" y="110"/>
      <point x="605" y="37"/>
      <point x="497.571" y="37.495" type="curve" smooth="yes"/>
      <point x="382" y="37"/>
      <point x="304" y="120"/>
      <point x="304.088" y="260.292" type="curve" smooth="yes"/>
      <point x="304.088" y="642.552" type="line"/>
      <point x="305.137" y="667.273"/>
      <point x="325.855" y="690"/>
      <point x="356.814" y="690.017" type="curve" smooth="yes"/>
      <point x="373.11" y="690" type="line"/>
      <point x="373.11" y="700" type="line"/>
      <point x="30" y="700" type="line"/>
      <point x="30" y="690" type="line"/>
      <point x="46" y="690" type="line" smooth="yes"/>
      <point x="75.183" y="690.017"/>
      <point x="98.619" y="669.255"/>
      <point x="99.161" y="640.499" type="curve" smooth="yes"/>
      <point x="99.161" y="255.596" type="line" smooth="yes"/>
      <point x="96" y="92"/>
      <point x="228" y="-14"/>
      <point x="451" y="-14" type="curve" smooth="yes"/>
      <point x="663" y="-14"/>
      <point x="773" y="81.9999"/>
      <point x="775.973" y="257.34" type="curve" smooth="yes"/>
      <point x="775.973" y="629.976" type="line" smooth="yes"/>
      <point x="776.008" y="790"/>
      <point x="835.811" y="895.235"/>
      <point x="957.929" y="911.398" type="curve"/>
      <point x="957.929" y="921.398" type="line"/>
      <point x="792.71" y="940.132"/>
      <point x="689.334" y="790"/>
      <point x="689.334" y="629.976" type="curve" smooth="yes"/>
    </contour>
  </outline>
</glyph>
<glyph name="Yacute" format="1">
  <advance width="699"/>
  <unicode hex="00DD"/>
  <outline>
    <contour>
      <point x="347.859" y="761" type="line"/>
      <point x="421.157" y="769.983"/>
      <point x="517.456" y="811.965"/>
      <point x="580.754" y="853.948" type="curve"/>
      <point x="567.374" y="900.184"/>
      <point x="543.995" y="933.419"/>
      <point x="495.615" y="953.655" type="curve"/>
      <point x="451.363" y="915.77"/>
      <point x="369.111" y="833.885"/>
      <point x="340.859" y="768" type="curve"/>
    </contour>
    <contour>
      <point x="-85" y="749" type="line"/>
      <point x="101.854" y="733.427"/>
      <point x="215.757" y="467.855"/>
      <point x="245.757" y="322.282" type="curve"/>
      <point x="245.757" y="72.707" type="line" smooth="yes"/>
      <point x="245.044" y="37.9159"/>
      <point x="216.08" y="9.99983"/>
      <point x="182.131" y="9.99983" type="curve" smooth="yes"/>
      <point x="169.019" y="9.99983" type="line"/>
      <point x="168.858" y="0" type="line"/>
      <point x="527.605" y="0" type="line"/>
      <point x="527.444" y="9.99983" type="line"/>
      <point x="515.131" y="9.99983" type="line" smooth="yes"/>
      <point x="478.131" y="9.99983"/>
      <point x="451.131" y="39.9998"/>
      <point x="450.74" y="72.8638" type="curve"/>
      <point x="450.74" y="321.754" type="line"/>
      <point x="470.727" y="467.502"/>
      <point x="610.221" y="743.251"/>
      <point x="739.968" y="749" type="curve"/>
      <point x="739.968" y="759" type="line"/>
      <point x="599.39" y="769.586"/>
      <point x="468.813" y="610.171"/>
      <point x="418.235" y="460.757" type="curve"/>
      <point x="345.823" y="660.171"/>
      <point x="159.412" y="779.586"/>
      <point x="-85" y="759" type="curve"/>
    </contour>
  </outline>
</glyph>
<glyph name="germandbls" format="1">
  <advance width="1290"/>
  <unicode hex="00DF"/>
  <outline>
    <contour>
      <point x="302.739" y="486.53" type="line" smooth="yes"/>
      <point x="253.027" y="509"/>
      <point x="210.027" y="532"/>
      <point x="214.027" y="580" type="curve" smooth="yes"/>
      <point x="218.027" y="629"/>
      <point x="268.027" y="664"/>
      <point x="350.027" y="664" type="curve" smooth="yes"/>
      <point x="449.027" y="664"/>
      <point x="509.027" y="614"/>
      <point x="509.436" y="541.034" type="curve"/>
      <point x="519.065" y="541.034" type="line"/>
      <point x="540.643" y="703.741" type="line"/>
      <point x="462.832" y="703.741" type="line"/>
      <point x="404.803" y="709.529"/>
      <point x="330.041" y="714"/>
      <point x="294.027" y="714" type="curve" smooth="yes"/>
      <point x="160.027" y="714"/>
      <point x="75.027" y="651"/>
      <point x="61.027" y="535" type="curve" smooth="yes"/>
      <point x="49.027" y="440"/>
      <point x="92.027" y="362"/>
      <point x="183.593" y="319.61" type="curve" smooth="yes"/>
      <point x="346.644" y="244.285" type="line" smooth="yes"/>
      <point x="423.027" y="209"/>
      <point x="453.027" y="176"/>
      <point x="452.924" y="134.476" type="curve" smooth="yes"/>
      <point x="453.027" y="83"/>
      <point x="408.027" y="36"/>
      <point x="312.027" y="36" type="curve" smooth="yes"/>
      <point x="172.027" y="36"/>
      <point x="88.027" y="135"/>
      <point x="94.729" y="240.047" type="curve"/>
      <point x="85.937" y="240.047" type="line"/>
      <point x="52.704" y="197.21"/>
      <point x="31.924" y="99.51"/>
      <point x="54.377" y="50.639" type="curve"/>
      <point x="89.027" y="15"/>
      <point x="175.027" y="-14"/>
      <point x="291.027" y="-14" type="curve" smooth="yes"/>
      <point x="480.027" y="-14"/>
      <point x="595.027" y="63"/>
      <point x="605.027" y="206" type="curve" smooth="yes"/>
      <point x="612.027" y="303"/>
      <point x="564.027" y="366"/>
      <point x="489.639" y="400.221" type="curve" smooth="yes"/>
    </contour>
    <contour>
      <point x="947.739" y="486.53" type="line" smooth="yes"/>
      <point x="898.027" y="509"/>
      <point x="855.027" y="532"/>
      <point x="859.027" y="580" type="curve" smooth="yes"/>
      <point x="863.027" y="629"/>
      <point x="913.027" y="664"/>
      <point x="995.027" y="664" type="curve" smooth="yes"/>
      <point x="1094.03" y="664"/>
      <point x="1154.03" y="614"/>
      <point x="1154.44" y="541.034" type="curve"/>
      <point x="1164.06" y="541.034" type="line"/>
      <point x="1185.64" y="703.741" type="line"/>
      <point x="1107.83" y="703.741" type="line"/>
      <point x="1049.8" y="709.529"/>
      <point x="975.041" y="714"/>
      <point x="939.027" y="714" type="curve" smooth="yes"/>
      <point x="805.027" y="714"/>
      <point x="720.027" y="651"/>
      <point x="706.027" y="535" type="curve" smooth="yes"/>
      <point x="694.027" y="440"/>
      <point x="737.027" y="362"/>
      <point x="828.593" y="319.61" type="curve" smooth="yes"/>
      <point x="991.644" y="244.285" type="line" smooth="yes"/>
      <point x="1068.03" y="209"/>
      <point x="1098.03" y="176"/>
      <point x="1097.92" y="134.476" type="curve" smooth="yes"/>
      <point x="1098.03" y="83"/>
      <point x="1053.03" y="36"/>
      <point x="957.027" y="36" type="curve" smooth="yes"/>
      <point x="817.027" y="36"/>
      <point x="733.027" y="135"/>
      <point x="739.729" y="240.047" type="curve"/>
      <point x="730.937" y="240.047" type="line"/>
      <point x="697.704" y="197.21"/>
      <point x="676.924" y="99.51"/>
      <point x="699.377" y="50.639" type="curve"/>
      <point x="734.027" y="15"/>
      <point x="820.027" y="-14"/>
      <point x="936.027" y="-14" type="curve" smooth="yes"/>
      <point x="1125.03" y="-14"/>
      <point x="1240.03" y="63"/>
      <point x="1250.03" y="206" type="curve" smooth="yes"/>
      <point x="1257.03" y="303"/>
      <point x="1209.03" y="366"/>
      <point x="1134.64" y="400.221" type="curve" smooth="yes"/>
    </contour>
  </outline>
</glyph>
<glyph name="agrave" format="1">
  <advance width="720"/>
  <unicode hex="00E0"/>
  <outline>
    <contour>
      <point x="377.187" y="770.906" type="line"/>
      <point x="348.935" y="836.791"/>
      <point x="266.683" y="918.676"/>
      <point x="222.431" y="956.561" type="curve"/>
      <point x="174.051" y="936.325"/>
      <point x="150.672" y="903.09"/>
      <point x="137.292" y="856.854" type="curve"/>
      <point x="200.59" y="814.871"/>
      <point x="296.889" y="772.889"/>
      <point x="370.187" y="763.906" type="curve"/>
    </contour>
    <contour>
      <point x="351.414" y="724" type="line"/>
      <point x="342.408" y="724" type="line"/>
      <point x="338.408" y="690.283"/>
      <point x="297.112" y="599.922"/>
      <point x="285.361" y="574.867" type="curve" smooth="yes"/>
      <point x="52.024" y="64.031" type="line"/>
      <point x="30.4069" y="25.9675"/>
      <point x="-3" y="10"/>
      <point x="-31" y="10" type="curve" smooth="yes"/>
      <point x="-40" y="10" type="line"/>
      <point x="-40" y="0" type="line"/>
      <point x="183.279" y="0" type="line"/>
      <point x="183.279" y="9.90813" type="line"/>
      <point x="174.487" y="9.90813" type="line" smooth="yes"/>
      <point x="148.67" y="9.90813"/>
      <point x="118.49" y="32.6641"/>
      <point x="136.092" y="72.6811" type="curve" smooth="yes"/>
      <point x="176.25" y="166" type="line"/>
      <point x="389.737" y="166" type="line"/>
      <point x="428.742" y="72.6819" type="line" smooth="yes"/>
      <point x="444.745" y="32.6641"/>
      <point x="415.815" y="9.91113"/>
      <point x="389.999" y="9.91113" type="curve" smooth="yes"/>
      <point x="381.207" y="9.91113" type="line"/>
      <point x="381.207" y="0" type="line"/>
      <point x="760.264" y="0" type="line"/>
      <point x="760.264" y="10" type="line"/>
      <point x="751.901" y="10" type="line" smooth="yes"/>
      <point x="723.121" y="10"/>
      <point x="690.494" y="26.2829"/>
      <point x="668.231" y="65.159" type="curve"/>
    </contour>
    <contour>
      <point x="198.048" y="216" type="line"/>
      <point x="285.24" y="416.01" type="line"/>
      <point x="368.839" y="216" type="line"/>
    </contour>
  </outline>
</glyph>
<glyph name="acircumflex" format="1">
  <advance width="720"/>
  <unicode hex="00E2"/>
  <outline>
    <contour>
      <point x="343.034" y="931.759" type="line"/>
      <point x="354.937" y="931.759" type="line"/>
      <point x="533.381" y="756.241" type="line"/>
      <point x="526.24" y="748.241" type="line"/>
      <point x="348.426" y="812.67" type="line"/>
      <point x="181.307" y="748.337" type="line"/>
      <point x="174.166" y="756.337" type="line"/>
    </contour>
    <contour>
      <point x="351.414" y="724" type="line"/>
      <point x="342.408" y="724" type="line"/>
      <point x="338.408" y="690.283"/>
      <point x="297.112" y="599.922"/>
      <point x="285.361" y="574.867" type="curve" smooth="yes"/>
      <point x="52.024" y="64.031" type="line"/>
      <point x="30.4069" y="25.9675"/>
      <point x="-3" y="10"/>
      <point x="-31" y="10" type="curve" smooth="yes"/>
      <point x="-40" y="10" type="line"/>
      <point x="-40" y="0" type="line"/>
      <point x="183.279" y="0" type="line"/>
      <point x="183.279" y="9.90809" type="line"/>
      <point x="174.487" y="9.90809" type="line" smooth="yes"/>
      <point x="148.67" y="9.90809"/>
      <point x="118.49" y="32.6641"/>
      <point x="136.092" y="72.6811" type="curve" smooth="yes"/>
      <point x="176.25" y="166" type="line"/>
      <point x="389.737" y="166" type="line"/>
      <point x="428.742" y="72.6819" type="line" smooth="yes"/>
      <point x="444.745" y="32.6641"/>
      <point x="415.815" y="9.91109"/>
      <point x="389.999" y="9.91109" type="curve" smooth="yes"/>
      <point x="381.207" y="9.91109" type="line"/>
      <point x="381.207" y="0" type="line"/>
      <point x="760.264" y="0" type="line"/>
      <point x="760.264" y="10" type="line"/>
      <point x="751.901" y="10" type="line" smooth="yes"/>
      <point x="723.121" y="10"/>
      <point x="690.494" y="26.2829"/>
      <point x="668.231" y="65.159" type="curve"/>
    </contour>
    <contour>
      <point x="198.048" y="216" type="line"/>
      <point x="285.24" y="416.01" type="line"/>
      <point x="368.839" y="216" type="line"/>
    </contour>
  </outline>
</glyph>
<glyph name="atilde" format="1">
  <advance width="720"/>
  <unicode hex="00E3"/>
  <outline>
    <contour>
      <point x="557.673" y="919.285" type="line"/>
      <point x="579.665" y="870.769"/>
      <point x="541.665" y="763.769"/>
      <point x="440.99" y="764.132" type="curve" smooth="yes"/>
      <point x="378.664" y="764.357"/>
      <point x="344.665" y="807.769"/>
      <point x="279.682" y="818.215" type="curve" smooth="yes"/>
      <point x="235.233" y="825.36"/>
      <point x="196.665" y="788.769"/>
      <point x="187.695" y="767.102" type="curve"/>
      <point x="175.341" y="767.102" type="line"/>
      <point x="160.665" y="820.769"/>
      <point x="194.665" y="928.769"/>
      <point x="292.519" y="928.882" type="curve" smooth="yes"/>
      <point x="350.665" y="928.949"/>
      <point x="381.665" y="885.769"/>
      <point x="454.555" y="875.799" type="curve" smooth="yes"/>
      <point x="499.249" y="869.685"/>
      <point x="538.665" y="902.769"/>
      <point x="545.32" y="919.285" type="curve"/>
    </contour>
    <contour>
      <point x="351.414" y="724" type="line"/>
      <point x="342.408" y="724" type="line"/>
      <point x="338.408" y="690.283"/>
      <point x="297.112" y="599.922"/>
      <point x="285.361" y="574.867" type="curve" smooth="yes"/>
      <point x="52.024" y="64.031" type="line"/>
      <point x="30.4069" y="25.9675"/>
      <point x="-3" y="10"/>
      <point x="-31" y="10" type="curve" smooth="yes"/>
      <point x="-40" y="10" type="line"/>
      <point x="-40" y="0" type="line"/>
      <point x="183.279" y="0" type="line"/>
      <point x="183.279" y="9.9081" type="line"/>
      <point x="174.487" y="9.9081" type="line" smooth="yes"/>
      <point x="148.67" y="9.9081"/>
      <point x="118.49" y="32.6641"/>
      <point x="136.092" y="72.6811" type="curve" smooth="yes"/>
      <point x="176.25" y="166" type="line"/>
      <point x="389.737" y="166" type="line"/>
      <point x="428.742" y="72.6819" type="line" smooth="yes"/>
      <point x="444.745" y="32.6641"/>
      <point x="415.815" y="9.9111"/>
      <point x="389.999" y="9.9111" type="curve" smooth="yes"/>
      <point x="381.207" y="9.9111" type="line"/>
      <point x="381.207" y="0" type="line"/>
      <point x="760.264" y="0" type="line"/>
      <point x="760.264" y="10" type="line"/>
      <point x="751.901" y="10" type="line" smooth="yes"/>
      <point x="723.121" y="10"/>
      <point x="690.494" y="26.2829"/>
      <point x="668.231" y="65.159" type="curve"/>
    </contour>
    <contour>
      <point x="198.048" y="216" type="line"/>
      <point x="285.24" y="416.01" type="line"/>
      <point x="368.839" y="216" type="line"/>
    </contour>
  </outline>
</glyph>
<glyph name="aring" format="1">
  <advance width="720"/>
  <unicode hex="00E5"/>
  <outline>
    <contour>
      <point x="282.098" y="941.629"/>
      <point x="231.068" y="903.357"/>
      <point x="231.063" y="852.328" type="curve" smooth="yes"/>
      <point x="231.059" y="801.294"/>
      <point x="281.616" y="763.022"/>
      <point x="349.031" y="763.026" type="curve" smooth="yes"/>
      <point x="416.425" y="763.03"/>
      <point x="466.982" y="802.249"/>
      <point x="466.998" y="854.534" type="curve" smooth="yes"/>
      <point x="467.015" y="904.306"/>
      <point x="416.93" y="941.633"/>
      <point x="350.133" y="941.631" type="curve" smooth="yes"/>
    </contour>
    <contour>
      <point x="378.645" y="911.877"/>
      <point x="400.853" y="886.362"/>
      <point x="400.848" y="852.328" type="curve" smooth="yes"/>
      <point x="400.844" y="818.946"/>
      <point x="378.636" y="793.904"/>
      <point x="349.031" y="793.896" type="curve" smooth="yes"/>
      <point x="320.046" y="793.888"/>
      <point x="298.312" y="818.93"/>
      <point x="298.316" y="852.328" type="curve" smooth="yes"/>
      <point x="298.32" y="886.335"/>
      <point x="320.056" y="911.85"/>
      <point x="349.031" y="911.864" type="curve" smooth="yes"/>
    </contour>
    <contour>
      <point x="351.414" y="724" type="line"/>
      <point x="342.408" y="724" type="line"/>
      <point x="338.408" y="690.283"/>
      <point x="297.112" y="599.922"/>
      <point x="285.361" y="574.867" type="curve" smooth="yes"/>
      <point x="52.024" y="64.031" type="line"/>
      <point x="30.4069" y="25.9675"/>
      <point x="-3" y="10"/>
      <point x="-31" y="10" type="curve" smooth="yes"/>
      <point x="-40" y="10" type="line"/>
      <point x="-40" y="0" type="line"/>
      <point x="183.279" y="0" type="line"/>
      <point x="183.279" y="9.9081" type="line"/>
      <point x="174.487" y="9.9081" type="line" smooth="yes"/>
      <point x="148.67" y="9.9081"/>
      <point x="118.49" y="32.6641"/>
      <point x="136.092" y="72.6811" type="curve" smooth="yes"/>
      <point x="176.25" y="166" type="line"/>
      <point x="389.737" y="166" type="line"/>
      <point x="428.742" y="72.6819" type="line" smooth="yes"/>
      <point x="444.745" y="32.6641"/>
      <point x="415.815" y="9.9111"/>
      <point x="389.999" y="9.9111" type="curve" smooth="yes"/>
      <point x="381.207" y="9.9111" type="line"/>
      <point x="381.207" y="0" type="line"/>
      <point x="760.264" y="0" type="line"/>
      <point x="760.264" y="10" type="line"/>
      <point x="751.901" y="10" type="line" smooth="yes"/>
      <point x="723.121" y="10"/>
      <point x="690.494" y="26.2829"/>
      <point x="668.231" y="65.159" type="curve"/>
    </contour>
    <contour>
      <point x="198.048" y="216" type="line"/>
      <point x="285.24" y="416.01" type="line"/>
      <point x="368.839" y="216" type="line"/>
    </contour>
  </outline>
</glyph>
<glyph name="ae" format="1">
  <advance width="1014"/>
  <unicode hex="00E6"/>
  <outline>
    <contour>
      <point x="991.417" y="231.543" type="line"/>
      <point x="960.325" y="117.359"/>
      <point x="879.855" y="50.592"/>
      <point x="783.892" y="50.592" type="curve" smooth="yes"/>
      <point x="670.588" y="50.592" type="line"/>
      <point x="670.588" y="317.218" type="line"/>
      <point x="774.49" y="317.218" type="line"/>
      <point x="835.312" y="313.797"/>
      <point x="878.053" y="269.275"/>
      <point x="877.847" y="208.134" type="curve" smooth="yes"/>
      <point x="877.831" y="203.4" type="line"/>
      <point x="887.604" y="203.276" type="line"/>
      <point x="887.604" y="481.235" type="line"/>
      <point x="877.831" y="481.11" type="line"/>
      <point x="877.848" y="476.376" type="line" smooth="yes"/>
      <point x="878.069" y="414.721"/>
      <point x="834.653" y="369.966"/>
      <point x="772.938" y="367.218" type="curve"/>
      <point x="670.588" y="367.218" type="line"/>
      <point x="670.588" y="649.409" type="line"/>
      <point x="805.45" y="649.409" type="line"/>
      <point x="884.221" y="646.525"/>
      <point x="930.528" y="598.564"/>
      <point x="930.337" y="519.891" type="curve" smooth="yes"/>
      <point x="930.318" y="512.067" type="line"/>
      <point x="940.418" y="511.917" type="line"/>
      <point x="940.383" y="718.187" type="line"/>
      <point x="921.824" y="710.366"/>
      <point x="864.252" y="700.407"/>
      <point x="821.153" y="700" type="curve" smooth="yes"/>
      <point x="426.553" y="700" type="line"/>
      <point x="426.553" y="690" type="line"/>
      <point x="431.553" y="690" type="line" smooth="yes"/>
      <point x="456.779" y="690"/>
      <point x="471.068" y="667.91"/>
      <point x="453.227" y="640.789" type="curve" smooth="yes"/>
      <point x="62.1854" y="70.9895" type="line" smooth="yes"/>
      <point x="31.5905" y="27.9042"/>
      <point x="5.4557" y="10"/>
      <point x="-24" y="10" type="curve" smooth="yes"/>
      <point x="-33" y="10" type="line"/>
      <point x="-33" y="0" type="line"/>
      <point x="204.972" y="0" type="line"/>
      <point x="204.972" y="9.908" type="line"/>
      <point x="196.18" y="9.908" type="line" smooth="yes"/>
      <point x="170.363" y="9.908"/>
      <point x="133.183" y="32.664"/>
      <point x="157.785" y="72.681" type="curve" smooth="yes"/>
      <point x="309.257" y="317.218" type="line"/>
      <point x="465.555" y="317.218" type="line"/>
      <point x="465.555" y="58.357" type="line" smooth="yes"/>
      <point x="465.046" y="31.561"/>
      <point x="443.202" y="9.98401"/>
      <point x="416.278" y="9.98401" type="curve" smooth="yes"/>
      <point x="406.547" y="10" type="line"/>
      <point x="406.423" y="0" type="line"/>
      <point x="963.129" y="0" type="line"/>
      <point x="1001.42" y="231.543" type="line"/>
    </contour>
    <contour>
      <point x="340.237" y="367.218" type="line"/>
      <point x="465.555" y="569.475" type="line"/>
      <point x="465.555" y="367.218" type="line"/>
    </contour>
    <contour>
      <point x="300" y="498.381" type="move" name="top"/>
    </contour>
  </outline>
</glyph>
<glyph name="edieresis" format="1">
  <advance width="666"/>
  <unicode hex="00EB"/>
  <outline>
    <contour>
      <point x="244.895" y="755.486"/>
      <point x="277.885" y="788.476"/>
      <point x="277.885" y="829.174" type="curve" smooth="yes"/>
      <point x="277.885" y="869.872"/>
      <point x="244.895" y="902.863"/>
      <point x="204.198" y="902.863" type="curve" smooth="yes"/>
      <point x="163.5" y="902.863"/>
      <point x="130.51" y="869.872"/>
      <point x="130.51" y="829.174" type="curve" smooth="yes"/>
      <point x="130.51" y="788.476"/>
      <point x="163.5" y="755.486"/>
      <point x="204.198" y="755.486" type="curve" smooth="yes"/>
    </contour>
    <contour>
      <point x="507.493" y="755.486"/>
      <point x="540.482" y="788.476"/>
      <point x="540.482" y="829.174" type="curve" smooth="yes"/>
      <point x="540.482" y="869.872"/>
      <point x="507.493" y="902.863"/>
      <point x="466.795" y="902.863" type="curve" smooth="yes"/>
      <point x="426.097" y="902.863"/>
      <point x="393.107" y="869.872"/>
      <point x="393.107" y="829.174" type="curve" smooth="yes"/>
      <point x="393.107" y="788.476"/>
      <point x="426.097" y="755.486"/>
      <point x="466.795" y="755.486" type="curve" smooth="yes"/>
    </contour>
    <contour>
      <point x="642.845" y="231.543" type="line"/>
      <point x="611.753" y="117.359"/>
      <point x="531.283" y="50.592"/>
      <point x="435.32" y="50.592" type="curve" smooth="yes"/>
      <point x="311.901" y="50.592" type="line"/>
      <point x="311.901" y="320.218" type="line"/>
      <point x="422.202" y="320.218" type="line" smooth="yes"/>
      <point x="484.992" y="318.435"/>
      <point x="529.486" y="273.356"/>
      <point x="529.275" y="210.977" type="curve" smooth="yes"/>
      <point x="529.259" y="206.243" type="line"/>
      <point x="539.032" y="206.119" type="line"/>
      <point x="539.032" y="484.375" type="line"/>
      <point x="529.259" y="484.25" type="line"/>
      <point x="529.276" y="479.516" type="line" smooth="yes"/>
      <point x="529.501" y="416.714"/>
      <point x="484.451" y="371.446"/>
      <point x="420.904" y="370.248" type="curve" smooth="yes"/>
      <point x="311.901" y="370.248" type="line"/>
      <point x="311.901" y="649.409" type="line"/>
      <point x="456.878" y="649.409" type="line"/>
      <point x="535.649" y="646.525"/>
      <point x="581.956" y="598.564"/>
      <point x="581.765" y="519.891" type="curve" smooth="yes"/>
      <point x="581.746" y="512.067" type="line"/>
      <point x="591.846" y="511.917" type="line"/>
      <point x="591.846" y="718.187" type="line"/>
      <point x="573.253" y="710.366"/>
      <point x="515.681" y="700.407"/>
      <point x="472.581" y="700" type="curve" smooth="yes"/>
      <point x="30.0069" y="700" type="line"/>
      <point x="30.1689" y="690.06" type="line"/>
      <point x="42.8189" y="690.08" type="line" smooth="yes"/>
      <point x="77.7589" y="690.08"/>
      <point x="106.118" y="662.128"/>
      <point x="106.869" y="627.378" type="curve" smooth="yes"/>
      <point x="106.869" y="72.8641" type="line" smooth="yes"/>
      <point x="106.21" y="38.0291"/>
      <point x="77.813" y="9.9791"/>
      <point x="42.811" y="9.9791" type="curve" smooth="yes"/>
      <point x="30.161" y="10" type="line"/>
      <point x="29.9999" y="0" type="line"/>
      <point x="614.557" y="0" type="line"/>
      <point x="652.845" y="231.543" type="line"/>
    </contour>
  </outline>
</glyph>
<glyph name="igrave" format="1">
  <advance width="418"/>
  <unicode hex="00EC"/>
  <outline>
    <contour>
      <point x="235.212" y="770.906" type="line"/>
      <point x="206.96" y="836.791"/>
      <point x="124.708" y="918.676"/>
      <point x="80.4559" y="956.561" type="curve"/>
      <point x="32.0759" y="936.325"/>
      <point x="8.6969" y="903.09"/>
      <point x="-5" y="856.854" type="curve"/>
      <point x="58.6149" y="814.871"/>
      <point x="154.914" y="772.889"/>
      <point x="228.212" y="763.906" type="curve"/>
    </contour>
    <contour>
      <point x="388.626" y="10" type="line"/>
      <point x="375.976" y="9.979" type="line" smooth="yes"/>
      <point x="340.974" y="9.979"/>
      <point x="312.577" y="38.029"/>
      <point x="311.922" y="72.864" type="curve"/>
      <point x="311.922" y="627.818" type="line" smooth="yes"/>
      <point x="312.9" y="662.363"/>
      <point x="341.167" y="690.08"/>
      <point x="375.959" y="690.08" type="curve" smooth="yes"/>
      <point x="388.609" y="690.06" type="line"/>
      <point x="388.771" y="700.06" type="line"/>
      <point x="30.016" y="700.06" type="line"/>
      <point x="30.178" y="690.06" type="line"/>
      <point x="42.828" y="690.08" type="line" smooth="yes"/>
      <point x="77.6917" y="690.08"/>
      <point x="106.003" y="662.25"/>
      <point x="106.873" y="627.606" type="curve" smooth="yes"/>
      <point x="106.873" y="72.864" type="line" smooth="yes"/>
      <point x="106.21" y="38.029"/>
      <point x="77.8129" y="9.97897"/>
      <point x="42.8109" y="9.97897" type="curve" smooth="yes"/>
      <point x="30.1609" y="9.99987" type="line"/>
      <point x="29.9999" y="0" type="line"/>
      <point x="388.787" y="0" type="line"/>
    </contour>
  </outline>
</glyph>
<glyph name="iacute" format="1">
  <advance width="418"/>
  <unicode hex="00ED"/>
  <outline>
    <contour>
      <point x="191.306" y="761" type="line"/>
      <point x="264.604" y="769.983"/>
      <point x="360.903" y="811.965"/>
      <point x="424.201" y="853.948" type="curve"/>
      <point x="410.821" y="900.184"/>
      <point x="387.442" y="933.419"/>
      <point x="339.062" y="953.655" type="curve"/>
      <point x="294.81" y="915.77"/>
      <point x="212.558" y="833.885"/>
      <point x="184.306" y="768" type="curve"/>
    </contour>
    <contour>
      <point x="388.626" y="10" type="line"/>
      <point x="375.976" y="9.979" type="line" smooth="yes"/>
      <point x="340.974" y="9.979"/>
      <point x="312.577" y="38.029"/>
      <point x="311.922" y="72.864" type="curve"/>
      <point x="311.922" y="627.818" type="line" smooth="yes"/>
      <point x="312.9" y="662.363"/>
      <point x="341.167" y="690.08"/>
      <point x="375.959" y="690.08" type="curve" smooth="yes"/>
      <point x="388.609" y="690.06" type="line"/>
      <point x="388.771" y="700.06" type="line"/>
      <point x="30.016" y="700.06" type="line"/>
      <point x="30.178" y="690.06" type="line"/>
      <point x="42.828" y="690.08" type="line" smooth="yes"/>
      <point x="77.6917" y="690.08"/>
      <point x="106.003" y="662.25"/>
      <point x="106.873" y="627.606" type="curve" smooth="yes"/>
      <point x="106.873" y="72.864" type="line" smooth="yes"/>
      <point x="106.21" y="38.029"/>
      <point x="77.8129" y="9.97897"/>
      <point x="42.8109" y="9.97897" type="curve" smooth="yes"/>
      <point x="30.1609" y="9.99987" type="line"/>
      <point x="29.9999" y="0" type="line"/>
      <point x="388.787" y="0" type="line"/>
    </contour>
  </outline>
</glyph>
<glyph name="icircumflex" format="1">
  <advance width="418"/>
  <unicode hex="00EE"/>
  <outline>
    <contour>
      <point x="201.059" y="931.759" type="line"/>
      <point x="212.962" y="931.759" type="line"/>
      <point x="391.406" y="756.241" type="line"/>
      <point x="384.265" y="748.241" type="line"/>
      <point x="206.451" y="812.67" type="line"/>
      <point x="39.3319" y="748.337" type="line"/>
      <point x="32.1909" y="756.337" type="line"/>
    </contour>
    <contour>
      <point x="388.626" y="9.99999" type="line"/>
      <point x="375.976" y="9.97899" type="line" smooth="yes"/>
      <point x="340.974" y="9.97899"/>
      <point x="312.577" y="38.029"/>
      <point x="311.922" y="72.864" type="curve"/>
      <point x="311.922" y="627.818" type="line" smooth="yes"/>
      <point x="312.9" y="662.363"/>
      <point x="341.167" y="690.08"/>
      <point x="375.959" y="690.08" type="curve" smooth="yes"/>
      <point x="388.609" y="690.06" type="line"/>
      <point x="388.771" y="700.06" type="line"/>
      <point x="30.016" y="700.06" type="line"/>
      <point x="30.178" y="690.06" type="line"/>
      <point x="42.828" y="690.08" type="line" smooth="yes"/>
      <point x="77.6917" y="690.08"/>
      <point x="106.003" y="662.25"/>
      <point x="106.873" y="627.606" type="curve" smooth="yes"/>
      <point x="106.873" y="72.864" type="line" smooth="yes"/>
      <point x="106.21" y="38.029"/>
      <point x="77.8129" y="9.97896"/>
      <point x="42.8109" y="9.97896" type="curve" smooth="yes"/>
      <point x="30.1609" y="9.99986" type="line"/>
      <point x="29.9999" y="0" type="line"/>
      <point x="388.787" y="0" type="line"/>
    </contour>
  </outline>
</glyph>
<glyph name="idieresis" format="1">
  <advance width="418"/>
  <unicode hex="00EF"/>
  <outline>
    <contour>
      <point x="114.162" y="755.486"/>
      <point x="147.152" y="788.476"/>
      <point x="147.152" y="829.174" type="curve" smooth="yes"/>
      <point x="147.152" y="869.872"/>
      <point x="114.162" y="902.863"/>
      <point x="73.4649" y="902.863" type="curve" smooth="yes"/>
      <point x="32.7669" y="902.863"/>
      <point x="0" y="869.872"/>
      <point x="0" y="829.174" type="curve" smooth="yes"/>
      <point x="0" y="788.476"/>
      <point x="32.7669" y="755.486"/>
      <point x="73.4649" y="755.486" type="curve" smooth="yes"/>
    </contour>
    <contour>
      <point x="376.76" y="755.486"/>
      <point x="409.749" y="788.476"/>
      <point x="409.749" y="829.174" type="curve" smooth="yes"/>
      <point x="409.749" y="869.872"/>
      <point x="376.76" y="902.863"/>
      <point x="336.062" y="902.863" type="curve" smooth="yes"/>
      <point x="295.364" y="902.863"/>
      <point x="262.374" y="869.872"/>
      <point x="262.374" y="829.174" type="curve" smooth="yes"/>
      <point x="262.374" y="788.476"/>
      <point x="295.364" y="755.486"/>
      <point x="336.062" y="755.486" type="curve" smooth="yes"/>
    </contour>
    <contour>
      <point x="388.626" y="10" type="line"/>
      <point x="375.976" y="9.979" type="line" smooth="yes"/>
      <point x="340.974" y="9.979"/>
      <point x="312.577" y="38.029"/>
      <point x="311.922" y="72.864" type="curve"/>
      <point x="311.922" y="627.818" type="line" smooth="yes"/>
      <point x="312.9" y="662.363"/>
      <point x="341.167" y="690.08"/>
      <point x="375.959" y="690.08" type="curve" smooth="yes"/>
      <point x="388.609" y="690.06" type="line"/>
      <point x="388.771" y="700.06" type="line"/>
      <point x="30.016" y="700.06" type="line"/>
      <point x="30.178" y="690.06" type="line"/>
      <point x="42.828" y="690.08" type="line" smooth="yes"/>
      <point x="77.6917" y="690.08"/>
      <point x="106.003" y="662.25"/>
      <point x="106.873" y="627.606" type="curve" smooth="yes"/>
      <point x="106.873" y="72.864" type="line" smooth="yes"/>
      <point x="106.21" y="38.029"/>
      <point x="77.8129" y="9.97897"/>
      <point x="42.8109" y="9.97897" type="curve" smooth="yes"/>
      <point x="30.1609" y="9.99987" type="line"/>
      <point x="29.9999" y="0" type="line"/>
      <point x="388.787" y="0" type="line"/>
    </contour>
  </outline>
</glyph>
<glyph name="ntilde" format="1">
  <advance width="881"/>
  <unicode hex="00F1"/>
  <outline>
    <contour>
      <point x="619.196" y="919.285" type="line"/>
      <point x="641.188" y="870.769"/>
      <point x="603.188" y="763.769"/>
      <point x="502.513" y="764.132" type="curve" smooth="yes"/>
      <point x="440.187" y="764.357"/>
      <point x="406.188" y="807.769"/>
      <point x="341.205" y="818.215" type="curve" smooth="yes"/>
      <point x="296.756" y="825.36"/>
      <point x="258.188" y="788.769"/>
      <point x="249.218" y="767.102" type="curve"/>
      <point x="236.864" y="767.102" type="line"/>
      <point x="222.188" y="820.769"/>
      <point x="256.188" y="928.769"/>
      <point x="354.042" y="928.882" type="curve" smooth="yes"/>
      <point x="412.188" y="928.949"/>
      <point x="443.188" y="885.769"/>
      <point x="516.078" y="875.799" type="curve" smooth="yes"/>
      <point x="560.772" y="869.685"/>
      <point x="600.188" y="902.769"/>
      <point x="606.843" y="919.285" type="curve"/>
    </contour>
    <contour>
      <point x="495.233" y="700.019" type="line"/>
      <point x="495.387" y="690.019" type="line"/>
      <point x="513.841" y="690.038" type="line" smooth="yes"/>
      <point x="547.579" y="690.042"/>
      <point x="574.944" y="663.005"/>
      <point x="575.575" y="629.431" type="curve" smooth="yes"/>
      <point x="575.575" y="289.291" type="line"/>
      <point x="96.997" y="715" type="line"/>
      <point x="87.136" y="714.991" type="line" smooth="yes"/>
      <point x="87.136" y="714.991"/>
      <point x="100.345" y="668.335"/>
      <point x="100.345" y="590.069" type="curve" smooth="yes"/>
      <point x="100.345" y="70.544" type="line" smooth="yes"/>
      <point x="99.6899" y="36.9923"/>
      <point x="72.3316" y="9.98089"/>
      <point x="38.613" y="9.98089" type="curve" smooth="yes"/>
      <point x="20.155" y="9.99989" type="line"/>
      <point x="19.9999" y="0" type="line"/>
      <point x="385.987" y="0" type="line"/>
      <point x="385.833" y="9.99989" type="line"/>
      <point x="367.372" y="9.98089" type="line" smooth="yes"/>
      <point x="333.64" y="9.98089"/>
      <point x="306.273" y="37.0169"/>
      <point x="305.637" y="70.5899" type="curve"/>
      <point x="305.637" y="411.899" type="line"/>
      <point x="785.022" y="-14" type="line"/>
      <point x="794.104" y="-14" type="line"/>
      <point x="794.104" y="-14"/>
      <point x="780.983" y="31.1649"/>
      <point x="780.983" y="113.582" type="curve" smooth="yes"/>
      <point x="780.983" y="630.256" type="line" smooth="yes"/>
      <point x="782.042" y="663.448"/>
      <point x="809.237" y="690.043"/>
      <point x="842.696" y="690.039" type="curve" smooth="yes"/>
      <point x="861.152" y="690.02" type="line"/>
      <point x="861.306" y="700.019" type="line"/>
    </contour>
  </outline>
</glyph>
<glyph name="oslash" format="1">
  <advance width="900"/>
  <unicode hex="00F8"/>
  <outline>
    <contour>
      <point x="765.701" y="691.577" type="line"/>
      <point x="722.389" y="726.336" type="line"/>
      <point x="673.9" y="669.96" type="line"/>
      <point x="612.146" y="698.797"/>
      <point x="536.942" y="714"/>
      <point x="450.432" y="714" type="curve" smooth="yes"/>
      <point x="192.446" y="714"/>
      <point x="35" y="578.797"/>
      <point x="35" y="349.992" type="curve" smooth="yes"/>
      <point x="35" y="228.803"/>
      <point x="79.1739" y="133.875"/>
      <point x="159.064" y="71.3885" type="curve"/>
      <point x="108.844" y="12.9999" type="line"/>
      <point x="152.854" y="-23" type="line"/>
      <point x="206.973" y="40.1027" type="line"/>
      <point x="272.223" y="4.75053"/>
      <point x="354.355" y="-14"/>
      <point x="450.432" y="-14" type="curve" smooth="yes"/>
      <point x="708.418" y="-14"/>
      <point x="865.865" y="121.197"/>
      <point x="865.865" y="349.992" type="curve" smooth="yes"/>
      <point x="865.865" y="480.258"/>
      <point x="814.83" y="580.184"/>
      <point x="723.262" y="642.093" type="curve"/>
    </contour>
    <contour>
      <point x="272.399" y="203.157" type="line"/>
      <point x="261.41" y="245.155"/>
      <point x="255.667" y="294.367"/>
      <point x="255.667" y="349.992" type="curve" smooth="yes"/>
      <point x="255.667" y="547.416"/>
      <point x="328.008" y="664.075"/>
      <point x="450.432" y="664.075" type="curve" smooth="yes"/>
      <point x="512.595" y="664.075"/>
      <point x="561.845" y="633.997"/>
      <point x="595.269" y="578.54" type="curve"/>
    </contour>
    <contour>
      <point x="620.768" y="522.586" type="line"/>
      <point x="636.759" y="475.429"/>
      <point x="645.198" y="417.422"/>
      <point x="645.198" y="349.992" type="curve" smooth="yes"/>
      <point x="645.198" y="152.578"/>
      <point x="572.856" y="35.925"/>
      <point x="450.432" y="35.925" type="curve" smooth="yes"/>
      <point x="380.947" y="35.925"/>
      <point x="327.596" y="73.504"/>
      <point x="294.449" y="142.099" type="curve"/>
    </contour>
    <contour>
      <point x="330" y="500" type="move" name="top"/>
    </contour>
  </outline>
</glyph>
<glyph name="ugrave" format="1">
  <advance width="845"/>
  <unicode hex="00F9"/>
  <outline>
    <contour>
      <point x="509.9" y="770.906" type="line"/>
      <point x="481.648" y="836.791"/>
      <point x="399.396" y="918.676"/>
      <point x="355.144" y="956.561" type="curve"/>
      <point x="306.764" y="936.325"/>
      <point x="283.385" y="903.09"/>
      <point x="270.005" y="856.854" type="curve"/>
      <point x="333.303" y="814.871"/>
      <point x="429.602" y="772.889"/>
      <point x="502.9" y="763.906" type="curve"/>
    </contour>
    <contour>
      <point x="600.182" y="700" type="line"/>
      <point x="600.182" y="690" type="line"/>
      <point x="616.477" y="690.017" type="line" smooth="yes"/>
      <point x="644.901" y="690.017"/>
      <point x="668.046" y="669.918"/>
      <point x="669.3" y="641.881" type="curve"/>
      <point x="669.3" y="247.399" type="line" smooth="yes"/>
      <point x="668.992" y="115.459"/>
      <point x="601.152" y="37.495"/>
      <point x="486.423" y="37.495" type="curve" smooth="yes"/>
      <point x="371.812" y="37.495"/>
      <point x="304.088" y="120.248"/>
      <point x="304.088" y="260.292" type="curve" smooth="yes"/>
      <point x="304.088" y="642" type="line"/>
      <point x="305.312" y="669.975"/>
      <point x="328.433" y="690.017"/>
      <point x="356.814" y="690.017" type="curve" smooth="yes"/>
      <point x="373.11" y="690" type="line"/>
      <point x="373.11" y="700" type="line"/>
      <point x="30" y="700" type="line"/>
      <point x="30" y="690" type="line"/>
      <point x="46.295" y="690.017" type="line" smooth="yes"/>
      <point x="75.183" y="690.017"/>
      <point x="98.619" y="669.255"/>
      <point x="99.161" y="640.499" type="curve" smooth="yes"/>
      <point x="99.161" y="255.596" type="line" smooth="yes"/>
      <point x="99.062" y="87.587"/>
      <point x="211.363" y="-14"/>
      <point x="456.423" y="-14" type="curve" smooth="yes"/>
      <point x="648.114" y="-14"/>
      <point x="755.96" y="88.135"/>
      <point x="755.973" y="257.34" type="curve" smooth="yes"/>
      <point x="755.973" y="642.79" type="line"/>
      <point x="757.711" y="670.351"/>
      <point x="780.664" y="690.017"/>
      <point x="808.777" y="690.017" type="curve" smooth="yes"/>
      <point x="825.073" y="690" type="line"/>
      <point x="825.073" y="700" type="line"/>
    </contour>
  </outline>
</glyph>
<glyph name="uacute" format="1">
  <advance width="845"/>
  <unicode hex="00FA"/>
  <outline>
    <contour>
      <point x="465.994" y="761" type="line"/>
      <point x="539.292" y="769.983"/>
      <point x="635.591" y="811.965"/>
      <point x="698.889" y="853.948" type="curve"/>
      <point x="685.509" y="900.184"/>
      <point x="662.13" y="933.419"/>
      <point x="613.75" y="953.655" type="curve"/>
      <point x="569.498" y="915.77"/>
      <point x="487.246" y="833.885"/>
      <point x="458.994" y="768" type="curve"/>
    </contour>
    <contour>
      <point x="600.182" y="700" type="line"/>
      <point x="600.182" y="690" type="line"/>
      <point x="616.477" y="690.017" type="line" smooth="yes"/>
      <point x="644.901" y="690.017"/>
      <point x="668.046" y="669.918"/>
      <point x="669.3" y="641.881" type="curve"/>
      <point x="669.3" y="247.399" type="line" smooth="yes"/>
      <point x="668.992" y="115.459"/>
      <point x="601.152" y="37.495"/>
      <point x="486.423" y="37.495" type="curve" smooth="yes"/>
      <point x="371.812" y="37.495"/>
      <point x="304.088" y="120.248"/>
      <point x="304.088" y="260.292" type="curve" smooth="yes"/>
      <point x="304.088" y="642" type="line"/>
      <point x="305.312" y="669.975"/>
      <point x="328.433" y="690.017"/>
      <point x="356.814" y="690.017" type="curve" smooth="yes"/>
      <point x="373.11" y="690" type="line"/>
      <point x="373.11" y="700" type="line"/>
      <point x="30" y="700" type="line"/>
      <point x="30" y="690" type="line"/>
      <point x="46.295" y="690.017" type="line" smooth="yes"/>
      <point x="75.183" y="690.017"/>
      <point x="98.619" y="669.255"/>
      <point x="99.161" y="640.499" type="curve" smooth="yes"/>
      <point x="99.161" y="255.596" type="line" smooth="yes"/>
      <point x="99.062" y="87.587"/>
      <point x="211.363" y="-14"/>
      <point x="456.423" y="-14" type="curve" smooth="yes"/>
      <point x="648.114" y="-14"/>
      <point x="755.96" y="88.135"/>
      <point x="755.973" y="257.34" type="curve" smooth="yes"/>
      <point x="755.973" y="642.79" type="line"/>
      <point x="757.711" y="670.351"/>
      <point x="780.664" y="690.017"/>
      <point x="808.777" y="690.017" type="curve" smooth="yes"/>
      <point x="825.073" y="690" type="line"/>
      <point x="825.073" y="700" type="line"/>
    </contour>
  </outline>
</glyph>
<glyph name="ucircumflex" format="1">
  <advance width="845"/>
  <unicode hex="00FB"/>
  <outline>
    <contour>
      <point x="475.747" y="931.759" type="line"/>
      <point x="487.65" y="931.759" type="line"/>
      <point x="666.094" y="756.241" type="line"/>
      <point x="658.953" y="748.241" type="line"/>
      <point x="481.139" y="812.67" type="line"/>
      <point x="314.02" y="748.337" type="line"/>
      <point x="306.879" y="756.337" type="line"/>
    </contour>
    <contour>
      <point x="600.182" y="700" type="line"/>
      <point x="600.182" y="690" type="line"/>
      <point x="616.477" y="690.017" type="line" smooth="yes"/>
      <point x="644.901" y="690.017"/>
      <point x="668.046" y="669.918"/>
      <point x="669.3" y="641.881" type="curve"/>
      <point x="669.3" y="247.399" type="line" smooth="yes"/>
      <point x="668.992" y="115.459"/>
      <point x="601.152" y="37.4951"/>
      <point x="486.423" y="37.4951" type="curve" smooth="yes"/>
      <point x="371.812" y="37.4951"/>
      <point x="304.088" y="120.248"/>
      <point x="304.088" y="260.292" type="curve" smooth="yes"/>
      <point x="304.088" y="642" type="line"/>
      <point x="305.312" y="669.975"/>
      <point x="328.433" y="690.017"/>
      <point x="356.814" y="690.017" type="curve" smooth="yes"/>
      <point x="373.11" y="690" type="line"/>
      <point x="373.11" y="700" type="line"/>
      <point x="30" y="700" type="line"/>
      <point x="30" y="690" type="line"/>
      <point x="46.295" y="690.017" type="line" smooth="yes"/>
      <point x="75.183" y="690.017"/>
      <point x="98.619" y="669.255"/>
      <point x="99.161" y="640.499" type="curve" smooth="yes"/>
      <point x="99.161" y="255.596" type="line" smooth="yes"/>
      <point x="99.062" y="87.5871"/>
      <point x="211.363" y="-14"/>
      <point x="456.423" y="-14" type="curve" smooth="yes"/>
      <point x="648.114" y="-14"/>
      <point x="755.96" y="88.1351"/>
      <point x="755.973" y="257.34" type="curve" smooth="yes"/>
      <point x="755.973" y="642.79" type="line"/>
      <point x="757.711" y="670.351"/>
      <point x="780.664" y="690.017"/>
      <point x="808.777" y="690.017" type="curve" smooth="yes"/>
      <point x="825.073" y="690" type="line"/>
      <point x="825.073" y="700" type="line"/>
    </contour>
  </outline>
</glyph>
<glyph name="udieresis" format="1">
  <advance width="845"/>
  <unicode hex="00FC"/>
  <outline>
    <contour>
      <point x="388.85" y="755.486"/>
      <point x="421.84" y="788.476"/>
      <point x="421.84" y="829.174" type="curve" smooth="yes"/>
      <point x="421.84" y="869.872"/>
      <point x="388.85" y="902.863"/>
      <point x="348.153" y="902.863" type="curve" smooth="yes"/>
      <point x="307.455" y="902.863"/>
      <point x="274.465" y="869.872"/>
      <point x="274.465" y="829.174" type="curve" smooth="yes"/>
      <point x="274.465" y="788.476"/>
      <point x="307.455" y="755.486"/>
      <point x="348.153" y="755.486" type="curve" smooth="yes"/>
    </contour>
    <contour>
      <point x="651.448" y="755.486"/>
      <point x="684.437" y="788.476"/>
      <point x="684.437" y="829.174" type="curve" smooth="yes"/>
      <point x="684.437" y="869.872"/>
      <point x="651.448" y="902.863"/>
      <point x="610.75" y="902.863" type="curve" smooth="yes"/>
      <point x="570.052" y="902.863"/>
      <point x="537.062" y="869.872"/>
      <point x="537.062" y="829.174" type="curve" smooth="yes"/>
      <point x="537.062" y="788.476"/>
      <point x="570.052" y="755.486"/>
      <point x="610.75" y="755.486" type="curve" smooth="yes"/>
    </contour>
    <contour>
      <point x="600.182" y="700" type="line"/>
      <point x="600.182" y="690" type="line"/>
      <point x="616.477" y="690.017" type="line" smooth="yes"/>
      <point x="644.901" y="690.017"/>
      <point x="668.046" y="669.918"/>
      <point x="669.3" y="641.881" type="curve"/>
      <point x="669.3" y="247.399" type="line" smooth="yes"/>
      <point x="668.992" y="115.459"/>
      <point x="601.152" y="37.495"/>
      <point x="486.423" y="37.495" type="curve" smooth="yes"/>
      <point x="371.812" y="37.495"/>
      <point x="304.088" y="120.248"/>
      <point x="304.088" y="260.292" type="curve" smooth="yes"/>
      <point x="304.088" y="642" type="line"/>
      <point x="305.312" y="669.975"/>
      <point x="328.433" y="690.017"/>
      <point x="356.814" y="690.017" type="curve" smooth="yes"/>
      <point x="373.11" y="690" type="line"/>
      <point x="373.11" y="700" type="line"/>
      <point x="30" y="700" type="line"/>
      <point x="30" y="690" type="line"/>
      <point x="46.295" y="690.017" type="line" smooth="yes"/>
      <point x="75.183" y="690.017"/>
      <point x="98.619" y="669.255"/>
      <point x="99.161" y="640.499" type="curve" smooth="yes"/>
      <point x="99.161" y="255.596" type="line" smooth="yes"/>
      <point x="99.062" y="87.587"/>
      <point x="211.363" y="-14"/>
      <point x="456.423" y="-14" type="curve" smooth="yes"/>
      <point x="648.114" y="-14"/>
      <point x="755.96" y="88.135"/>
      <point x="755.973" y="257.34" type="curve" smooth="yes"/>
      <point x="755.973" y="642.79" type="line"/>
      <point x="757.711" y="670.351"/>
      <point x="780.664" y="690.017"/>
      <point x="808.777" y="690.017" type="curve" smooth="yes"/>
      <point x="825.073" y="690" type="line"/>
      <point x="825.073" y="700" type="line"/>
    </contour>
  </outline>
</glyph>
<glyph name="thorn" format="1">
  <advance width="707"/>
  <unicode hex="00FE"/>
  <outline>
    <contour>
      <point x="324.614" y="558.034" type="line"/>
      <point x="324.614" y="627.818" type="line" smooth="yes"/>
      <point x="325.594" y="662.363"/>
      <point x="353.861" y="690.08"/>
      <point x="388.653" y="690.08" type="curve" smooth="yes"/>
      <point x="401.303" y="690.06" type="line"/>
      <point x="401.465" y="700.06" type="line"/>
      <point x="42.71" y="700.06" type="line"/>
      <point x="42.872" y="690.06" type="line"/>
      <point x="55.522" y="690.08" type="line" smooth="yes"/>
      <point x="90.3857" y="690.08"/>
      <point x="118.697" y="662.25"/>
      <point x="119.567" y="627.606" type="curve" smooth="yes"/>
      <point x="119.567" y="72.8641" type="line" smooth="yes"/>
      <point x="118.904" y="38.0291"/>
      <point x="90.5069" y="9.97908"/>
      <point x="55.5049" y="9.97908" type="curve" smooth="yes"/>
      <point x="42.8549" y="10" type="line"/>
      <point x="42.6939" y="0" type="line"/>
      <point x="401.481" y="0" type="line"/>
      <point x="401.32" y="10" type="line"/>
      <point x="388.67" y="9.97908" type="line" smooth="yes"/>
      <point x="353.668" y="9.97908"/>
      <point x="325.271" y="38.0291"/>
      <point x="324.616" y="72.8641" type="curve"/>
      <point x="324.616" y="508.034" type="line"/>
      <point x="352.309" y="508.034" type="line" smooth="yes"/>
      <point x="429.068" y="508.034"/>
      <point x="474.068" y="456.034"/>
      <point x="477.068" y="375.034" type="curve" smooth="yes"/>
      <point x="478.068" y="358.034"/>
      <point x="476.068" y="335.034"/>
      <point x="471.068" y="315.034" type="curve" smooth="yes"/>
      <point x="443.068" y="200.034"/>
      <point x="350.068" y="198.034"/>
      <point x="351.101" y="196.9" type="curve"/>
      <point x="351.221" y="187.45" type="line"/>
      <point x="505" y="76.0341"/>
      <point x="702.371" y="182.034"/>
      <point x="692.132" y="367.44" type="curve" smooth="yes"/>
      <point x="686.475" y="469.878"/>
      <point x="615" y="558.034"/>
      <point x="415.931" y="558.034" type="curve" smooth="yes"/>
    </contour>
  </outline>
</glyph>
<glyph name="ydieresis" format="1">
  <advance width="729"/>
  <unicode hex="00FF"/>
  <outline>
    <contour>
      <point x="340.862" y="755.486"/>
      <point x="373.852" y="788.476"/>
      <point x="373.852" y="829.174" type="curve" smooth="yes"/>
      <point x="373.852" y="869.872"/>
      <point x="340.862" y="902.863"/>
      <point x="300.165" y="902.863" type="curve" smooth="yes"/>
      <point x="259.467" y="902.863"/>
      <point x="226.477" y="869.872"/>
      <point x="226.477" y="829.174" type="curve" smooth="yes"/>
      <point x="226.477" y="788.476"/>
      <point x="259.467" y="755.486"/>
      <point x="300.165" y="755.486" type="curve" smooth="yes"/>
    </contour>
    <contour>
      <point x="603.46" y="755.486"/>
      <point x="636.449" y="788.476"/>
      <point x="636.449" y="829.174" type="curve" smooth="yes"/>
      <point x="636.449" y="869.872"/>
      <point x="603.46" y="902.863"/>
      <point x="562.762" y="902.863" type="curve" smooth="yes"/>
      <point x="522.064" y="902.863"/>
      <point x="489.074" y="869.872"/>
      <point x="489.074" y="829.174" type="curve" smooth="yes"/>
      <point x="489.074" y="788.476"/>
      <point x="522.064" y="755.486"/>
      <point x="562.762" y="755.486" type="curve" smooth="yes"/>
    </contour>
    <contour>
      <point x="525.512" y="700.017" type="line"/>
      <point x="525.512" y="689.993" type="line"/>
      <point x="538.112" y="689.993" type="line" smooth="yes"/>
      <point x="565.343" y="689.993"/>
      <point x="588.768" y="656.432"/>
      <point x="573.182" y="628.074" type="curve" smooth="yes"/>
      <point x="431.104" y="380.757" type="line"/>
      <point x="293.645" y="628.142" type="line" smooth="yes"/>
      <point x="279.102" y="656.488"/>
      <point x="299.532" y="690.034"/>
      <point x="328.74" y="690.034" type="curve" smooth="yes"/>
      <point x="341.339" y="690.034" type="line"/>
      <point x="341.339" y="700" type="line"/>
      <point x="-45" y="700" type="line"/>
      <point x="-45" y="690.034" type="line"/>
      <point x="-31" y="690.034" type="line" smooth="yes"/>
      <point x="9.9194" y="690.034"/>
      <point x="48.7991" y="663.022"/>
      <point x="68.422" y="632.782" type="curve" smooth="yes"/>
      <point x="258.578" y="322.282" type="line"/>
      <point x="258.578" y="72.276" type="line" smooth="yes"/>
      <point x="257.617" y="37.7138"/>
      <point x="229.343" y="9.97872"/>
      <point x="194.538" y="9.97872" type="curve" smooth="yes"/>
      <point x="181.888" y="9.99972" type="line"/>
      <point x="181.727" y="0" type="line"/>
      <point x="540.474" y="0" type="line"/>
      <point x="540.313" y="9.99972" type="line"/>
      <point x="527.663" y="9.97872" type="line" smooth="yes"/>
      <point x="492.661" y="9.97872"/>
      <point x="464.264" y="38.0287"/>
      <point x="463.609" y="72.8637" type="curve"/>
      <point x="463.609" y="321.754" type="line"/>
      <point x="659.853" y="631.221" type="line" smooth="yes"/>
      <point x="680.14" y="662.093"/>
      <point x="718.66" y="689.993"/>
      <point x="760.657" y="689.993" type="curve" smooth="yes"/>
      <point x="774.657" y="689.993" type="line"/>
      <point x="774.657" y="700.017" type="line"/>
    </contour>
  </outline>
</glyph>
<glyph name="Amacron" format="1">
  <advance width="702"/>
  <unicode hex="0100"/>
  <outline>
    <contour>
      <point x="186.632" y="815.361" type="line"/>
      <point x="476.632" y="815.361" type="line"/>
      <point x="476.632" y="900.361" type="line"/>
      <point x="186.632" y="900.361" type="line"/>
    </contour>
    <contour>
      <point x="976.102" y="-161" type="line"/>
      <point x="794.24" y="-210"/>
      <point x="693.68" y="-6"/>
      <point x="623.138" y="155.212" type="curve" smooth="yes"/>
      <point x="462.755" y="521.535" type="line" smooth="yes"/>
      <point x="372.17" y="728.435"/>
      <point x="224.45" y="826.42"/>
      <point x="36.344" y="713.835" type="curve"/>
      <point x="38.2262" y="703.731" type="line"/>
      <point x="152.225" y="745.507"/>
      <point x="212.755" y="628.889"/>
      <point x="256.414" y="511.495" type="curve"/>
      <point x="52.0252" y="64.034" type="line"/>
      <point x="30.4082" y="25.9685"/>
      <point x="-3" y="10"/>
      <point x="-31" y="10" type="curve" smooth="yes"/>
      <point x="-40" y="10" type="line"/>
      <point x="-40" y="0" type="line"/>
      <point x="183.279" y="0" type="line"/>
      <point x="183.279" y="9.90831" type="line"/>
      <point x="174.487" y="9.90831" type="line" smooth="yes"/>
      <point x="148.67" y="9.90831"/>
      <point x="118.49" y="32.6643"/>
      <point x="136.092" y="72.6813" type="curve" smooth="yes"/>
      <point x="176.25" y="166" type="line"/>
      <point x="390.317" y="166" type="line"/>
      <point x="417.399" y="99.5633" type="line" smooth="yes"/>
      <point x="537.606" y="-195"/>
      <point x="792.285" y="-279"/>
      <point x="977.975" y="-171" type="curve"/>
    </contour>
    <contour>
      <point x="198.047" y="216" type="line"/>
      <point x="287.866" y="422.034" type="line"/>
      <point x="294.387" y="403.344"/>
      <point x="300.685" y="385.887"/>
      <point x="306.956" y="370.504" type="curve" smooth="yes"/>
      <point x="369.936" y="216" type="line"/>
    </contour>
  </outline>
</glyph>
<glyph name="Abreve" format="1">
  <advance width="702"/>
  <unicode hex="0102"/>
  <outline>
    <contour>
      <point x="455.605" y="947.645" type="line"/>
      <point x="439.615" y="910.912"/>
      <point x="386.615" y="883.912"/>
      <point x="328.615" y="883.912" type="curve" smooth="yes"/>
      <point x="269.615" y="883.912"/>
      <point x="217.615" y="911.912"/>
      <point x="202.022" y="947.645" type="curve"/>
      <point x="189.308" y="947.645" type="line"/>
      <point x="170.615" y="862.912"/>
      <point x="238.615" y="783.912"/>
      <point x="328.812" y="784" type="curve" smooth="yes"/>
      <point x="416.615" y="783.912"/>
      <point x="487.615" y="860.912"/>
      <point x="468.319" y="947.645" type="curve"/>
    </contour>
    <contour>
      <point x="976.102" y="-161" type="line"/>
      <point x="794.24" y="-210"/>
      <point x="693.68" y="-6"/>
      <point x="623.138" y="155.212" type="curve" smooth="yes"/>
      <point x="462.755" y="521.535" type="line" smooth="yes"/>
      <point x="372.17" y="728.435"/>
      <point x="224.45" y="826.42"/>
      <point x="36.344" y="713.835" type="curve"/>
      <point x="38.2262" y="703.731" type="line"/>
      <point x="152.225" y="745.507"/>
      <point x="212.755" y="628.889"/>
      <point x="256.414" y="511.495" type="curve"/>
      <point x="52.0252" y="64.0341" type="line"/>
      <point x="30.4082" y="25.9686"/>
      <point x="-3" y="10"/>
      <point x="-31" y="10" type="curve" smooth="yes"/>
      <point x="-40" y="10" type="line"/>
      <point x="-40" y="0" type="line"/>
      <point x="183.279" y="0" type="line"/>
      <point x="183.279" y="9.90837" type="line"/>
      <point x="174.487" y="9.90837" type="line" smooth="yes"/>
      <point x="148.67" y="9.90837"/>
      <point x="118.49" y="32.6644"/>
      <point x="136.092" y="72.6814" type="curve" smooth="yes"/>
      <point x="176.25" y="166" type="line"/>
      <point x="390.317" y="166" type="line"/>
      <point x="417.399" y="99.5634" type="line" smooth="yes"/>
      <point x="537.606" y="-195"/>
      <point x="792.285" y="-279"/>
      <point x="977.975" y="-171" type="curve"/>
    </contour>
    <contour>
      <point x="198.047" y="216" type="line"/>
      <point x="287.866" y="422.034" type="line"/>
      <point x="294.387" y="403.344"/>
      <point x="300.685" y="385.887"/>
      <point x="306.956" y="370.504" type="curve" smooth="yes"/>
      <point x="369.936" y="216" type="line"/>
    </contour>
  </outline>
</glyph>
<glyph name="abreve" format="1">
  <advance width="720"/>
  <unicode hex="0103"/>
  <outline>
    <contour>
      <point x="477.074" y="927.645" type="line"/>
      <point x="461.084" y="890.912"/>
      <point x="408.084" y="863.912"/>
      <point x="350.084" y="863.912" type="curve" smooth="yes"/>
      <point x="291.084" y="863.912"/>
      <point x="239.084" y="891.912"/>
      <point x="223.491" y="927.645" type="curve"/>
      <point x="210.776" y="927.645" type="line"/>
      <point x="192.084" y="842.912"/>
      <point x="260.084" y="763.912"/>
      <point x="350.281" y="764" type="curve" smooth="yes"/>
      <point x="438.084" y="763.912"/>
      <point x="509.084" y="840.912"/>
      <point x="489.788" y="927.645" type="curve"/>
    </contour>
    <contour>
      <point x="351.414" y="724" type="line"/>
      <point x="342.408" y="724" type="line"/>
      <point x="338.408" y="690.283"/>
      <point x="297.112" y="599.922"/>
      <point x="285.361" y="574.867" type="curve" smooth="yes"/>
      <point x="52.024" y="64.031" type="line"/>
      <point x="30.4069" y="25.9675"/>
      <point x="-3" y="10"/>
      <point x="-31" y="10" type="curve" smooth="yes"/>
      <point x="-40" y="10" type="line"/>
      <point x="-40" y="0" type="line"/>
      <point x="183.279" y="0" type="line"/>
      <point x="183.279" y="9.90809" type="line"/>
      <point x="174.487" y="9.90809" type="line" smooth="yes"/>
      <point x="148.67" y="9.90809"/>
      <point x="118.49" y="32.6641"/>
      <point x="136.092" y="72.6811" type="curve" smooth="yes"/>
      <point x="176.25" y="166" type="line"/>
      <point x="389.737" y="166" type="line"/>
      <point x="428.742" y="72.6819" type="line" smooth="yes"/>
      <point x="444.745" y="32.6641"/>
      <point x="415.815" y="9.91109"/>
      <point x="389.999" y="9.91109" type="curve" smooth="yes"/>
      <point x="381.207" y="9.91109" type="line"/>
      <point x="381.207" y="0" type="line"/>
      <point x="760.264" y="0" type="line"/>
      <point x="760.264" y="10" type="line"/>
      <point x="751.901" y="10" type="line" smooth="yes"/>
      <point x="723.121" y="10"/>
      <point x="690.494" y="26.2829"/>
      <point x="668.231" y="65.159" type="curve"/>
    </contour>
    <contour>
      <point x="198.048" y="216" type="line"/>
      <point x="285.24" y="416.01" type="line"/>
      <point x="368.839" y="216" type="line"/>
    </contour>
  </outline>
</glyph>
<glyph name="Aogonek" format="1">
  <advance width="682"/>
  <unicode hex="0104"/>
  <outline>
    <contour>
      <point x="976.102" y="-161" type="line"/>
      <point x="794.24" y="-210"/>
      <point x="694.364" y="-6"/>
      <point x="623.138" y="155.212" type="curve" smooth="yes"/>
      <point x="469.755" y="501.535" type="line" smooth="yes"/>
      <point x="359.744" y="749.927"/>
      <point x="204.45" y="806.42"/>
      <point x="16.344" y="693.835" type="curve"/>
      <point x="18.2262" y="683.731" type="line"/>
      <point x="131.664" y="725.301"/>
      <point x="203.746" y="614.758"/>
      <point x="253.098" y="504.235" type="curve"/>
      <point x="52.0253" y="64.0338" type="line"/>
      <point x="30.4083" y="25.9683"/>
      <point x="-3" y="10"/>
      <point x="-31" y="10" type="curve" smooth="yes"/>
      <point x="-40" y="10" type="line"/>
      <point x="-40" y="0" type="line"/>
      <point x="183.279" y="0" type="line"/>
      <point x="183.279" y="9.90811" type="line"/>
      <point x="174.487" y="9.90811" type="line" smooth="yes"/>
      <point x="148.67" y="9.90811"/>
      <point x="118.49" y="32.6641"/>
      <point x="136.092" y="72.6811" type="curve" smooth="yes"/>
      <point x="176.25" y="166" type="line"/>
      <point x="390.318" y="166" type="line"/>
      <point x="417.399" y="99.5631" type="line" smooth="yes"/>
      <point x="430.771" y="66.797"/>
      <point x="445.806" y="36.6364"/>
      <point x="462.225" y="9.05551" type="curve"/>
      <point x="408.008" y="11.301"/>
      <point x="341.176" y="-12"/>
      <point x="331.071" y="-84" type="curve" smooth="yes"/>
      <point x="311.432" y="-223"/>
      <point x="526.071" y="-257"/>
      <point x="535.117" y="-121" type="curve"/>
      <point x="529.117" y="-115" type="line"/>
      <point x="479.071" y="-155"/>
      <point x="423.071" y="-134"/>
      <point x="417.071" y="-73" type="curve" smooth="yes"/>
      <point x="414.362" y="-42"/>
      <point x="424.704" y="-13"/>
      <point x="466.945" y="1.26011" type="curve"/>
      <point x="598.628" y="-213"/>
      <point x="814.904" y="-266"/>
      <point x="977.975" y="-171" type="curve"/>
    </contour>
    <contour>
      <point x="198.047" y="216" type="line"/>
      <point x="287.299" y="420.732" type="line"/>
      <point x="306.956" y="370.504" type="line"/>
      <point x="369.936" y="216" type="line"/>
    </contour>
  </outline>
</glyph>
<glyph name="Cacute" format="1">
  <advance width="830"/>
  <unicode hex="0106"/>
  <outline>
    <contour>
      <point x="435" y="761" type="line"/>
      <point x="508.298" y="769.983"/>
      <point x="604.597" y="811.965"/>
      <point x="667.895" y="853.948" type="curve"/>
      <point x="654.515" y="900.184"/>
      <point x="631.136" y="933.419"/>
      <point x="582.756" y="953.655" type="curve"/>
      <point x="538.504" y="915.77"/>
      <point x="456.252" y="833.885"/>
      <point x="428" y="768" type="curve"/>
    </contour>
    <contour>
      <point x="807.006" y="401.85" type="line"/>
      <point x="815.793" y="162.752"/>
      <point x="682.274" y="35.929"/>
      <point x="498.128" y="35.929" type="curve" smooth="yes"/>
      <point x="321" y="42"/>
      <point x="230" y="169"/>
      <point x="230" y="358" type="curve" smooth="yes"/>
      <point x="230" y="546"/>
      <point x="320" y="664"/>
      <point x="483" y="664" type="curve" smooth="yes"/>
      <point x="580" y="664"/>
      <point x="677" y="622"/>
      <point x="717.378" y="477.264" type="curve"/>
      <point x="725.701" y="477.232" type="line"/>
      <point x="735.525" y="668.468" type="line"/>
      <point x="680" y="692"/>
      <point x="591" y="714"/>
      <point x="478" y="714" type="curve" smooth="yes"/>
      <point x="190" y="714"/>
      <point x="10" y="571"/>
      <point x="10" y="346" type="curve" smooth="yes"/>
      <point x="10" y="133"/>
      <point x="171" y="-14"/>
      <point x="478.128" y="-14" type="curve" smooth="yes"/>
      <point x="695.905" y="-14"/>
      <point x="852.99" y="134.237"/>
      <point x="815.328" y="401.886" type="curve"/>
    </contour>
  </outline>
</glyph>
<glyph name="Cdotaccent" format="1">
  <advance width="830"/>
  <unicode hex="010A"/>
  <outline>
    <contour>
      <point x="492.698" y="764"/>
      <point x="525.687" y="796.988"/>
      <point x="525.687" y="837.687" type="curve" smooth="yes"/>
      <point x="525.687" y="878.385"/>
      <point x="492.698" y="911.376"/>
      <point x="452" y="911.376" type="curve" smooth="yes"/>
      <point x="411.301" y="911.376"/>
      <point x="378.313" y="878.385"/>
      <point x="378.313" y="837.687" type="curve" smooth="yes"/>
      <point x="378.313" y="796.988"/>
      <point x="411.301" y="764"/>
      <point x="452" y="764" type="curve" smooth="yes"/>
    </contour>
    <contour>
      <point x="807.006" y="401.85" type="line"/>
      <point x="815.793" y="162.752"/>
      <point x="682.274" y="35.929"/>
      <point x="498.128" y="35.929" type="curve" smooth="yes"/>
      <point x="321" y="42"/>
      <point x="230" y="169"/>
      <point x="230" y="358" type="curve" smooth="yes"/>
      <point x="230" y="546"/>
      <point x="320" y="664"/>
      <point x="483" y="664" type="curve" smooth="yes"/>
      <point x="580" y="664"/>
      <point x="677" y="622"/>
      <point x="717.378" y="477.264" type="curve"/>
      <point x="725.701" y="477.232" type="line"/>
      <point x="735.525" y="668.468" type="line"/>
      <point x="680" y="692"/>
      <point x="591" y="714"/>
      <point x="478" y="714" type="curve" smooth="yes"/>
      <point x="190" y="714"/>
      <point x="10" y="571"/>
      <point x="10" y="346" type="curve" smooth="yes"/>
      <point x="10" y="133"/>
      <point x="171" y="-14"/>
      <point x="478.128" y="-14" type="curve" smooth="yes"/>
      <point x="695.905" y="-14"/>
      <point x="852.99" y="134.237"/>
      <point x="815.328" y="401.886" type="curve"/>
    </contour>
  </outline>
</glyph>
<glyph name="Ccaron" format="1">
  <advance width="830"/>
  <unicode hex="010C"/>
  <outline>
    <contour>
      <point x="458.825" y="763.975" type="line"/>
      <point x="446.802" y="763.975" type="line"/>
      <point x="277.825" y="939.493" type="line"/>
      <point x="285.038" y="947.493" type="line"/>
      <point x="453.378" y="883.064" type="line"/>
      <point x="610.917" y="947.397" type="line"/>
      <point x="618.13" y="939.397" type="line"/>
    </contour>
    <contour>
      <point x="807.006" y="401.85" type="line"/>
      <point x="815.793" y="162.752"/>
      <point x="682.274" y="35.9289"/>
      <point x="498.128" y="35.9289" type="curve" smooth="yes"/>
      <point x="321" y="41.9999"/>
      <point x="230" y="169"/>
      <point x="230" y="358" type="curve" smooth="yes"/>
      <point x="230" y="546"/>
      <point x="320" y="664"/>
      <point x="483" y="664" type="curve" smooth="yes"/>
      <point x="580" y="664"/>
      <point x="677" y="622"/>
      <point x="717.378" y="477.264" type="curve"/>
      <point x="725.701" y="477.232" type="line"/>
      <point x="735.525" y="668.468" type="line"/>
      <point x="680" y="692"/>
      <point x="591" y="714"/>
      <point x="478" y="714" type="curve" smooth="yes"/>
      <point x="190" y="714"/>
      <point x="10" y="571"/>
      <point x="10" y="346" type="curve" smooth="yes"/>
      <point x="10" y="133"/>
      <point x="171" y="-14"/>
      <point x="478.128" y="-14" type="curve" smooth="yes"/>
      <point x="695.905" y="-14"/>
      <point x="852.99" y="134.237"/>
      <point x="815.328" y="401.886" type="curve"/>
    </contour>
  </outline>
</glyph>
<glyph name="Dcaron" format="1">
  <advance width="878"/>
  <unicode hex="010E"/>
  <outline>
    <contour>
      <point x="464.063" y="763.975" type="line"/>
      <point x="452.04" y="763.975" type="line"/>
      <point x="283.063" y="939.493" type="line"/>
      <point x="290.276" y="947.493" type="line"/>
      <point x="458.616" y="883.064" type="line"/>
      <point x="616.155" y="947.397" type="line"/>
      <point x="623.368" y="939.397" type="line"/>
    </contour>
    <contour>
      <point x="-90" y="479.931" type="line"/>
      <point x="-56" y="558.776"/>
      <point x="-2" y="629.038"/>
      <point x="142.862" y="644.004" type="curve"/>
      <point x="142.862" y="72.728" type="line" smooth="yes"/>
      <point x="142.136" y="37.9562"/>
      <point x="113.767" y="9.97938"/>
      <point x="78.811" y="9.97938" type="curve" smooth="yes"/>
      <point x="66.161" y="10" type="line"/>
      <point x="66" y="0" type="line"/>
      <point x="444.536" y="0" type="line" smooth="yes"/>
      <point x="695" y="0"/>
      <point x="844" y="130"/>
      <point x="843.678" y="349.836" type="curve"/>
      <point x="844" y="570"/>
      <point x="695" y="700"/>
      <point x="444.536" y="699.975" type="curve" smooth="yes"/>
      <point x="213.404" y="699.975" type="line" smooth="yes"/>
      <point x="51.066" y="699.582"/>
      <point x="-72" y="632.434"/>
      <point x="-100" y="483.931" type="curve"/>
    </contour>
    <contour>
      <point x="347.983" y="648.307" type="line"/>
      <point x="424.536" y="649.944" type="line" smooth="yes"/>
      <point x="549" y="650"/>
      <point x="624" y="538"/>
      <point x="623.678" y="349.909" type="curve" smooth="yes"/>
      <point x="624" y="161"/>
      <point x="549" y="50"/>
      <point x="424.536" y="50.4444" type="curve" smooth="yes"/>
      <point x="347.983" y="50.4444" type="line"/>
    </contour>
  </outline>
</glyph>
<glyph name="dcaron" format="1">
  <advance width="842"/>
  <unicode hex="010F"/>
  <outline>
    <contour>
      <point x="428.063" y="763.976" type="line"/>
      <point x="416.04" y="763.976" type="line"/>
      <point x="247.063" y="939.494" type="line"/>
      <point x="254.276" y="947.494" type="line"/>
      <point x="422.616" y="883.065" type="line"/>
      <point x="580.155" y="947.398" type="line"/>
      <point x="587.368" y="939.398" type="line"/>
    </contour>
    <contour>
      <point x="30.351" y="699.975" type="line"/>
      <point x="30.513" y="690.06" type="line"/>
      <point x="43.163" y="690.08" type="line" smooth="yes"/>
      <point x="76.2439" y="690.08"/>
      <point x="106.862" y="665.023"/>
      <point x="106.862" y="632.864" type="curve" smooth="yes"/>
      <point x="106.862" y="72.7279" type="line" smooth="yes"/>
      <point x="106.135" y="37.9561"/>
      <point x="77.7672" y="9.97934"/>
      <point x="42.8109" y="9.97934" type="curve" smooth="yes"/>
      <point x="30.161" y="10" type="line"/>
      <point x="30" y="0" type="line"/>
      <point x="408.536" y="0" type="line" smooth="yes"/>
      <point x="659.425" y="0.057342"/>
      <point x="807.678" y="129.928"/>
      <point x="807.678" y="349.709" type="curve" smooth="yes"/>
      <point x="807.678" y="569.876"/>
      <point x="659.425" y="699.975"/>
      <point x="408.536" y="699.975" type="curve" smooth="yes"/>
    </contour>
    <contour>
      <point x="311.983" y="649.936" type="line"/>
      <point x="388.536" y="649.936" type="line" smooth="yes"/>
      <point x="513.711" y="649.944"/>
      <point x="587.678" y="538.428"/>
      <point x="587.678" y="349.709" type="curve" smooth="yes"/>
      <point x="587.678" y="161.597"/>
      <point x="513.711" y="50.4404"/>
      <point x="388.536" y="50.4474" type="curve" smooth="yes"/>
      <point x="311.983" y="50.4474" type="line"/>
    </contour>
  </outline>
</glyph>
<glyph name="Emacron" format="1">
  <advance width="712"/>
  <unicode hex="0112"/>
  <outline>
    <contour>
      <point x="136.859" y="795.361" type="line"/>
      <point x="426.859" y="795.361" type="line"/>
      <point x="426.859" y="880.361" type="line"/>
      <point x="136.859" y="880.361" type="line"/>
    </contour>
    <contour>
      <point x="702.845" y="231.543" type="line"/>
      <point x="671.753" y="117.359"/>
      <point x="591.283" y="50.592"/>
      <point x="495.32" y="50.592" type="curve" smooth="yes"/>
      <point x="311.901" y="50.592" type="line"/>
      <point x="311.901" y="320.218" type="line"/>
      <point x="452.202" y="320.218" type="line" smooth="yes"/>
      <point x="514.992" y="318.435"/>
      <point x="559.486" y="273.356"/>
      <point x="559.275" y="210.977" type="curve" smooth="yes"/>
      <point x="559.259" y="206.243" type="line"/>
      <point x="569.032" y="206.119" type="line"/>
      <point x="569.032" y="484.375" type="line"/>
      <point x="559.259" y="484.25" type="line"/>
      <point x="559.276" y="479.516" type="line" smooth="yes"/>
      <point x="559.501" y="416.714"/>
      <point x="514.451" y="371.446"/>
      <point x="450.904" y="370.248" type="curve" smooth="yes"/>
      <point x="311.901" y="370.248" type="line"/>
      <point x="311.901" y="649.409" type="line"/>
      <point x="346.878" y="649.409" type="line"/>
      <point x="425.649" y="646.525"/>
      <point x="471.956" y="598.564"/>
      <point x="471.765" y="519.891" type="curve" smooth="yes"/>
      <point x="471.746" y="512.067" type="line"/>
      <point x="481.846" y="511.917" type="line"/>
      <point x="481.846" y="718.187" type="line"/>
      <point x="463.253" y="710.366"/>
      <point x="405.681" y="700.407"/>
      <point x="362.581" y="700" type="curve" smooth="yes"/>
      <point x="30.0068" y="700" type="line"/>
      <point x="30.1688" y="690.06" type="line"/>
      <point x="42.8188" y="690.08" type="line" smooth="yes"/>
      <point x="77.7589" y="690.08"/>
      <point x="106.118" y="662.128"/>
      <point x="106.869" y="627.378" type="curve" smooth="yes"/>
      <point x="106.869" y="72.8641" type="line" smooth="yes"/>
      <point x="106.21" y="38.0291"/>
      <point x="77.813" y="9.97909"/>
      <point x="42.811" y="9.97909" type="curve" smooth="yes"/>
      <point x="30.161" y="10" type="line"/>
      <point x="29.9999" y="0" type="line"/>
      <point x="674.557" y="0" type="line"/>
      <point x="712.845" y="231.543" type="line"/>
    </contour>
  </outline>
</glyph>
<glyph name="Ecaron" format="1">
  <advance width="712"/>
  <unicode hex="011A"/>
  <outline>
    <contour>
      <point x="285.864" y="763.975" type="line"/>
      <point x="273.841" y="763.975" type="line"/>
      <point x="104.864" y="939.493" type="line"/>
      <point x="112.077" y="947.493" type="line"/>
      <point x="280.417" y="883.064" type="line"/>
      <point x="437.956" y="947.397" type="line"/>
      <point x="445.169" y="939.397" type="line"/>
    </contour>
    <contour>
      <point x="702.845" y="231.543" type="line"/>
      <point x="671.753" y="117.359"/>
      <point x="591.283" y="50.592"/>
      <point x="495.32" y="50.592" type="curve" smooth="yes"/>
      <point x="311.901" y="50.592" type="line"/>
      <point x="311.901" y="320.218" type="line"/>
      <point x="452.202" y="320.218" type="line" smooth="yes"/>
      <point x="514.992" y="318.435"/>
      <point x="559.486" y="273.356"/>
      <point x="559.275" y="210.977" type="curve" smooth="yes"/>
      <point x="559.259" y="206.243" type="line"/>
      <point x="569.032" y="206.119" type="line"/>
      <point x="569.032" y="484.375" type="line"/>
      <point x="559.259" y="484.25" type="line"/>
      <point x="559.276" y="479.516" type="line" smooth="yes"/>
      <point x="559.501" y="416.714"/>
      <point x="514.451" y="371.446"/>
      <point x="450.904" y="370.248" type="curve" smooth="yes"/>
      <point x="311.901" y="370.248" type="line"/>
      <point x="311.901" y="649.409" type="line"/>
      <point x="346.878" y="649.409" type="line"/>
      <point x="425.649" y="646.525"/>
      <point x="471.956" y="598.564"/>
      <point x="471.765" y="519.891" type="curve" smooth="yes"/>
      <point x="471.746" y="512.067" type="line"/>
      <point x="481.846" y="511.917" type="line"/>
      <point x="481.846" y="718.187" type="line"/>
      <point x="463.253" y="710.366"/>
      <point x="405.681" y="700.407"/>
      <point x="362.581" y="700" type="curve" smooth="yes"/>
      <point x="30.0069" y="700" type="line"/>
      <point x="30.1689" y="690.06" type="line"/>
      <point x="42.8189" y="690.08" type="line" smooth="yes"/>
      <point x="77.759" y="690.08"/>
      <point x="106.118" y="662.128"/>
      <point x="106.869" y="627.378" type="curve" smooth="yes"/>
      <point x="106.869" y="72.864" type="line" smooth="yes"/>
      <point x="106.21" y="38.029"/>
      <point x="77.8131" y="9.97904"/>
      <point x="42.8111" y="9.97904" type="curve" smooth="yes"/>
      <point x="30.1611" y="10" type="line"/>
      <point x="30" y="0" type="line"/>
      <point x="674.557" y="0" type="line"/>
      <point x="712.845" y="231.543" type="line"/>
    </contour>
  </outline>
</glyph>
<glyph name="ecaron" format="1">
  <advance width="666"/>
  <unicode hex="011B"/>
  <outline>
    <contour>
      <point x="345.864" y="763.975" type="line"/>
      <point x="333.841" y="763.975" type="line"/>
      <point x="164.864" y="939.493" type="line"/>
      <point x="172.077" y="947.493" type="line"/>
      <point x="340.417" y="883.064" type="line"/>
      <point x="497.956" y="947.397" type="line"/>
      <point x="505.169" y="939.397" type="line"/>
    </contour>
    <contour>
      <point x="642.845" y="231.543" type="line"/>
      <point x="611.753" y="117.359"/>
      <point x="531.283" y="50.592"/>
      <point x="435.32" y="50.592" type="curve" smooth="yes"/>
      <point x="311.901" y="50.592" type="line"/>
      <point x="311.901" y="320.218" type="line"/>
      <point x="422.202" y="320.218" type="line" smooth="yes"/>
      <point x="484.992" y="318.435"/>
      <point x="529.486" y="273.356"/>
      <point x="529.275" y="210.977" type="curve" smooth="yes"/>
      <point x="529.259" y="206.243" type="line"/>
      <point x="539.032" y="206.119" type="line"/>
      <point x="539.032" y="484.375" type="line"/>
      <point x="529.259" y="484.25" type="line"/>
      <point x="529.276" y="479.516" type="line" smooth="yes"/>
      <point x="529.501" y="416.714"/>
      <point x="484.451" y="371.446"/>
      <point x="420.904" y="370.248" type="curve" smooth="yes"/>
      <point x="311.901" y="370.248" type="line"/>
      <point x="311.901" y="649.409" type="line"/>
      <point x="456.878" y="649.409" type="line"/>
      <point x="535.649" y="646.525"/>
      <point x="581.956" y="598.564"/>
      <point x="581.765" y="519.891" type="curve" smooth="yes"/>
      <point x="581.746" y="512.067" type="line"/>
      <point x="591.846" y="511.917" type="line"/>
      <point x="591.846" y="718.187" type="line"/>
      <point x="573.253" y="710.366"/>
      <point x="515.681" y="700.407"/>
      <point x="472.581" y="700" type="curve" smooth="yes"/>
      <point x="30.0069" y="700" type="line"/>
      <point x="30.1689" y="690.06" type="line"/>
      <point x="42.8189" y="690.08" type="line" smooth="yes"/>
      <point x="77.7589" y="690.08"/>
      <point x="106.118" y="662.128"/>
      <point x="106.869" y="627.378" type="curve" smooth="yes"/>
      <point x="106.869" y="72.864" type="line" smooth="yes"/>
      <point x="106.21" y="38.029"/>
      <point x="77.813" y="9.97904"/>
      <point x="42.811" y="9.97904" type="curve" smooth="yes"/>
      <point x="30.161" y="10" type="line"/>
      <point x="29.9999" y="0" type="line"/>
      <point x="614.557" y="0" type="line"/>
      <point x="652.845" y="231.543" type="line"/>
    </contour>
  </outline>
</glyph>
<glyph name="Gbreve" format="1">
  <advance width="872"/>
  <unicode hex="011E"/>
  <outline>
    <contour>
      <point x="553.793" y="927.64" type="line"/>
      <point x="537.803" y="890.907"/>
      <point x="484.803" y="863.907"/>
      <point x="426.803" y="863.907" type="curve" smooth="yes"/>
      <point x="367.803" y="863.907"/>
      <point x="315.803" y="891.907"/>
      <point x="300.21" y="927.64" type="curve"/>
      <point x="287.495" y="927.64" type="line"/>
      <point x="268.803" y="842.907"/>
      <point x="336.803" y="763.907"/>
      <point x="427" y="763.995" type="curve" smooth="yes"/>
      <point x="514.803" y="763.907"/>
      <point x="585.803" y="840.907"/>
      <point x="566.507" y="927.64" type="curve"/>
    </contour>
    <contour>
      <point x="1115.12" y="-163" type="line"/>
      <point x="920.688" y="-208"/>
      <point x="795.346" y="-37"/>
      <point x="794.526" y="117.437" type="curve"/>
      <point x="794.526" y="279.151" type="line"/>
      <point x="793.945" y="308.254"/>
      <point x="812.133" y="324.561"/>
      <point x="844.467" y="324.561" type="curve" smooth="yes"/>
      <point x="859.537" y="324.54" type="line"/>
      <point x="859.537" y="334.54" type="line"/>
      <point x="523.669" y="334.54" type="line"/>
      <point x="523.669" y="324.54" type="line"/>
      <point x="539.436" y="324.561" type="line" smooth="yes"/>
      <point x="571.712" y="324.606"/>
      <point x="590.552" y="308.199"/>
      <point x="590.317" y="278.994" type="curve" smooth="yes"/>
      <point x="590.317" y="142.656" type="line" smooth="yes"/>
      <point x="590.521" y="78.6619"/>
      <point x="537.195" y="35.9999"/>
      <point x="457" y="35.9999" type="curve" smooth="yes"/>
      <point x="320.8" y="35.9999"/>
      <point x="230" y="159.2"/>
      <point x="230" y="344" type="curve" smooth="yes"/>
      <point x="230" y="536"/>
      <point x="324.8" y="664"/>
      <point x="467" y="664" type="curve" smooth="yes"/>
      <point x="583.108" y="664"/>
      <point x="691" y="609"/>
      <point x="725.378" y="477.264" type="curve"/>
      <point x="733.701" y="477.232" type="line"/>
      <point x="743.525" y="668.468" type="line"/>
      <point x="684.775" y="693.286"/>
      <point x="556.117" y="714"/>
      <point x="446.128" y="714" type="curve" smooth="yes"/>
      <point x="185" y="714"/>
      <point x="9.99999" y="570"/>
      <point x="9.99999" y="350" type="curve" smooth="yes"/>
      <point x="9.99999" y="132"/>
      <point x="183" y="-14"/>
      <point x="434" y="-14" type="curve" smooth="yes"/>
      <point x="500.64" y="-14"/>
      <point x="562.823" y="-4"/>
      <point x="616.787" y="12.5375" type="curve"/>
      <point x="686.193" y="-158"/>
      <point x="884.254" y="-276"/>
      <point x="1117.12" y="-173" type="curve"/>
    </contour>
  </outline>
</glyph>
<glyph name="Gcommaaccent" format="1">
  <advance width="872"/>
  <unicode hex="0122"/>
  <outline>
    <contour>
      <point x="1115.12" y="-163" type="line"/>
      <point x="920.688" y="-208"/>
      <point x="795.346" y="-37"/>
      <point x="794.526" y="117.437" type="curve"/>
      <point x="794.526" y="279.151" type="line"/>
      <point x="793.945" y="308.254"/>
      <point x="812.133" y="324.561"/>
      <point x="844.467" y="324.561" type="curve" smooth="yes"/>
      <point x="859.537" y="324.54" type="line"/>
      <point x="859.537" y="334.54" type="line"/>
      <point x="523.669" y="334.54" type="line"/>
      <point x="523.669" y="324.54" type="line"/>
      <point x="539.436" y="324.561" type="line" smooth="yes"/>
      <point x="571.712" y="324.606"/>
      <point x="590.552" y="308.199"/>
      <point x="590.317" y="278.994" type="curve" smooth="yes"/>
      <point x="590.317" y="142.656" type="line" smooth="yes"/>
      <point x="590.521" y="78.6619"/>
      <point x="537.195" y="35.9999"/>
      <point x="457" y="35.9999" type="curve" smooth="yes"/>
      <point x="320.8" y="35.9999"/>
      <point x="230" y="159.2"/>
      <point x="230" y="344" type="curve" smooth="yes"/>
      <point x="230" y="536"/>
      <point x="324.8" y="664"/>
      <point x="467" y="664" type="curve" smooth="yes"/>
      <point x="583.108" y="664"/>
      <point x="691" y="609"/>
      <point x="725.378" y="477.264" type="curve"/>
      <point x="733.701" y="477.232" type="line"/>
      <point x="743.525" y="668.468" type="line"/>
      <point x="684.775" y="693.286"/>
      <point x="556.117" y="714"/>
      <point x="446.128" y="714" type="curve" smooth="yes"/>
      <point x="185" y="714"/>
      <point x="9.99998" y="570"/>
      <point x="9.99998" y="350" type="curve" smooth="yes"/>
      <point x="9.99998" y="132"/>
      <point x="183" y="-14"/>
      <point x="434" y="-14" type="curve" smooth="yes"/>
      <point x="500.64" y="-14"/>
      <point x="562.823" y="-4"/>
      <point x="616.787" y="12.5375" type="curve"/>
      <point x="686.193" y="-158"/>
      <point x="884.254" y="-276"/>
      <point x="1117.12" y="-173" type="curve"/>
    </contour>
    <contour>
      <point x="396.681" y="-273" type="line"/>
      <point x="482.14" y="-290"/>
      <point x="552.498" y="-189"/>
      <point x="514.121" y="-105" type="curve" smooth="yes"/>
      <point x="496.354" y="-66"/>
      <point x="445.185" y="-52"/>
      <point x="413.204" y="-76" type="curve" smooth="yes"/>
      <point x="385.487" y="-96"/>
      <point x="381.171" y="-145"/>
      <point x="406.808" y="-174" type="curve" smooth="yes"/>
      <point x="444.474" y="-216"/>
      <point x="419.6" y="-253"/>
      <point x="393.948" y="-264" type="curve"/>
    </contour>
  </outline>
</glyph>
<glyph name="Hbar" format="1">
  <advance width="893"/>
  <unicode hex="0126"/>
  <outline>
    <contour>
      <point x="913.805" y="862" type="line"/>
      <point x="712.396" y="911"/>
      <point x="580.645" y="762"/>
      <point x="580.396" y="610" type="curve" smooth="yes"/>
      <point x="580.396" y="538.11" type="line"/>
      <point x="311.959" y="538.11" type="line"/>
      <point x="311.959" y="628.565" type="line"/>
      <point x="313.723" y="664.643"/>
      <point x="342.423" y="690"/>
      <point x="375.959" y="690.08" type="curve" smooth="yes"/>
      <point x="388.609" y="690.06" type="line"/>
      <point x="388.771" y="700.06" type="line"/>
      <point x="30.016" y="700.06" type="line"/>
      <point x="30.178" y="690.06" type="line"/>
      <point x="43" y="690" type="line" smooth="yes"/>
      <point x="77.5516" y="690.079"/>
      <point x="105.773" y="662.475"/>
      <point x="106.861" y="628.027" type="curve" smooth="yes"/>
      <point x="106.861" y="538.11" type="line"/>
      <point x="42.2681" y="538.11" type="line"/>
      <point x="42.2681" y="488.11" type="line"/>
      <point x="106.861" y="488.11" type="line"/>
      <point x="106.861" y="69.9999" type="line" smooth="yes"/>
      <point x="106.861" y="-30"/>
      <point x="105.168" y="-121"/>
      <point x="-24" y="-172" type="curve"/>
      <point x="-24" y="-182" type="line"/>
      <point x="221.408" y="-258"/>
      <point x="311.959" y="-82"/>
      <point x="311.959" y="69.9999" type="curve" smooth="yes"/>
      <point x="311.959" y="325" type="line"/>
      <point x="579.929" y="325" type="line"/>
      <point x="579.929" y="72.8639" type="line" smooth="yes"/>
      <point x="578.855" y="38.0289"/>
      <point x="550.458" y="9.97892"/>
      <point x="515.456" y="9.97892" type="curve" smooth="yes"/>
      <point x="502.806" y="9.99992" type="line"/>
      <point x="502.645" y="0" type="line"/>
      <point x="861.469" y="0" type="line"/>
      <point x="861.308" y="9.99992" type="line"/>
      <point x="848.658" y="9.97892" type="line" smooth="yes"/>
      <point x="812" y="9.99992"/>
      <point x="785" y="39.9999"/>
      <point x="784.604" y="72.8639" type="curve" smooth="yes"/>
      <point x="784.562" y="488.11" type="line"/>
      <point x="853.012" y="488.11" type="line"/>
      <point x="853.012" y="538.11" type="line"/>
      <point x="785.325" y="538.11" type="line"/>
      <point x="785.325" y="610" type="line" smooth="yes"/>
      <point x="785.591" y="700"/>
      <point x="784.636" y="812"/>
      <point x="913.805" y="852" type="curve"/>
    </contour>
    <contour>
      <point x="580.011" y="375" type="line"/>
      <point x="311.959" y="375" type="line"/>
      <point x="311.959" y="488.11" type="line"/>
      <point x="580.011" y="488.11" type="line"/>
    </contour>
  </outline>
</glyph>
<glyph name="Iogonek" format="1">
  <advance width="498"/>
  <unicode hex="012E"/>
  <outline>
    <contour>
      <point x="468.713" y="9.9999" type="line"/>
      <point x="456.063" y="9.9789" type="line" smooth="yes"/>
      <point x="421.061" y="9.9789"/>
      <point x="392.664" y="38.0289"/>
      <point x="392.009" y="72.8639" type="curve"/>
      <point x="392.009" y="613.639" type="line" smooth="yes"/>
      <point x="393.251" y="671.075"/>
      <point x="411.846" y="700.762"/>
      <point x="470.643" y="710.06" type="curve"/>
      <point x="468.805" y="720.06" type="line"/>
      <point x="374.087" y="702"/>
      <point x="179.271" y="699.19"/>
      <point x="109.087" y="696" type="curve" smooth="yes"/>
      <point x="-1" y="691"/>
      <point x="-38" y="641.871"/>
      <point x="-40" y="591" type="curve" smooth="yes"/>
      <point x="-43" y="518.81"/>
      <point x="32.0872" y="479"/>
      <point x="88.7317" y="511.398" type="curve"/>
      <point x="88.7317" y="517.205" type="line"/>
      <point x="37.0872" y="512"/>
      <point x="7.08722" y="544"/>
      <point x="10.0872" y="585" type="curve" smooth="yes"/>
      <point x="14.0872" y="627"/>
      <point x="44.0872" y="644.925"/>
      <point x="100.01" y="646.865" type="curve" smooth="yes"/>
      <point x="186.96" y="649.873" type="line"/>
      <point x="186.96" y="72.864" type="line" smooth="yes"/>
      <point x="186.297" y="38.029"/>
      <point x="157.9" y="9.97905"/>
      <point x="122.898" y="9.97905" type="curve" smooth="yes"/>
      <point x="110.248" y="10" type="line"/>
      <point x="110.087" y="0" type="line"/>
      <point x="282.156" y="0" type="line"/>
      <point x="237.212" y="-7"/>
      <point x="193.248" y="-34"/>
      <point x="185.206" y="-91" type="curve" smooth="yes"/>
      <point x="165.567" y="-230"/>
      <point x="380.206" y="-264"/>
      <point x="389.252" y="-128" type="curve"/>
      <point x="383.252" y="-122" type="line"/>
      <point x="333.206" y="-162"/>
      <point x="277.206" y="-141"/>
      <point x="271.206" y="-80" type="curve" smooth="yes"/>
      <point x="268.206" y="-46"/>
      <point x="281.206" y="-14"/>
      <point x="335.787" y="-2" type="curve"/>
      <point x="330.44" y="0" type="line"/>
      <point x="468.874" y="0" type="line"/>
    </contour>
  </outline>
</glyph>
<glyph name="iogonek" format="1">
  <advance width="418"/>
  <unicode hex="012F"/>
  <outline>
    <contour>
      <point x="388.787" y="0" type="line"/>
      <point x="388.626" y="10" type="line"/>
      <point x="375.976" y="9.979" type="line" smooth="yes"/>
      <point x="340.974" y="9.979"/>
      <point x="312.577" y="38.029"/>
      <point x="311.922" y="72.864" type="curve"/>
      <point x="311.922" y="627.818" type="line" smooth="yes"/>
      <point x="312.9" y="662.363"/>
      <point x="341.167" y="690.08"/>
      <point x="375.959" y="690.08" type="curve" smooth="yes"/>
      <point x="388.609" y="690.06" type="line"/>
      <point x="388.771" y="700.06" type="line"/>
      <point x="30.016" y="700.06" type="line"/>
      <point x="30.178" y="690.06" type="line"/>
      <point x="42.828" y="690.08" type="line" smooth="yes"/>
      <point x="77.6917" y="690.08"/>
      <point x="106.003" y="662.25"/>
      <point x="106.873" y="627.606" type="curve" smooth="yes"/>
      <point x="106.873" y="72.8641" type="line" smooth="yes"/>
      <point x="106.21" y="38.0291"/>
      <point x="77.8129" y="9.97908"/>
      <point x="42.8109" y="9.97908" type="curve" smooth="yes"/>
      <point x="30.1609" y="10" type="line"/>
      <point x="29.9999" y="0" type="line"/>
      <point x="201.975" y="0" type="line"/>
      <point x="157.064" y="-7"/>
      <point x="113.155" y="-34"/>
      <point x="105.119" y="-91" type="curve" smooth="yes"/>
      <point x="85.48" y="-230"/>
      <point x="300.119" y="-264"/>
      <point x="309.165" y="-128" type="curve"/>
      <point x="303.165" y="-122" type="line"/>
      <point x="253.119" y="-162"/>
      <point x="197.119" y="-141"/>
      <point x="191.119" y="-80" type="curve" smooth="yes"/>
      <point x="188.305" y="-48"/>
      <point x="203.114" y="-13"/>
      <point x="249.811" y="0" type="curve"/>
    </contour>
  </outline>
</glyph>
<glyph name="IJ" format="1">
  <advance width="922"/>
  <unicode hex="0132"/>
  <outline>
    <contour>
      <point x="392.009" y="613.639" type="line" smooth="yes"/>
      <point x="393.251" y="671.075"/>
      <point x="411.846" y="700.762"/>
      <point x="470.643" y="710.06" type="curve"/>
      <point x="468.805" y="720.06" type="line"/>
      <point x="374.087" y="702"/>
      <point x="179.271" y="699.19"/>
      <point x="109.087" y="696" type="curve" smooth="yes"/>
      <point x="-1" y="691"/>
      <point x="-38" y="641.871"/>
      <point x="-40" y="591" type="curve" smooth="yes"/>
      <point x="-43" y="518.81"/>
      <point x="32.0872" y="479"/>
      <point x="88.7317" y="511.398" type="curve"/>
      <point x="88.7317" y="517.205" type="line"/>
      <point x="37.0872" y="512"/>
      <point x="7.08721" y="544"/>
      <point x="10.0872" y="585" type="curve" smooth="yes"/>
      <point x="14.0872" y="627"/>
      <point x="44.0872" y="644.925"/>
      <point x="100.01" y="646.865" type="curve" smooth="yes"/>
      <point x="186.96" y="649.873" type="line"/>
      <point x="186.96" y="72.8639" type="line" smooth="yes"/>
      <point x="186.297" y="38.0289"/>
      <point x="157.9" y="9.97894"/>
      <point x="122.898" y="9.97894" type="curve" smooth="yes"/>
      <point x="110.248" y="9.99994" type="line"/>
      <point x="110.087" y="0" type="line"/>
      <point x="468.874" y="0" type="line"/>
      <point x="468.713" y="9.99994" type="line"/>
      <point x="456.063" y="9.97894" type="line" smooth="yes"/>
      <point x="421.061" y="9.97894"/>
      <point x="392.664" y="38.0289"/>
      <point x="392.009" y="72.8639" type="curve"/>
    </contour>
    <contour>
      <point x="533.085" y="700.06" type="line"/>
      <point x="533.247" y="690.06" type="line"/>
      <point x="545.897" y="690.08" type="line" smooth="yes"/>
      <point x="580.898" y="690.08"/>
      <point x="609.295" y="662.03"/>
      <point x="609.951" y="627.196" type="curve" smooth="yes"/>
      <point x="609.951" y="82.9229" type="line" smooth="yes"/>
      <point x="609.961" y="-13"/>
      <point x="592.459" y="-187"/>
      <point x="425" y="-161" type="curve"/>
      <point x="423" y="-170" type="line"/>
      <point x="675.744" y="-311"/>
      <point x="815.163" y="-130"/>
      <point x="815.163" y="80.0989" type="curve" smooth="yes"/>
      <point x="815.163" y="627.424" type="line" smooth="yes"/>
      <point x="815.938" y="662.152"/>
      <point x="844.287" y="690.08"/>
      <point x="879.212" y="690.08" type="curve" smooth="yes"/>
      <point x="891.862" y="690.06" type="line"/>
      <point x="892.024" y="700.06" type="line"/>
    </contour>
  </outline>
</glyph>
<glyph name="Kcommaaccent" format="1">
  <advance width="822"/>
  <unicode hex="0136"/>
  <outline>
    <contour>
      <point x="311.922" y="627.818" type="line" smooth="yes"/>
      <point x="312.9" y="662.363"/>
      <point x="341.167" y="690.08"/>
      <point x="375.959" y="690.08" type="curve" smooth="yes"/>
      <point x="388.609" y="690.06" type="line"/>
      <point x="388.771" y="700.06" type="line"/>
      <point x="30.016" y="700.06" type="line"/>
      <point x="30.178" y="690.06" type="line"/>
      <point x="43" y="690" type="line" smooth="yes"/>
      <point x="77.6924" y="690.08"/>
      <point x="106.003" y="662.25"/>
      <point x="106.873" y="627.606" type="curve" smooth="yes"/>
      <point x="106.873" y="72.8641" type="line" smooth="yes"/>
      <point x="106.21" y="38.0291"/>
      <point x="77.813" y="9.97911"/>
      <point x="42.811" y="9.97911" type="curve" smooth="yes"/>
      <point x="30.161" y="10" type="line"/>
      <point x="30" y="0" type="line"/>
      <point x="388.787" y="0" type="line"/>
      <point x="388.626" y="10" type="line"/>
      <point x="376" y="10" type="line" smooth="yes"/>
      <point x="340.974" y="9.97911"/>
      <point x="312.577" y="38.0291"/>
      <point x="311.922" y="72.8641" type="curve"/>
    </contour>
    <contour>
      <point x="1103.19" y="-166" type="line"/>
      <point x="966.68" y="-155"/>
      <point x="880.483" y="-92"/>
      <point x="734.054" y="113.193" type="curve" smooth="yes"/>
      <point x="504.736" y="434.469" type="line"/>
      <point x="676.163" y="641.693" type="line" smooth="yes"/>
      <point x="701.936" y="671.09"/>
      <point x="741.939" y="690.881"/>
      <point x="786.055" y="690.98" type="curve" smooth="yes"/>
      <point x="790.435" y="690.98" type="line"/>
      <point x="790.435" y="700" type="line"/>
      <point x="549.336" y="700" type="line"/>
      <point x="549.336" y="691.157" type="line"/>
      <point x="559" y="691.164" type="line" smooth="yes"/>
      <point x="586.407" y="691.164"/>
      <point x="599.035" y="666.349"/>
      <point x="583.182" y="644.083" type="curve" smooth="yes"/>
      <point x="344.077" y="318.182" type="line"/>
      <point x="563.89" y="13.1981" type="line" smooth="yes"/>
      <point x="720.768" y="-204"/>
      <point x="879.562" y="-305"/>
      <point x="1105.19" y="-177" type="curve"/>
    </contour>
    <contour>
      <point x="411.334" y="-209" type="line"/>
      <point x="496.793" y="-226"/>
      <point x="567.151" y="-125"/>
      <point x="528.774" y="-41" type="curve" smooth="yes"/>
      <point x="511.007" y="-2"/>
      <point x="459.837" y="11.7182"/>
      <point x="427.857" y="-12" type="curve" smooth="yes"/>
      <point x="400.14" y="-32"/>
      <point x="395.824" y="-81"/>
      <point x="421.461" y="-110" type="curve" smooth="yes"/>
      <point x="459.127" y="-152"/>
      <point x="434.253" y="-189"/>
      <point x="408.601" y="-200" type="curve"/>
    </contour>
  </outline>
</glyph>
<glyph name="kcommaaccent" format="1">
  <advance width="821"/>
  <unicode hex="0137"/>
  <outline>
    <contour>
      <point x="311.922" y="627.818" type="line" smooth="yes"/>
      <point x="312.9" y="662.363"/>
      <point x="341.167" y="690.08"/>
      <point x="375.959" y="690.08" type="curve" smooth="yes"/>
      <point x="388.609" y="690.06" type="line"/>
      <point x="388.771" y="700.06" type="line"/>
      <point x="30.016" y="700.06" type="line"/>
      <point x="30.178" y="690.06" type="line"/>
      <point x="43" y="690" type="line" smooth="yes"/>
      <point x="77.6924" y="690.08"/>
      <point x="106.003" y="662.25"/>
      <point x="106.873" y="627.606" type="curve" smooth="yes"/>
      <point x="106.873" y="72.8641" type="line" smooth="yes"/>
      <point x="106.21" y="38.0291"/>
      <point x="77.813" y="9.97911"/>
      <point x="42.811" y="9.97911" type="curve" smooth="yes"/>
      <point x="30.161" y="10" type="line"/>
      <point x="30" y="0" type="line"/>
      <point x="388.787" y="0" type="line"/>
      <point x="388.626" y="10" type="line"/>
      <point x="376" y="10" type="line" smooth="yes"/>
      <point x="340.974" y="9.97911"/>
      <point x="312.577" y="38.0291"/>
      <point x="311.922" y="72.8641" type="curve"/>
    </contour>
    <contour>
      <point x="507.452" y="437.752" type="line"/>
      <point x="676.163" y="641.693" type="line" smooth="yes"/>
      <point x="701.936" y="671.09"/>
      <point x="741.939" y="690.881"/>
      <point x="786.055" y="690.98" type="curve" smooth="yes"/>
      <point x="790.435" y="690.98" type="line"/>
      <point x="790.435" y="700" type="line"/>
      <point x="549.336" y="700" type="line"/>
      <point x="549.336" y="691.157" type="line"/>
      <point x="559" y="691.164" type="line" smooth="yes"/>
      <point x="586.407" y="691.164"/>
      <point x="599.035" y="666.349"/>
      <point x="583.182" y="644.083" type="curve" smooth="yes"/>
      <point x="344.077" y="318.182" type="line"/>
      <point x="344" y="316"/>
      <point x="451.767" y="142.444"/>
      <point x="483" y="100" type="curve" smooth="yes"/>
      <point x="561" y="-6"/>
      <point x="711" y="0.166199"/>
      <point x="739.533" y="0.131199" type="curve" smooth="yes"/>
      <point x="847.725" y="0.131199" type="line"/>
      <point x="847.725" y="10.0752" type="line"/>
      <point x="807.078" y="11.1102"/>
      <point x="773.316" y="36.8732"/>
      <point x="740.941" y="85.6891" type="curve" smooth="yes"/>
    </contour>
    <contour>
      <point x="411.334" y="-209" type="line"/>
      <point x="496.793" y="-226"/>
      <point x="567.151" y="-125"/>
      <point x="528.774" y="-41" type="curve" smooth="yes"/>
      <point x="511.007" y="-2"/>
      <point x="459.838" y="11.7183"/>
      <point x="427.857" y="-12" type="curve" smooth="yes"/>
      <point x="400.14" y="-32"/>
      <point x="395.824" y="-81"/>
      <point x="421.461" y="-110" type="curve" smooth="yes"/>
      <point x="459.127" y="-152"/>
      <point x="434.253" y="-189"/>
      <point x="408.601" y="-200" type="curve"/>
    </contour>
  </outline>
</glyph>
